<?xml version="1.0" encoding="UTF-8"?>
<svg width="360px" height="300px" viewBox="0 0 360 300" version="1.1" xmlns="http://www.w3.org/2000/svg" xmlns:xlink="http://www.w3.org/1999/xlink">
    <!-- Generator: Sketch 61.2 (89653) - https://sketch.com -->
    <title>Shadow</title>
    <desc>Created with Sketch.</desc>
    <defs>
        <linearGradient x1="19.927073%" y1="34.3081743%" x2="70.7829562%" y2="39.301552%" id="linearGradient-1">
            <stop stop-color="#43E0CD" offset="0%"></stop>
            <stop stop-color="#207BBE" offset="100%"></stop>
        </linearGradient>
    </defs>
    <g id="Page-1" stroke="none" stroke-width="1" fill="none" fill-rule="evenodd">
        <g id="Home" transform="translate(-540.000000, -812.000000)" fill="url(#linearGradient-1)" fill-rule="nonzero">
            <g id="Project-Thumb---AirBnB" transform="translate(540.000000, 775.000000)">
                <path d="M331.186667,88.126612 C285.423967,80.5720985 240.1384,70.8405627 195.8492,56.8253224 C187.102925,54.0574443 178.395242,51.1488863 169.778775,48.0011723 C165.554742,46.4958968 161.593833,44.2626026 157.524167,42.3212192 C157.091627,42.1451252 156.734177,41.8228742 156.513767,41.4103165 C155.857708,39.4970692 154.4649,38.2133646 152.963333,37 L152.261667,37 C151.577542,37.7456038 150.5075,38.4067995 150.286475,39.2508792 C149.601231,42.2334945 149.79999,45.3518123 150.858333,48.2227433 C151.135492,49.021102 151.005683,49.9812427 150.99165,50.8534584 C150.99165,51.5849941 150.86535,52.3165299 150.8022,53.0515826 C150.77585,53.7354954 150.713785,54.4175552 150.616258,55.094959 C150.100533,57.6869871 148.627033,59.1711606 145.872992,59.3153576 C142.873367,59.4771395 141.196383,60.978898 141.052542,64.1652989 C140.989392,65.5720985 140.315792,66.6518171 138.554608,67.07034 C137.5407,67.3130129 136.474167,68.5932005 136.014575,69.6588511 C135.213659,71.6834139 133.683623,73.332704 131.727392,74.2801876 C120.149892,80.1500586 107.849675,84.1277843 95.809075,88.7702227 C65.202375,100.583822 33.9361083,110.505275 2.77509167,120.704572 C1.83485833,121.010551 0.9262,121.407972 0,121.759672 L0,337 L421,337 L421,98.1957796 C417.161883,97.8757327 413.330783,97.4501758 409.48565,97.2461899 C383.187183,95.8710434 357.123775,92.4103165 331.186667,88.126612 Z" id="Shadow"></path>
            </g>
        </g>
    </g>
</svg>