<?xml version="1.0" encoding="UTF-8"?>
<svg width="319px" height="309px" viewBox="0 0 319 309" version="1.1" xmlns="http://www.w3.org/2000/svg" xmlns:xlink="http://www.w3.org/1999/xlink">
    <!-- Generator: Sketch 61.2 (89653) - https://sketch.com -->
    <title>Shadow</title>
    <desc>Created with Sketch.</desc>
    <defs>
        <linearGradient x1="63.7249703%" y1="23.9225277%" x2="47.8305851%" y2="72.8700696%" id="linearGradient-1">
            <stop stop-color="#FFAB94" offset="0%"></stop>
            <stop stop-color="#FD68D5" offset="100%"></stop>
        </linearGradient>
    </defs>
    <g id="Page-1" stroke="none" stroke-width="1" fill="none" fill-rule="evenodd">
        <g id="Home" transform="translate(-130.000000, -2662.000000)" fill="url(#linearGradient-1)" fill-rule="nonzero">
            <g id="Project-Thumb---The-Big-C" transform="translate(130.000000, 2662.000000)">
                <path d="M261.695764,-25 L262.38896,-25 C262.608727,-24.8446957 262.840527,-24.707161 263.082157,-24.5887035 C265.307317,-23.6829268 265.325802,-23.6852375 265.251861,-21.3121951 C265.21027,-19.9650834 265.582285,-18.8536585 266.638254,-17.9224647 C268.063928,-16.6539153 269.72991,-15.7735558 271.321951,-14.7684211 C274.475995,-12.7766367 277.292683,-10.4867779 279.138896,-7.10397946 C282.500899,-0.946084724 284.645186,5.66700899 286.826444,12.2870347 C287.965597,15.7530167 288.85751,19.2929397 290.322465,22.643389 C290.620539,23.3365854 291.087291,23.7987163 291.845186,23.8818999 C292.646983,23.9697047 293.726059,23.539923 293.714506,24.9956354 C293.714506,25.0741977 293.892426,25.1412067 293.945571,25.2267009 C295.191014,27.3894737 297.194352,29.2703466 296.487291,32.158665 C296.376517,32.5369159 296.431974,32.9444367 296.639795,33.2793325 C296.806162,33.5242619 296.889345,33.7414634 296.713736,34.0164313 C295.773299,35.4813864 295.941977,37.4154044 294.715019,38.769448 C294.608729,38.8872914 294.624904,39.1391528 294.624904,39.3286264 C294.641078,41.024647 294.044929,42.637484 294.213607,44.4120668 C294.303723,45.3732991 295.00154,46.9537869 293.555071,47.8503209 C293.427985,47.9288832 293.418742,48.4141207 293.527343,48.6174583 C293.950193,49.4146341 293.989474,50.2903723 294.132734,51.1406932 C294.324519,52.265982 294.740436,53.3450578 294.996919,54.4148909 C295.588447,56.8757381 295.371245,59.4983312 295.789474,62.0123235 C295.841474,62.2796011 295.827996,62.5554947 295.750193,62.8164313 C295.0362,64.8752246 294.657253,67.061104 293.633633,68.9997433 C292.637741,70.8829268 291.075738,72.514249 291.242105,74.8664955 C291.237153,74.9048366 291.216156,74.9392724 291.184339,74.9612323 C290.2,75.5758665 290.604365,76.7427471 290.151476,77.5699615 C290.019769,77.801027 289.920411,78.1499358 290.119127,78.3394095 C291.131194,79.2983312 290.350193,79.9568678 289.77715,80.6662388 C289.287291,81.2716303 288.993838,83.3743261 289.35199,83.8064185 C290.193068,84.8207959 290.109884,85.4700899 289.081643,86.0477535 C288.914065,86.1340198 288.7859,86.2812032 288.723492,86.4590501 C288.522465,87.5288832 288.074198,88.4716303 287.618999,89.4629012 C286.694737,91.4523748 286.392041,93.679846 286.03389,95.8564827 C285.989987,96.1268293 285.661874,96.5103979 286.089345,96.6582798 C286.516816,96.8061617 286.653145,96.362516 286.805648,96.0598203 C287.420282,94.82362 288.342234,93.8161746 289.275738,92.522208 C289.377407,93.7075738 288.887548,94.4816431 288.411553,95.1632863 C287.112965,97.01181 284.922465,98.3057766 284.860077,100.926059 C284.860077,100.951476 284.806932,100.979204 284.779204,101.004621 C283.570732,102.196919 282.983825,103.777407 282.290629,105.253915 C280.462901,109.126573 278.203081,112.724262 275.820796,116.261874 C275.266239,117.086778 274.771759,117.950963 274,118.604878 C273.390716,119.138574 272.879992,119.77522 272.491142,120.485751 C271.675481,121.916046 270.665725,123.353273 269.533504,124.381515 C267.876765,125.88344 265.995892,127.207445 264.426958,128.817972 C263.336329,129.936329 261.790501,130.784339 261.527086,132.579718 C261.460077,133.041849 261.296021,133.47163 261.196662,133.919897 C261.039538,134.613094 260.325546,135.442619 260.926316,135.934788 C261.527086,136.426958 262.435173,135.812323 263.172272,135.541977 C263.51996,135.376879 263.858569,135.193305 264.18665,134.992041 C264.4362,134.867266 264.68113,134.603851 265,134.869576 C263.733761,136.366881 263.733761,136.366881 264.974583,137.713992 C265.024134,137.772784 265.077387,137.828352 265.134018,137.880359 C265.365083,138.09525 265.623877,138.245443 265.963543,138.065212 C267.11887,137.452888 268.207189,137.852632 269.078306,138.541207 C270.208216,139.430809 271.42362,140.244159 272.287805,141.475738 C272.749936,142.143517 273.327599,142.790501 274.480616,142.4 C276.379974,141.741463 278.360205,141.320924 280.308087,140.805648 C280.384837,140.79649 280.462403,140.79649 280.539153,140.805648 C283.360462,140.676252 285.853659,141.90552 288.418485,142.769705 C290.639024,143.516046 292.663158,144.79846 294.973813,145.311425 C299.629782,146.328113 303.125802,149.040822 306.164313,152.587677 C308.461104,155.268036 310.03466,158.417458 312.135045,161.21335 C314.267779,164.057766 316.148652,167.038511 317.359435,170.412067 C318.200513,172.75276 318.484724,175.192811 318.796662,177.632863 L318.796662,182.023107 C318.738896,182.402054 318.676508,182.778691 318.621053,183.157638 C318.158922,186.427214 318.04801,189.759178 316.95276,192.920154 C316.622336,193.874454 316.737869,194.803338 317.116816,195.734531 C317.687548,197.137099 317.431065,198.366367 316.751733,199.785109 C315.89448,201.580488 315.242875,203.602311 315.497047,205.668036 C315.78819,208.031836 316.326573,210.363286 316.675481,212.720154 C317.477279,218.122465 318.357638,223.517843 318.420026,228.996406 C318.461617,232.730424 318.242105,236.452888 317.981001,240.179974 C317.51887,246.83697 316.132478,253.251348 313.507574,259.416175 C311.655079,263.688039 310.192643,268.118658 309.138126,272.653915 C308.033633,277.568678 305.360205,281.291142 301.399743,284.294994 C296.457253,288.049807 290.715276,289.609499 284.776893,290.702439 C282.466239,291.12991 280.102439,291.062901 277.801027,291.566624 C276.721951,291.797689 276.243646,292.477022 276.130424,293.489089 C276.08247,294.064967 276.128514,294.644812 276.266752,295.205905 C276.788367,297.498158 276.920379,299.861866 276.657253,302.197946 C276.417987,304.268809 276.437391,306.361401 276.715019,308.427471 L13.3003851,308.427471 C13.63543,307.228241 14.4557125,306.347882 15.3106547,305.527599 C17.1869063,303.713736 18.9198973,301.745058 21.2120668,300.404878 C22.2634146,299.790244 22.7186136,298.78742 22.6816431,297.578947 C22.6581473,296.7653 22.8838917,295.963908 23.3286264,295.282157 C23.694434,294.647743 23.9513911,293.956536 24.0888318,293.237227 C24.3961489,291.927086 24.7358151,290.623877 25.0523748,289.309114 C25.319788,288.214617 25.9822452,287.257551 26.9124519,286.621823 C27.9794208,285.860662 28.9278275,284.945738 29.7268293,283.906804 C30.7319641,282.582798 31.836457,281.35353 33.4238768,280.690372 C33.7039389,280.565663 33.9439055,280.365691 34.1170732,280.112709 C35.7137356,277.714249 37.3727856,275.375866 39.477792,273.37715 C39.9191271,272.961232 40.2310655,272.406675 40.5915276,271.907574 C41.0536585,271.279076 40.9150193,270.867779 40.1478819,270.632092 C39.3807445,270.396406 38.7037227,270.109884 37.9781772,269.858023 C35.5335045,269.010013 33.3360719,267.621309 30.9607189,266.623107 C29.8215661,266.14249 28.758665,266.063928 27.661104,266.736329 C26.7599487,267.290886 25.7132221,267.429525 24.6896021,267.602824 C22.5014121,268.002567 20.206932,267.891656 18.1181001,268.739666 C15.7057766,269.717073 13.1432606,269.684724 10.6546855,269.823363 C8.5127086,269.943517 6.30141207,270.560462 4.15481386,269.707831 C4.07845394,269.69355 4.00010832,269.69355 3.9237484,269.707831 C2.64804417,269.729595 1.38903072,269.415638 0.272913992,268.797433 C-0.77843389,268.240565 -1.82747112,267.672144 -2.88806162,267.12914 C-3.26931964,266.935045 -3.81232349,266.743261 -4.04338896,267.186906 C-4.41078306,267.944801 -5.11553273,268.004878 -5.73709884,268.229012 C-6.33208671,268.400802 -6.84292535,268.785782 -7.1720154,269.310398 C-7.77278562,270.34095 -8.3042362,271.417715 -8.99050064,272.385879 C-10.5432606,274.57638 -12.0544288,276.852375 -14.9982028,277.416175 C-17.0408216,277.808986 -19.0510911,278.250321 -21.0567394,277.115789 C-22.3137356,276.406418 -23.7232349,276.478049 -25.0980745,276.926316 C-26.4454321,277.386291 -27.8289626,277.73256 -29.2341463,277.961489 C-31.1219512,278.243389 -32.328113,277.342234 -32.5476252,275.496021 C-32.6168242,274.688738 -32.5543933,273.875576 -32.3627728,273.088318 C-31.987187,271.122707 -31.8206629,269.122868 -31.865982,267.122208 C-31.865982,266.040822 -32.3928113,265.6457 -33.3725289,265.735815 C-34.0195122,265.805135 -34.6549422,265.966881 -35.2949936,266.103209 C-38.430552,266.743261 -39.708344,266.267266 -40.8035944,264.051348 L-40.8035944,261.740693 C-40.0988447,259.709628 -39.5442875,257.630039 -38.6616175,255.656739 C-36.8130937,251.513736 -34.8698331,247.40077 -33.2315789,243.179204 C-31.2490372,238.061104 -28.594095,233.368164 -24.8346598,229.39846 C-21.5128838,225.854247 -17.7000037,222.804721 -13.5124519,220.343004 C-11.8164313,219.356354 -10.1712452,218.302696 -8.54454429,217.200513 C-6.07214377,215.522978 -3.86315789,213.406418 -0.947111682,212.42439 C5.83295535,210.173351 12.7804118,208.461984 19.8302953,207.30629 C25.0801027,206.421309 30.2767651,206.472144 35.4110398,207.652888 C39.3735341,208.561262 43.3970693,209.179079 47.4495507,209.501412 C50.8508344,209.77638 54.1157895,209.018485 57.4200257,208.595635 C59.8854942,208.279076 62.0852375,208.826701 64.162516,209.995892 C67.3073171,211.782028 70.3851091,213.69294 73.6362003,215.291913 C75.4616175,216.195379 75.8243902,216.156098 76.9242619,214.453145 C78.4516046,212.089345 79.6831836,209.561489 80.9424904,207.05905 C84.6649551,199.625674 88.7501926,192.386393 92.6621309,185.054685 C96.2055094,178.387089 100.410495,172.09277 105.213607,166.266752 C108.023363,162.867779 111.357638,160.04878 114.835173,157.352246 C116.914763,155.748652 119.086778,154.630295 121.642362,154.170475 C122.896349,153.937341 124.07571,153.405519 125.080616,152.620026 C126.915276,151.233633 128.62516,149.616175 130.762516,148.691913 C132.396149,147.998716 132.262131,147.908601 131.809243,146.2819 C131.737612,146.023107 131.631322,145.773556 131.538896,145.519384 C130.443646,142.587163 130.404365,139.680359 131.603594,136.738896 C133.149422,132.951733 133.782542,128.982028 133.805648,124.901412 C133.831065,120.511168 134.267779,116.155584 135.381515,111.878562 C136.484627,107.635532 137.815176,103.45491 139.367394,99.3548139 C142.63697,90.6783055 145.915789,82.0087291 149.797689,73.5817715 C150.447073,72.1873641 150.972089,70.7383505 151.366624,69.2516046 C152.05982,66.612837 152.572786,63.9370988 153.194352,61.272914 C153.497047,59.981258 153.783569,58.6688062 154.793325,57.6983312 C155.2,57.9086008 155.075225,58.6641849 155.643646,58.5394095 C156.105777,58.4400513 156.1543,57.9178434 156.276765,57.5134788 C156.570218,56.5568678 156.803594,55.5771502 157.17792,54.6528883 C159.920668,47.9103979 162.852888,41.2510911 166.9543,35.1994865 C168.310655,33.1915276 169.805648,31.2713736 171.025674,29.1917843 C174.792041,22.7612323 179.374069,16.9198973 183.900642,11.0346598 C185.273171,9.25314506 186.733504,7.56867779 187.292683,5.23029525 C187.74095,3.3563543 189.275225,2.19409499 191.010526,1.35301669 C192.359949,0.701412067 193.933504,0.516559692 195.111938,-0.458536585 C197.48267,-2.42028241 200.181515,-3.77432606 202.984339,-4.9758665 C205.308858,-5.97175866 207.635687,-6.9029525 209.329397,-8.99640565 C211.536072,-11.7229782 214.375866,-13.6731707 217.518357,-15.2582798 C221.790757,-17.41181 226.164827,-18.1442875 230.806932,-16.762516 C231.354836,-16.5883068 231.941431,-16.57627 232.496021,-16.7278562 C235.596919,-17.545828 238.783312,-17.8138639 241.969705,-18.114249 C245.474968,-18.4516046 248.86932,-19.3157895 252.22208,-20.2816431 C255.651091,-21.279846 258.89294,-22.7378691 261.695764,-25 Z" id="Shadow"></path>
            </g>
        </g>
    </g>
</svg>