<?xml version="1.0" encoding="UTF-8"?>
<svg width="360px" height="441px" viewBox="0 0 360 441" version="1.1" xmlns="http://www.w3.org/2000/svg" xmlns:xlink="http://www.w3.org/1999/xlink">
    <!-- Generator: Sketch 61.2 (89653) - https://sketch.com -->
    <title>Combined Shape</title>
    <desc>Created with Sketch.</desc>
    <defs>
        <linearGradient x1="33.9041197%" y1="50.8158614%" x2="67.8460606%" y2="50.4866986%" id="linearGradient-1">
            <stop stop-color="#B2D8EC" offset="0%"></stop>
            <stop stop-color="#455997" offset="100%"></stop>
        </linearGradient>
    </defs>
    <g id="Page-1" stroke="none" stroke-width="1" fill="none" fill-rule="evenodd">
        <g id="Home" transform="translate(-130.000000, -777.000000)" fill="url(#linearGradient-1)" fill-rule="nonzero">
            <g id="Project-Thumb---Facebook" transform="translate(130.000000, 777.000000)">
                <g id="Alchemist-Hands" transform="translate(159.419877, 173.591450) rotate(45.000000) translate(-159.419877, -173.591450) translate(-237.080123, 108.091450)">
                    <path d="M393.015314,23.3394979 C395.799187,26.639994 394.07954,32.4286246 389.938169,33.6538256 C386.192272,34.763609 382.428601,35.8223425 378.63382,36.7479019 C374.839049,37.6734613 370.946516,38.259427 367.169514,39.2515734 C362.639334,40.4390418 358.173585,41.8795407 353.685618,43.231257 C348.98214,44.6473407 344.285327,46.0878397 339.586293,47.5172408 C335.598223,48.7291243 331.599045,49.8966166 327.635415,51.1773067 C326.554165,51.5624583 325.531368,52.095011 324.59604,52.7598579 C322.529797,54.1493069 322.021013,56.4487782 321.454463,58.6550278 C321.2851,59.4432538 321.263255,60.2559901 321.390032,61.0521601 C321.543333,62.2485067 322.298734,63.0675269 323.422947,63.4759272 C324.288501,63.8045704 325.180406,64.0592543 326.089066,64.2372387 C327.422125,64.4791715 328.784068,64.6145651 330.137123,64.7765935 C333.649735,65.1983112 337.160125,65.6266876 340.67718,66.0217705 C343.787652,66.3702425 346.920341,66.5921992 350.024148,67.0227952 C352.945407,67.3910716 355.845704,67.9096597 358.713474,68.5764921 C363.18811,69.6862756 367.589428,71.0801636 372.057398,72.2165819 C376.278753,73.2908523 380.524548,74.2519248 384.785894,75.1397516 C387.880814,75.7878651 391.024612,76.2095829 394.137306,76.7844507 C396.894517,77.2949511 399.65395,77.8165493 402.3845,78.4469064 C404.059712,78.8308914 405.777136,79.2348526 407.310155,79.976188 C410.331756,81.4366631 412.244696,83.9358954 412.971214,87.2275132 C413.711062,90.5812789 411.87144,93.5732552 408.567674,94.4788385 C406.247768,95.1217487 403.82565,95.3124026 401.433585,95.0403889 C396.405729,94.4832776 391.353434,94.1325861 386.325578,93.6021096 C384.017163,93.3601768 381.73541,92.8607742 379.438104,92.5455957 C376.443164,92.1349758 373.439337,91.7865038 370.437731,91.4224948 C368.38482,91.1761229 366.33413,90.9253118 364.276775,90.7211116 C361.888377,90.4858375 359.495535,90.2771982 357.100472,90.104072 C354.449905,89.9131893 351.78823,89.8665784 349.148772,89.5980108 C346.393783,89.3183453 343.665455,88.8145036 340.928239,88.4704707 C337.848872,88.0842661 334.756174,87.8179181 331.68125,87.4072982 C328.237514,86.9456282 324.811551,86.3751995 321.374479,85.8536013 C320.70795,85.7515012 320.014759,85.6893533 319.243806,85.5983511 C319.319346,87.0210935 319.505974,88.2618314 319.425991,89.4848128 C319.163822,93.4533986 317.817432,96.9225817 314.760283,99.6659665 C310.823314,103.197298 306.044296,104.304861 300.985335,104.72214 C300.283894,104.78429 299.578322,104.78429 298.87688,104.72214 C295.135426,104.369229 292.878112,106.573259 291.247336,109.434281 C289.752088,112.046711 288.259061,114.676898 286.09284,116.732217 C282.289177,120.341233 277.965621,123.02247 272.420094,122.947004 C268.945252,122.895954 265.49485,122.947004 262.042226,122.179034 C259.993758,121.735121 257.778658,122.041421 255.641319,121.939321 C253.763927,121.850538 251.884313,121.717364 250.01803,121.495408 C246.716486,121.12252 243.414943,120.727437 240.126729,120.256889 C234.741445,119.517622 229.414133,118.405155 224.183339,116.927539 C220.130838,115.755607 216.389385,113.957758 212.590165,112.213179 C208.953135,110.541845 205.145028,109.349937 201.083641,109.134639 C199.168479,109.034759 197.266647,108.661871 195.351485,108.573089 C193.731818,108.499843 192.103264,108.688506 190.479153,108.704043 C187.701946,108.735117 184.924739,108.630797 182.149753,108.743995 C177.019696,108.965952 171.891861,109.256715 166.768469,109.582992 C162.751517,109.840461 158.734565,110.129005 154.728721,110.526308 C151.789325,110.817071 148.858816,111.238789 145.943859,111.722654 C141.762496,112.417379 137.607795,113.291888 133.421988,113.966636 C127.301023,114.949905 121.164507,115.848829 115.02799,116.732217 C109.84387,117.480951 104.64716,118.188253 99.4378598,118.854123 C94.3078028,119.519993 89.1644152,120.072665 84.03658,120.740755 C80.2284736,121.237938 76.4425848,121.883832 72.6344784,122.387673 C68.6486307,122.913711 64.6472307,123.32877 60.6569395,123.832612 C57.8775106,124.183303 55.1025252,124.627217 52.3319834,124.986786 C49.4036962,125.366332 46.4620784,125.665974 43.5337912,126.054398 C40.8987771,126.40509 38.2770936,126.86232 35.6420795,127.208573 C29.4211355,128.027593 23.2001915,128.897663 16.9525864,129.57907 C11.740324,130.14728 6.51028759,130.480215 1.27358583,130.910811 C0.906994489,130.941885 0.533737851,130.910811 0.162702979,130.910811 L0.133820025,34.3729653 C4.45959785,34.8701483 8.78093213,35.4006248 13.1111535,35.855636 C17.9190545,36.3594777 22.7380643,36.7700976 27.5526305,37.2695001 C30.8852791,37.6179722 34.2179276,38.0840812 37.5661286,38.4347728 C41.2009372,38.8187579 44.8424112,39.1228385 48.4816635,39.4735301 C50.8722833,39.6954868 53.2584597,39.966274 55.6490796,40.1904503 C57.9641595,40.412407 60.2836829,40.596631 62.6009845,40.796392 C65.7647788,41.0693988 68.9241297,41.3579425 72.0901458,41.6109731 C74.5563057,41.806295 77.0269092,41.9683234 79.4975126,42.1281322 C83.9943664,42.4240745 88.4912202,42.708179 92.988074,42.9804459 C93.4679754,43.0093003 93.9500985,43.015959 94.4322217,43.015959 C104.79898,43.015959 115.165739,43.0403742 125.536942,43.015959 C130.975824,42.9982025 136.423593,42.8184175 141.849145,42.8250762 C149.138759,42.8250762 156.428372,43.0337155 163.715763,42.9982025 C169.816732,42.9700879 175.916219,42.8124987 182.014226,42.5254347 C185.218012,42.3722846 188.412911,41.872882 191.592258,41.4045534 C195.566996,40.8163681 199.53507,40.1682546 203.480926,39.4069431 C206.484753,38.8320753 209.444145,38.0330312 212.43242,37.3716002 C214.054309,37.0120304 215.687307,36.7057301 217.320304,36.419406 C220.652953,35.8467577 224.001154,35.2630116 227.35602,34.7724873 C233.092619,33.9312714 238.851436,33.2187904 244.579148,32.3309637 C247.602971,31.8559763 250.577915,31.0746888 253.581742,30.4620883 C254.37533,30.2900634 255.182937,30.1905125 255.99458,30.1646663 C261.397914,30.0647858 266.781252,30.2001794 272.149038,30.9881256 C276.094894,31.5674326 280.06519,32.0535178 284.04215,32.293231 C287.908022,32.5151877 291.800556,32.5151877 295.673094,32.375355 C299.949993,32.2199853 304.226892,31.8826111 308.488238,31.4431369 C310.418953,31.2433758 312.30301,30.5952623 314.213728,30.1802033 C319.010521,29.1436655 323.813978,28.1382017 328.608548,27.0905661 C332.250022,26.2959611 335.8715,25.3948169 339.524083,24.6490424 C342.634555,24.020905 345.745027,23.523722 348.877717,23.0309781 C353.72561,22.2674471 358.578687,21.5335103 363.436948,20.8291677 C365.760914,20.4895739 368.102655,20.2032498 370.424401,19.9413409 C373.641517,19.5728928 376.856412,19.0535141 380.084638,18.9469749 C384.888095,18.7982639 389.607126,19.2976665 393.015314,23.3394979 Z M466.241708,0.87627218 C467.928318,1.22862103 469.583318,1.71862652 471.190142,2.34138371 C476.623891,4.34222288 482.041389,6.38227969 487.442636,8.46155413 C490.912966,9.80457303 494.338976,11.2608051 497.776066,12.6903988 C499.850286,13.5517068 501.935587,14.3974757 503.963271,15.3542379 C507.825842,17.1945068 511.6729,19.0680736 515.486718,21.0193358 C517.877834,22.2424819 520.171443,23.6587564 522.540398,24.9285197 C523.209143,25.248625 523.937929,25.423381 524.678884,25.4413088 C524.927081,25.7298913 525.122094,26.1716447 525.434556,26.2781982 C527.588555,27.0085341 529.735905,27.8032461 531.945304,28.3226948 C536.430585,29.3815708 541.020019,29.2106412 545.591725,29.2550385 C554.039299,29.3527126 562.486873,29.5169827 570.934446,29.6990117 C575.171529,29.7900262 579.408612,29.9209983 583.641263,30.1429849 C588.166432,30.3782906 592.707114,30.5336813 597.196827,31.0775484 C602.883205,31.7679267 608.587311,31.9277571 614.286986,32.0565093 C620.04871,32.1897013 625.810434,32.0431901 631.552213,31.8522816 C636.73998,31.681352 641.918884,31.2351589 647.106651,31.002073 C651.851209,30.7800864 656.604631,30.7467884 661.351405,30.5403409 C664.810656,30.3916098 668.263258,30.0963677 671.720292,29.8743811 C675.250456,29.6523945 678.787268,29.5058833 682.310784,29.2084213 C685.984991,28.9020798 689.648118,28.4825251 693.311244,28.0674102 C697.816469,27.5590609 702.319478,27.010754 706.829135,26.4668868 C709.86512,26.0983891 712.894457,25.6766146 715.932658,25.3303155 C720.468908,24.8108668 725.005157,24.2936381 729.550271,23.8607642 C733.288744,23.5055857 737.069321,23.4789473 740.772336,22.9128815 C743.105835,22.5577029 745.406092,22.7264127 747.715214,22.5665824 C751.351748,22.3135177 754.990498,22.075992 758.618168,21.7319128 C762.870763,21.3256773 767.116711,20.8439664 771.358226,20.3311774 C773.44131,20.0781126 775.506667,19.6785368 777.580887,19.3655357 C780.424077,18.9393214 783.267266,18.5330859 786.110455,18.1113114 C787.089948,17.9670201 788.073873,17.8404878 789.037854,17.6229409 C789.427878,17.5341463 789.769149,17.223365 789.977458,17.1012724 L792.22453,17.256663 L792.211234,115.807612 C785.68719,115.597465 779.163884,115.385837 772.641317,115.17273 C770.467375,115.101694 768.291216,115.028439 766.119489,114.930765 C759.930068,114.648842 753.738431,114.451274 747.557874,114.042818 C741.454879,113.636583 735.369612,113.050538 729.275481,112.460054 C724.949756,112.040499 720.632896,111.456675 716.318251,110.997162 C713.975888,110.748537 711.611366,110.6997 709.280084,110.393359 C705.995901,109.960485 702.740527,109.283426 699.456344,108.872751 C695.983798,108.428777 692.491307,108.169053 689.00768,107.818314 C687.250354,107.640725 685.495244,107.436497 683.737919,107.245589 C680.112465,106.850453 676.487011,106.441997 672.859341,106.0624 C668.687262,105.618427 664.512228,105.193693 660.33424,104.788197 C658.20905,104.58397 656.077212,104.472976 653.954238,104.264309 C651.831265,104.055642 649.788069,103.735981 647.698336,103.545072 C643.552111,103.167695 639.401454,102.850254 635.255229,102.497296 C633.052477,102.308607 630.851942,102.09328 628.651407,101.895712 C627.514574,101.795818 626.377742,101.684825 625.236477,101.618229 C620.899672,101.362944 616.560651,101.134298 612.223846,100.879013 C609.003928,100.690325 605.781795,100.510516 602.564094,100.26855 C599.845003,100.062103 597.132561,99.7624208 594.417903,99.5226752 C590.45561,99.1719364 586.488884,98.8567155 582.528807,98.4970972 C579.816365,98.2484722 577.112787,97.904393 574.400345,97.6912858 C571.501754,97.4692992 568.592084,97.3805046 565.693493,97.1540783 C563.054181,96.9454109 560.43038,96.5191966 557.788852,96.3860047 C553.412158,96.1640181 548.97563,95.6268105 544.660985,96.1018618 C538.987904,96.7256441 533.412328,98.2151742 527.787999,99.2984688 C526.529284,99.5404342 525.246192,99.6403281 523.974181,99.8068181 C519.699425,100.368444 515.675082,101.76252 511.754894,103.500675 C507.815161,105.254913 503.696335,106.573898 499.471342,107.434277 C495.243123,108.288926 490.979448,108.300025 486.704692,108.288926 C483.795021,108.288926 480.878703,108.146854 477.982328,108.339983 C476.677076,108.426558 475.422793,109.190191 474.130838,109.605306 C472.357999,110.175812 470.585161,110.859531 468.770218,111.174752 C468.058867,111.299064 467.035053,110.730778 466.43672,110.160273 C465.104358,108.878892 463.404945,108.047516 461.576928,107.782796 C460.530953,107.620746 459.54038,107.116837 458.498838,106.89485 C457.612419,106.695062 456.659518,106.428678 455.804124,106.584069 C452.861212,107.121276 450.421344,106.224451 448.282858,104.277628 C445.533482,101.76918 442.795924,99.2481518 440.070186,96.7145448 C439.263276,96.0151988 438.493265,95.2742404 437.76328,94.4946789 C435.990442,92.4790406 435.547232,90.0105496 435.675763,87.4421647 C435.740028,86.0392095 435.42535,85.1779015 434.015943,84.5274808 C431.567211,83.3997888 429.262521,81.9391171 427.529572,79.803606 C425.260339,77.0065749 423.944007,73.8699043 424.571148,70.1693878 C424.699679,69.4079738 424.919068,68.6620988 425.120728,67.9162239 C425.342333,67.1281714 425.032086,66.6375811 424.234309,66.6131625 C420.622152,66.4955096 417.854308,64.601964 415.454328,62.1934094 C414.424079,61.1474608 413.691858,59.8445131 413.333571,58.4196373 C412.890361,56.4683752 412.848256,54.3905806 412.868201,52.3705026 C412.881497,50.7921779 413.663762,49.4069816 414.656551,48.1638566 C415.573995,47.0139661 415.405575,46.6321491 414.04049,46.1792965 C412.465858,45.6875757 410.918362,45.1125632 409.404518,44.4566805 C406.913681,43.3245489 405.553028,41.2511941 405.315911,38.5718159 C405.032256,35.3596698 405.335855,32.2363184 407.274897,29.4459469 C408.626686,27.5035642 410.481518,26.100609 412.165714,24.5156247 C415.886458,21.0171159 420.467028,19.276741 425.324605,18.0957723 C426.971128,17.6961965 428.557818,17.0013784 430.219854,16.7305548 C432.234241,16.4042345 434.330622,16.1001129 436.336145,16.31322 C437.936772,16.5330081 439.557748,16.0905991 440.825858,15.087854 C444.090096,12.6748597 447.283421,10.1331132 450.727159,8.00870148 C454.232946,5.84655204 458.013523,4.1283758 461.658922,2.19265269 C463.103785,1.42679894 464.568592,0.554391617 466.241708,0.87627218 Z" id="Combined-Shape"></path>
                </g>
            </g>
        </g>
    </g>
</svg>