<?xml version="1.0" encoding="UTF-8"?>
<svg width="360px" height="357px" viewBox="0 0 360 357" version="1.1" xmlns="http://www.w3.org/2000/svg" xmlns:xlink="http://www.w3.org/1999/xlink">
    <!-- Generator: Sketch 61.2 (89653) - https://sketch.com -->
    <title>Shadow</title>
    <desc>Created with Sketch.</desc>
    <defs>
        <linearGradient x1="68.193481%" y1="50%" x2="33.9332392%" y2="92.3119089%" id="linearGradient-1">
            <stop stop-color="#93411D" offset="0%"></stop>
            <stop stop-color="#FFDF90" offset="100%"></stop>
        </linearGradient>
    </defs>
    <g id="Page-1" stroke="none" stroke-width="1" fill="none" fill-rule="evenodd">
        <g id="Home" transform="translate(-540.000000, -2036.000000)" fill="url(#linearGradient-1)" fill-rule="nonzero">
            <g id="Project-Thumb---GGS" transform="translate(540.000000, 1984.000000)">
                <path d="M23,216.567857 L23,208.267857 C23.234373,206.90725 23.4272115,205.53775 23.7149859,204.189 C25.2309934,197.074714 28.0850035,190.461393 31.2801894,183.981464 C39.0352647,168.27075 48.3478819,153.449321 58.2212142,139.01325 C70.9248226,120.427179 83.9636734,102.096036 98.2129567,84.6156429 C109.729867,70.4819286 121.399069,56.4776548 133.220565,42.6028214 C134.873043,40.6493571 136.329715,38.4735714 138.406438,36.9321429 C141.895332,34.3383929 145.467295,31.8543214 148.959155,29.2635357 C151.756797,27.17075 154.768045,25.3388214 157.393615,23 L346.968715,23 C347.315825,23.18675 347.651067,23.4001786 348.010043,23.56025 C355.183636,26.7705714 362.327562,30.0490714 369.557523,33.1289643 C371.468108,33.9441429 372.209794,35.0824286 372.482735,37.0507143 C374.295417,50.0639286 376.247536,63.0563929 378.063185,76.0696071 C378.72477,80.8124643 379.807632,85.5019643 379.941136,90.2833571 C380.154741,97.8393214 379.766098,105.383429 379.113413,112.921607 C378.115778,124.788665 376.223558,136.563613 373.452861,148.146214 C367.691439,171.934607 358.396623,194.202321 344.755522,214.6055 C339.068269,223.113 332.591862,230.909071 324.922822,237.709143 C313.859825,247.520929 301.334221,255.133214 288.339871,262.04 C279.142957,266.937 269.649369,271.303393 260.348618,276.022536 C258.568571,276.911821 258.568571,276.932571 259.636599,278.562929 C263.800224,284.775496 265.908668,292.13649 265.665028,299.609357 C265.537458,304.758321 264.558432,309.74425 261.449281,314.048393 C259.144119,317.240929 256.844891,317.901964 253.201726,316.476143 C248.517233,314.638286 244.381589,311.834071 240.251878,309.020964 C239.8217,308.724536 239.46569,308.276929 238.768505,308.226536 C239.898835,310.319321 241.0885,312.2965 242.070493,314.374464 C245.30128,321.192321 247.179231,328.306607 245.823428,335.912964 C244.933404,340.8485 242.800313,345.10225 238.329426,347.829393 C236.831219,348.739429 235.214342,349.311536 233.386826,348.96175 C231.606779,348.609 231.606779,348.632714 232.02509,350.387571 C233.633066,357.128357 233.609332,363.806893 231.1588,370.366857 C229.81783,373.953643 227.794509,377.083929 224.631958,379.345679 C221.157897,381.826786 217.538467,382.123214 213.8063,379.876286 C211.451171,378.421708 209.18909,376.821843 207.033217,375.086 C199.616351,369.249321 192.472426,363.07175 185.408602,356.808214 C183.886661,355.459464 183.889628,355.447607 182.58426,357.104643 C181.323393,358.690536 180.115927,360.320893 178.801658,361.8475 C178.106174,362.627409 177.8047,363.681692 177.982836,364.711 C178.479685,368.781783 178.566155,372.89213 178.240943,376.980179 C176.944475,393.2215 170.767709,407.316679 159.363535,418.939643 C149.214295,429.282036 136.834062,435.486286 122.415674,437.48125 C121.873657,437.514269 121.350749,437.693549 120.902634,438 L107.2556,438 C106.902588,437.724853 106.480881,437.551594 106.036267,437.499036 C102.740212,437.110714 99.5272254,436.289607 96.2845715,435.610786 C82.8541102,432.803607 71.3639011,426.498571 62.190721,416.268821 C48.3834829,400.854536 42.8356669,382.751643 45.5769407,362.292143 C47.6269625,347.034964 54.4119117,334.0425 65.6499474,323.442214 C67.2875914,321.897821 67.2905582,321.918571 66.0623251,319.885071 C54.7679213,301.281214 44.4050758,282.182321 35.872713,262.14375 C30.8500112,250.354786 26.4977941,238.325714 24.3024017,225.638571 C23.7713541,222.638714 23.4272115,219.597357 23,216.567857 Z" id="Shadow" transform="translate(201.500000, 230.500000) rotate(90.000000) translate(-201.500000, -230.500000) "></path>
            </g>
        </g>
    </g>
</svg>