<?xml version="1.0" encoding="UTF-8"?>
<svg width="199px" height="455px" viewBox="0 0 199 455" version="1.1" xmlns="http://www.w3.org/2000/svg" xmlns:xlink="http://www.w3.org/1999/xlink">
    <!-- Generator: Sketch 61.2 (89653) - https://sketch.com -->
    <title>Shadow</title>
    <desc>Created with Sketch.</desc>
    <defs>
        <linearGradient x1="48.3547181%" y1="10.0614486%" x2="58.0642208%" y2="63.2278235%" id="linearGradient-1">
            <stop stop-color="#A2E4E5" offset="0%"></stop>
            <stop stop-color="#4D79A3" offset="100%"></stop>
        </linearGradient>
    </defs>
    <g id="Page-1" stroke="none" stroke-width="1" fill="none" fill-rule="evenodd">
        <g id="Home" transform="translate(-1038.000000, -1479.000000)" fill="url(#linearGradient-1)" fill-rule="nonzero">
            <g id="Project-Thumb---Hello-Money" transform="translate(950.000000, 1454.000000)">
                <path d="M254.220225,25 L256.808989,25 C257.156581,25.085579 257.508801,25.1511252 257.86391,25.1963146 C259.973593,25.3318943 262.069999,25.6268479 264.135191,26.0786517 C272.619865,27.9857079 278.539506,33.0596854 282.323416,40.7483146 C284.435416,45.0629213 285.706067,49.5932584 285.824719,54.4062022 C285.846606,54.906819 285.995051,55.3937161 286.25618,55.8213933 C286.711371,56.6239101 286.948674,57.469573 286.68764,58.4835056 C286.409348,59.5772584 285.945528,60.6170787 285.949843,61.8186966 C285.999461,77.3512809 286.06418,92.8838652 285.949843,108.416449 C285.921798,112.526112 286.344629,116.547326 286.998292,120.572854 L286.998292,164.361798 C286.821393,166.465169 286.351101,168.529708 286.351101,170.661124 C286.365483,265.582472 286.360449,360.50382 286.336,455.425169 C286.336,462.281079 286.707056,469.143461 286.014562,475.997213 C285.762157,478.501843 285.583101,481.010787 284.946697,483.448539 C284.515236,485.079461 284.113978,486.757843 283.354607,488.23991 C282.696629,489.521348 281.764674,490.686292 280.981573,491.931056 C278.837213,495.371955 276.298067,498.437483 272.768719,500.605573 C269.239371,502.773663 265.32818,503.910562 261.335011,504.788584 L249.469843,504.788584 C249.152719,504.743281 248.835596,504.680719 248.516315,504.652674 C245.946966,504.436944 243.375461,504.221213 240.803955,503.992539 C238.307955,503.776809 235.805483,503.602067 233.318112,503.308674 C230.43164,502.965663 227.521438,502.933303 224.637124,502.538517 C222.4,502.23218 220.136989,502.074697 217.886921,501.880539 C215.028494,501.632449 212.159281,501.505169 209.307326,501.157843 C207.350652,500.918382 205.376719,500.726382 203.422202,500.612045 C199.014831,500.355326 194.631191,499.837573 190.228135,499.533393 C188.562697,499.419056 186.875685,499.317663 185.203775,499.147236 C181.888,498.797753 178.56791,498.482787 175.249978,498.178607 C173.140135,497.984449 171.02382,497.852854 168.916135,497.654382 C164.817258,497.270382 160.718382,496.819506 156.619506,496.467865 C152.406292,496.107596 148.171506,495.958742 143.977708,495.45609 C142.191461,495.24036 140.400899,495.268404 138.625438,495.007371 C134.537348,494.403326 130.412584,494.144449 126.292135,493.885573 C120.635685,493.529618 114.996494,493.121888 109.523416,491.490966 C105.020827,490.178464 100.91867,487.759148 97.5913708,484.453843 C92.8453034,479.761708 90.5585618,473.883056 89.393618,467.469393 C88.4681348,462.363056 88.2653483,457.170427 88.2653483,452.008 C88.2869213,326.890876 88.0970787,201.782382 88.3408539,76.6717303 C88.3804109,71.4684458 89.1301656,66.2949207 90.5693483,61.2944719 C91.780821,56.8878247 93.9759211,52.8133176 96.9894831,49.3775281 C101.465888,44.2366742 107.081348,41.2941124 113.67191,40.1011236 C115.995326,39.6696629 118.387775,39.6157303 120.71982,39.2813483 C123.707685,38.8498876 126.706337,38.6168989 129.694202,38.2631011 C131.333753,38.0711011 132.979775,37.9653933 134.617169,37.764764 C137.956674,37.3548764 141.291865,36.8737978 144.646472,36.6364944 C146.613933,36.4962697 148.553348,36.1424719 150.529438,36.0453933 C152.130157,35.9677303 153.741663,35.7757303 155.346697,35.5988315 C158.017438,35.3011236 160.681708,34.9516404 163.354607,34.6690337 C166.066337,34.3821124 168.806112,34.2850337 171.494112,33.8600449 C175.208989,33.2711011 178.962697,33.0553708 182.68836,32.5656629 C186.91236,32.0198652 191.170876,31.7329438 195.416449,31.215191 C199.964045,30.6629213 204.552629,30.3932584 209.108854,29.7805843 C212.58427,29.3146067 216.102831,29.1765393 219.595506,28.7342921 C221.092674,28.5444494 222.594157,28.4538427 224.089169,28.285573 C227.540854,27.8972584 230.992539,27.3708764 234.444225,27.1141573 C239.60018,26.728 244.712989,25.9751011 249.858157,25.4897079 C251.307865,25.3537978 252.794247,25.4185169 254.220225,25 Z" id="Shadow"></path>
            </g>
        </g>
    </g>
</svg>