<?xml version="1.0" encoding="UTF-8"?>
<svg width="312px" height="382px" viewBox="0 0 312 382" version="1.1" xmlns="http://www.w3.org/2000/svg" xmlns:xlink="http://www.w3.org/1999/xlink">
    <!-- Generator: Sketch 61.2 (89653) - https://sketch.com -->
    <title>Shadow</title>
    <desc>Created with Sketch.</desc>
    <defs>
        <linearGradient x1="67.4777236%" y1="65.7598158%" x2="34.3586977%" y2="20.0166308%" id="linearGradient-1">
            <stop stop-color="#FF9B9B" offset="0%"></stop>
            <stop stop-color="#FFF397" offset="100%"></stop>
        </linearGradient>
    </defs>
    <g id="Page-1" stroke="none" stroke-width="1" fill="none" fill-rule="evenodd">
        <g id="Home" transform="translate(-588.000000, -1454.000000)" fill="url(#linearGradient-1)" fill-rule="nonzero">
            <g id="Project-Thumb---Jumpstart" transform="translate(540.000000, 1454.000000)">
                <path d="M164.907805,311.102927 C165.526829,308.433659 164.46878,306.11561 163.999024,303.459512 C162.642439,304.337561 162.589756,305.369268 162.633659,306.598537 C162.739024,309.812195 163.401951,312.929268 164.016585,316.055122 C164.222927,317.1 163.946341,318.083415 163.74,319.08878 C163.366829,320.897561 161.140976,320.796585 160.438537,322.302439 C160.306829,322.583415 159.828293,322.210244 159.520976,321.990732 C158.401463,321.196098 158.388293,321.213659 157.519024,322.183902 C157.44,320.901951 158.181951,318.886829 156.825366,318.619024 C155.135122,318.285366 155.556585,320.502439 155.069268,321.586829 C154.586741,322.651727 153.970033,323.650558 153.234146,324.559024 C153.005854,324.84 152.514146,325.239512 152.356098,324.910244 C151.539512,323.061951 150.894146,324.774146 150.261951,325.01561 C149.612195,324.545854 150.42878,323.795122 149.770244,323.373659 C148.571707,323.694146 148.391707,324.962927 147.311707,325.621463 C147.649756,324.686341 148.022927,323.76439 148.312683,322.816098 C148.488293,322.232195 149.054634,321.362927 148.281951,321.06 C147.509268,320.757073 147.403902,321.78439 147.197561,322.350732 C146.714634,323.808293 146.319512,325.296585 145.814634,326.740976 C145.494146,327.619024 145.20878,328.198537 144.29122,326.920976 C143.294634,325.542439 143.413171,324.106829 143.413171,322.262927 C141.481463,323.94439 141.753659,326.420488 140.366341,327.930732 C139.519024,327.803415 139.62439,327.193171 139.694634,326.740976 C139.879024,325.590732 139.927317,324.335122 140.432195,323.325366 C143.145366,317.894634 143.312195,311.87561 144.515122,306.102439 C145.01122,303.709756 144.225366,301.132683 145.287805,298.779512 C149.072195,290.407317 149.041463,281.152683 151.434146,272.438049 C151.978537,270.47122 152.795122,268.579024 153.422927,266.634146 C153.598537,266.102927 153.800488,265.43561 153.30878,264.970244 C152.817073,264.504878 152.167317,264.917561 151.719512,265.211707 C146.354634,268.759024 140.203902,269.720488 134.03561,270.594146 C131.568033,270.951047 129.208172,271.84255 127.120976,273.206341 C120.662927,277.341951 114.665854,282.193171 107.738049,285.621951 C105.389268,286.785366 103.786829,289.055122 101.46439,290.380976 C97.2278049,292.79561 92.6839024,294.384878 88.0346341,295.693171 C79.9390244,297.998049 72.7917073,302.383902 65.3546341,306.146341 C63.4756098,307.090244 62.8521951,308.951707 62.9839024,310.97561 C63.2342965,315.287501 64.0460211,319.548317 65.3985366,323.650244 C65.6443902,324.374634 66.2765854,325.235122 65.2053659,325.74878 C64.3273171,326.187805 63.6512195,325.546829 63.1112195,324.945366 C62.202439,323.94 61.9258537,322.618537 61.4560976,321.393659 C61.2892683,320.954634 61.3639024,320.076585 60.3673171,320.809756 C59.2478049,321.617561 58.6112195,320.7 58.224878,319.786829 C57.7690001,318.549973 57.5097579,317.249318 57.4565854,315.932195 C57.3687805,314.900488 57.3204878,313.899512 55.7970732,314.94439 C54.48,315.822439 54.0892683,314.830244 54.1770732,313.723902 C54.2385366,312.942439 54.6863415,312.196098 54.8092683,311.414634 C55.1253659,309.35561 54.6863415,309.030732 52.7502439,309.799024 C52.2629268,309.992195 51.78,310.26878 51.3321951,309.825366 C50.8843902,309.381951 50.9985366,308.723415 51.3629268,308.227317 C51.7191062,307.764172 52.1189952,307.33635 52.5570732,306.949756 C53.5580488,306.032195 54.0234146,304.996098 53.5712195,303.617561 C53.1190244,302.239024 52.1004878,301.694634 50.8229268,301.422439 C50.6078049,301.378537 50.3839024,301.382927 50.1687805,301.334634 C49.26,301.115122 47.8902439,301.018537 48.0087805,299.929756 C48.1404878,298.674146 49.5409756,299.218537 50.3926829,299.192195 C52.3109691,299.167562 54.2161484,298.871956 56.0517073,298.314146 C65.3941463,295.434146 72.7346341,288.760976 81.7214634,285.266341 C88.5879837,282.518978 95.1404796,279.044036 101.266829,274.900976 C106.346341,271.538049 110.956098,267.586829 115.473659,263.552195 C123.275122,256.580488 132.687805,252.273659 141.679024,247.273171 C144.264878,245.837561 145.871707,243.65122 147.241463,241.245366 C153.455168,230.219097 160.235458,219.521858 167.555122,209.196585 C170.667805,204.863415 173.978049,200.670732 177.24878,196.464878 C179.500003,193.477172 181.345337,190.204288 182.736585,186.731707 C183.388934,185.344079 183.654379,183.806015 183.504878,182.28 C183.206184,180.351429 183.931075,178.406193 185.419024,177.143415 C186.531764,176.260539 187.213969,174.944059 187.293659,173.525854 C187.368293,170.659024 188.105854,167.88878 188.303415,165.057073 C188.426341,163.248293 189.058537,161.953171 190.696098,161.22 C192.408293,160.456098 193.08439,159.23561 192.790244,157.356585 C192.600213,155.827374 192.760859,154.274968 193.26,152.817073 C193.944878,150.556098 194.282927,148.26 193.677073,145.893659 C193.455432,145.115643 193.432788,144.294413 193.61122,143.505366 C194.893171,138.979024 194.489268,134.347317 194.458537,129.755122 C194.436585,120.377561 195.740488,111.109756 196.530732,101.793659 C196.710732,99.6468293 196.807317,97.5614634 195.78,95.5858537 C194.882594,93.9592511 194.607936,92.0616126 195.007317,90.2473171 C196.763415,83.0034146 195.472683,75.9482927 193.514634,69.0336585 C192.074634,63.9585366 191.653171,58.8087805 191.521463,53.6678049 C191.421977,47.3841995 190.97201,41.1110375 190.173659,34.877561 C189.870942,33.2043642 190.156349,31.4779644 190.981463,29.9912195 C191.744692,28.5694882 192.193834,27.0004847 192.298537,25.3902439 C192.579512,22.6902439 193.356585,20.0956098 193.922927,17.4526829 C194.730732,13.7121951 194.537561,9.88829268 194.427805,6.08195122 C194.458971,5.03763809 193.85759,4.07750801 192.90439,3.6497561 C190.757561,2.51268293 189.519512,1.01560976 189.234146,-1.7195122 C188.645854,-7.38292683 184.98439,-11.5009756 181.169268,-15.4170732 C180.170189,-16.3803106 179.26603,-17.4373684 178.469268,-18.5736585 C176.941463,-20.9092683 177.749268,-22.6917073 180.449268,-23.117561 C185.16,-23.8858537 189.870732,-24.3995122 194.634146,-23.5873171 C196.903902,-23.2009756 198.65122,-22.4721951 199.120976,-19.8687805 C199.450244,-18.0336585 200.727805,-16.835122 202.44439,-16.0536585 C204.371707,-15.1756098 206.39561,-14.5126829 208.151707,-13.2834146 C210.377561,-11.724878 210.785854,-10.7063415 210.030732,-8.05463415 C209.30081,-5.36663959 208.229658,-2.78318749 206.843415,-0.367317073 C203.498049,5.23463415 203.52878,11.1395122 204.823902,17.2287805 C204.871538,17.5928464 204.976753,17.9470235 205.13561,18.2780488 C208.309756,23.5463415 209.345854,29.3370732 209.433659,35.4 C209.409819,36.2054809 209.531779,37.0086378 209.793659,37.7707317 C212.954634,45.4668293 213.046829,53.7907317 214.789756,61.7678049 C218.837561,80.3121951 219.54878,99.3307317 223.021463,117.962927 C225.365854,130.519024 228.54439,142.767805 233.39122,154.617073 C235.955122,160.895122 239.901951,165.592683 245.420488,169.49561 C252.883902,174.763902 261.080488,178.276098 269.435122,181.621463 C282.074634,186.674634 294.402439,192.439024 306.940976,197.711707 C314.479024,200.881463 322.372683,203.199512 330.06878,206.000488 C341.544878,210.18 352.994634,214.442927 364.453171,218.675122 C365.870905,219.266473 367.213462,220.023964 368.452683,220.931707 C373.720976,224.443902 379.37122,227.10878 385.666829,228.219512 C386.900488,228.434634 388.099024,228.9 388.164878,226.783902 C388.173508,226.279064 388.469989,225.823592 388.928128,225.611352 C389.386267,225.399113 389.925417,225.467465 390.316098,225.787317 C392.761463,227.727805 395.382439,226.634634 397.92,226.472195 C399.818829,226.328446 401.723967,226.285947 403.627317,226.344878 C406.112195,226.450244 407.078049,227.473171 407.486341,229.962439 C407.951707,232.820488 407.600488,235.669756 407.323902,238.483902 C406.839388,243.728893 406.986786,249.013101 407.762927,254.222927 C407.964624,255.969055 407.832019,257.737618 407.372195,259.434146 C406.383787,263.561843 405.137437,267.623476 403.640488,271.595122 C403.249651,272.780289 402.629043,273.876797 401.814146,274.821951 C399.886829,276.889756 397.647805,276.477073 396.769756,273.807805 C396.371676,272.552075 396.134178,271.250999 396.062927,269.93561 C395.843415,266.397073 394.838049,263.034146 393.999512,259.627317 C393.670244,258.310244 393.06439,257.133659 391.80439,256.475122 C389.964878,255.500488 388.880488,253.893659 387.901463,252.146341 C386.676585,249.95122 384.358537,249.77122 382.786829,251.707317 C382.225701,252.474235 381.716749,253.277997 381.263415,254.113171 C380.903415,254.705854 380.45122,255.302927 379.713659,255.035122 C378.83561,254.714634 379.239512,253.946341 379.401951,253.336098 C380.051707,250.895122 381.399512,249.143415 384.011707,248.581463 C385.605366,248.239024 385.811707,247.562927 384.477073,246.491707 C383.366341,245.613659 382.43561,244.599512 382.79561,242.953171 C383.015122,241.960976 382.154634,241.715122 381.478537,241.5 C375.380488,239.52 369.405366,236.99561 362.776098,237.439024 C361.573171,237.518049 360.321951,237.232683 359.536098,236.337073 C357.850244,234.414146 355.558537,234.005854 353.28878,233.527317 C342.703902,231.310244 332.070732,229.352195 321.556098,226.713659 C316.467805,225.440488 311.133659,224.566829 305.869756,223.750244 L305.430732,223.693171 C302.300488,223.333171 299.723415,221.059024 296.852195,220.62 C293.87122,220.154634 290.82,220.488293 287.961951,218.99122 C285.902927,217.91561 283.497073,218.341463 281.262439,218.148293 C275.375122,217.643415 269.738049,216.172683 264.18,214.32 C257.923902,212.230244 251.448293,211.031707 245.069268,209.363415 C243.313171,208.92439 241.451707,208.92439 239.743902,209.912195 C238.910092,210.395554 237.94647,210.607306 236.986829,210.518049 C235.428293,210.35561 233.821463,209.64 232.978537,211.835122 C232.785366,212.34439 231.911707,212.045854 231.349756,211.861463 C230.289485,211.498303 229.122945,211.622027 228.162439,212.199512 C222.455122,215.711707 217.279024,219.882439 217.186829,227.174634 C217.116585,232.267317 215.193659,236.688293 213.832683,241.337561 C212.822927,244.775122 211.857073,248.234634 210.781463,251.641463 C208.2,259.811707 209.306341,268.188293 209.025366,276.485854 C208.792683,283.707805 209.960488,291.039512 208.081463,298.129756 C205.816098,306.695122 204.389268,315.440488 202.123902,323.997073 C201.658537,325.753171 201.54,327.395122 202.198537,329.138049 C203.006341,331.276098 203.173171,333.572195 203.256585,335.833171 C203.594634,344.613659 203.998537,353.367805 204.077561,362.139512 C204.121463,366.96878 203.638537,371.798049 203.247805,376.583415 C203.037073,379.248293 201.605854,380.600488 198.945366,381.030732 C194.001951,381.825366 189.172683,381.215122 184.457561,379.713659 C183.006474,379.201256 181.44328,379.093502 179.93561,379.401951 C179.057561,379.595122 177.841463,379.906829 177.529756,378.646829 C177.218049,377.386829 177.96878,376.359512 179.083902,375.797561 C179.806933,375.435873 180.602357,375.24227 181.410732,375.23122 C184.536585,375.23122 187.412195,373.44439 190.630244,374.080976 C191.798049,374.309268 192.605854,373.514634 192.825366,372.17122 C193.246037,369.492056 193.325696,366.7704 193.062439,364.07122 C192.329268,354.166829 191.411707,344.27561 190.590732,334.38 C190.463415,332.852195 190.524878,331.306829 190.437073,329.774634 C190.406341,329.247805 190.309756,328.26439 189.510732,328.79561 C188.316585,329.590244 187.5,329.304878 186.613171,328.453171 C186.454436,328.243841 186.203386,328.12534 185.940887,328.13584 C185.678389,328.14634 185.437605,328.284514 185.296098,328.505854 C184.62439,329.309268 184.308293,328.944878 183.886829,328.198537 C183.087805,326.798049 182.130732,327.430244 181.906829,328.457561 C181.489756,330.569268 179.988293,332.667805 181.669756,334.950732 C182.306341,335.82878 181.37122,336.583902 180.739024,337.145854 C180.225366,337.61122 179.57122,338.462927 178.899512,337.97561 C178.052195,337.365366 177.226829,336.487317 177.42878,335.218537 C177.986341,331.644878 177.77122,328.08878 177.42878,324.506341 C177.095122,321.156585 175.97122,317.920976 175.97122,314.540488 C175.981169,314.317914 175.91625,314.098425 175.786829,313.917073 C172.415122,310.115122 172.02439,305.04 170.123415,300.614634 C169.895122,300.083415 169.570244,299.1 169.166341,299.736585 C168.512195,300.759512 166.347805,298.92 166.742927,301.185366 C167.181951,303.639512 165.979024,306.067317 166.830732,308.587317 C167.239024,309.737561 165.122927,309.864878 164.907805,311.102927 Z" id="Shadow"></path>
            </g>
        </g>
    </g>
</svg>