<?xml version="1.0" encoding="UTF-8"?>
<svg width="200px" height="409px" viewBox="0 0 200 409" version="1.1" xmlns="http://www.w3.org/2000/svg" xmlns:xlink="http://www.w3.org/1999/xlink">
    <!-- Generator: Sketch 61.2 (89653) - https://sketch.com -->
    <title>Shadow</title>
    <desc>Created with Sketch.</desc>
    <defs>
        <linearGradient x1="50%" y1="0%" x2="50%" y2="100%" id="linearGradient-1">
            <stop stop-color="#98B9D9" offset="0%"></stop>
            <stop stop-color="#2A4361" offset="100%"></stop>
        </linearGradient>
    </defs>
    <g id="Page-1" stroke="none" stroke-width="1" fill="none" fill-rule="evenodd">
        <g id="Home" transform="translate(-622.000000, -2662.000000)" fill="url(#linearGradient-1)" fill-rule="nonzero">
            <g id="Project-Thumb---OnObject" transform="translate(540.000000, 2662.000000)">
                <path d="M271.673979,408.98169 L199.609987,408.98169 C199.554793,408.236066 199.416569,407.499052 199.197915,406.784524 C197.592049,400.16251 195.895285,393.558805 194.398497,386.918481 C192.501757,378.502115 190.720155,370.061335 188.980972,361.614452 C188.156829,357.616831 186.847897,353.680241 186.926676,349.536142 C186.927152,349.37861 186.902602,349.222016 186.853957,349.072296 C186.803113,348.878941 186.67003,348.718098 186.490365,348.632863 C186.078144,348.397471 185.581014,348.367289 185.143703,348.551105 C184.706392,348.73492 184.378052,349.112072 184.254272,349.572762 C184.157314,349.87182 184.114895,350.183086 184.036117,350.494351 C183.654798,352.345038 183.150698,354.167892 182.527209,355.950646 C181.51521,358.471284 180.382014,360.930889 179.248818,363.402701 C178.174872,365.513955 177.426967,367.777846 177.030905,370.116264 C176.655193,373.009199 176.231002,375.889928 175.818931,378.77676 C174.837232,385.799554 173.859573,392.822348 172.885953,399.845141 C172.55266,402.225405 172.237547,404.605668 171.898194,406.979828 C171.704278,408.328644 171.63762,408.371366 170.328687,408.621599 C169.753,408.731457 169.183372,408.871832 168.613744,409 L100.312932,409 C100.312932,408.646012 100.355351,408.292024 100.39171,407.94414 C100.731063,405.006447 101.072436,402.072824 101.415828,399.143269 C102.001616,393.979929 102.585384,388.816589 103.167131,383.653248 C103.837757,377.745313 104.510403,371.845515 105.185068,365.953855 C105.681978,361.577833 106.130408,357.189604 106.687917,352.813582 C107.118167,349.377458 107.94231,346.002367 108.590716,342.596759 C109.523936,337.714168 110.511696,332.782751 111.457036,327.875747 C111.648976,327.419319 111.648976,326.904016 111.457036,326.447589 C110.457157,327.308146 109.208823,327.405797 108.105927,327.894057 C106.893952,328.443348 105.918313,327.552275 106.160708,326.215666 C106.232457,325.828425 106.350472,325.451351 106.51218,325.09267 C107.266437,323.447454 107.8984,321.748119 108.40286,320.008672 C108.72639,318.616011 109.50278,317.372201 110.608653,316.474896 C111.195691,315.994489 111.619352,315.341649 111.820628,314.607305 C111.898757,314.263249 112.020979,313.930888 112.18422,313.618581 C113.010613,312.134583 113.516539,310.491553 113.668889,308.797022 C113.892858,307.319527 114.287402,305.873434 114.844504,304.488135 C115.342608,303.201154 115.587526,301.828915 115.565628,300.447791 C115.494583,298.121272 115.720649,295.795202 116.238274,293.526718 C117.019998,290.438479 117.504787,287.283104 118.541025,284.262001 C118.667092,283.846814 118.74836,283.419152 118.78342,282.986424 C119.171252,279.574713 119.183372,276.150796 119.28639,272.726879 C119.401527,268.906251 119.031875,265.09783 119.068234,261.277203 C119.114499,260.633228 118.759619,260.027802 118.177433,259.757496 C117.044237,259.147172 115.929221,258.475816 114.808144,257.834976 C114.390913,257.618016 114.010477,257.335797 113.681008,256.998832 C112.303398,255.546261 110.923767,254.095725 109.542116,252.647223 C109.180733,252.284501 108.901641,251.847251 108.724033,251.365542 C107.867572,248.924247 107.00707,246.482951 106.142528,244.041656 C105.958368,243.519691 105.902235,242.960621 105.978912,242.412091 C106.257666,240.147789 106.51218,237.877384 106.790934,235.613083 C107.02121,233.733285 107.027269,233.739388 108.796752,233.3854 C109.087626,233.324368 109.499697,233.428123 109.626954,233.068032 C109.754212,232.707941 109.3482,232.457708 109.123985,232.213578 C108.227124,231.224854 107.306024,230.272748 106.415222,229.271817 C102.652042,224.99955 99.3069931,220.373295 95.6225912,216.027789 C95.2796286,215.597936 94.9600083,215.14971 94.6651315,214.685076 C91.9563689,210.656938 90.9443704,206.140541 91.0292086,201.349499 C91.0292086,199.780966 91.1685856,198.206331 91.0837474,196.631695 C90.9869165,195.691075 90.9504815,194.74514 90.9746697,193.799792 C91.1685856,191.486664 91.2291843,189.16133 91.5442977,186.860409 C91.7321537,185.517697 91.5442977,185.29798 90.2838444,184.907373 C88.3022664,184.297049 86.3206884,183.686725 84.3330505,183.119124 C83.3806976,182.899296 82.5467873,182.323379 82,181.507869 L82,180.799893 C82.1814612,180.591118 82.3011325,180.335261 82.3454127,180.061401 C82.5150891,178.614933 82.6847655,177.162362 82.8362623,175.715895 C82.8647517,175.519561 82.8396127,175.319119 82.7635438,175.136087 C82.0666586,173.811684 82.5453884,172.603243 83.133196,171.425318 C83.5937462,170.515935 84.1027754,169.624862 84.6118046,168.739893 C85.3995643,167.371861 85.8717647,165.842914 85.9934553,164.266218 C86.1841349,161.820017 86.9484137,159.454296 88.2234881,157.363455 C88.9033714,156.256483 89.4198235,155.055825 89.7566356,153.799163 C90.0246053,152.820243 90.4091707,151.877565 90.9019513,150.991673 C91.3849827,150.134289 91.7769974,149.228044 92.0715065,148.287939 C92.4283641,147.243561 92.8534849,146.224125 93.3440795,145.236319 C94.0955036,143.600651 94.9378257,141.989396 95.0347837,140.121805 C95.0885732,139.291579 95.3113445,138.48137 95.6892498,137.741542 C97.1254393,134.879122 98.0223003,131.809193 99.0403587,128.794193 C100.56488,124.36915 102.314456,120.02604 104.282148,115.782088 C105.029263,114.397294 105.552915,112.901623 105.833475,111.351136 C106.073212,109.790269 106.542981,108.274196 107.227245,106.853049 C107.742334,105.662917 108.293783,104.491095 109.420919,103.709881 C109.71947,103.44897 109.964447,103.131745 110.142043,102.776085 C111.457036,100.725397 112.765968,98.6930183 114.274876,96.7643947 C117.959278,92.0404877 122.758696,89.0376941 128.254999,86.9992123 C131.284386,85.9455334 134.382256,85.1033265 137.526603,84.4785746 C139.288887,84.1234952 141.013624,83.6003275 142.677494,82.9161454 C143.265654,82.6917956 143.726434,82.218794 143.937947,81.6222587 C144.174666,80.86823 144.557798,80.169094 145.065083,79.5654672 C145.264319,79.3721911 145.376887,79.1055807 145.376887,78.8269752 C145.376887,78.5483698 145.264319,78.2817594 145.065083,78.0884833 C144.549994,77.3499914 144.071264,76.5809833 143.598594,75.8119752 C140.874041,71.4709638 138.950459,66.6699788 137.920494,61.6402542 C137.421873,58.8482353 137.164375,56.0179553 137.150891,53.1811649 C137.163005,51.3286619 137.078049,49.4768056 136.896376,47.6333206 C136.628229,45.8081658 136.673323,43.950185 137.029693,42.1404055 C137.181218,41.5324078 137.138814,40.891793 136.908496,40.3094338 C136.124359,38.5024005 135.527334,36.6187433 135.126894,34.6883506 C135.10258,34.2463607 134.879479,33.8396594 134.520907,33.5836644 C133.846617,33.3013128 133.454762,32.5878899 133.575567,31.8625509 C133.672525,31.1667817 133.575567,30.3977736 133.975518,29.7996562 C134.43537,29.1666034 134.9483,28.5744523 135.508666,28.0297168 C135.78418,27.7591272 135.96495,27.4057096 136.023755,27.0226824 C136.270779,25.4580297 136.060217,23.8547891 135.417768,22.4086337 C134.839832,20.7404992 134.745249,18.9411493 135.145073,17.2208805 C135.393528,15.7927226 136.047994,14.4805262 136.460065,13.0889877 C137.210653,10.814498 137.549327,8.4226755 137.459944,6.02754016 C137.45507,5.79142488 137.489901,5.55618115 137.562962,5.33177091 C137.967319,3.8506931 138.530145,2.41820999 139.241546,1.05950359 C139.885306,-0.376680323 140.62846,-1.76553519 141.465519,-3.09680218 C141.861413,-3.68377221 142.184962,-4.31705468 142.429039,-4.98270304 C142.724481,-5.75581862 143.210372,-6.44051504 143.840989,-6.97235896 C145.07099,-8.06457413 146.174798,-9.2929807 147.131499,-10.6343024 C147.992001,-11.8549502 148.670707,-13.1610433 149.93722,-14.0154968 C151.421888,-15.0225312 152.124833,-16.8473997 153.748879,-17.7262661 C154.087068,-17.9840751 154.443532,-18.2166189 154.815416,-18.4220354 C155.119035,-18.5189023 155.367793,-18.7406173 155.500182,-19.0323593 C155.871959,-19.7305772 156.542763,-20.2170129 157.318143,-20.3506589 C157.679791,-20.3961028 158.030608,-20.5056136 158.354381,-20.6741306 C159.374802,-21.3839512 160.505201,-21.9181338 161.69943,-22.2548695 C161.999796,-22.3386259 162.278786,-22.4864043 162.517513,-22.6881995 C163.281098,-23.4004762 164.28869,-23.7875888 165.329293,-23.7684728 C165.795904,-23.7684728 166.353412,-23.6403047 166.698824,-23.9637764 C167.304812,-24.5741003 168.044116,-24.464242 168.78342,-24.4520355 C169.093053,-24.4207037 169.40578,-24.4497136 169.704521,-24.5374809 C171.119932,-25.0596622 172.604796,-25.3661659 174.110047,-25.4468635 C174.94631,-25.5017926 175.843171,-25.3492117 176.594595,-25.9351226 C176.715792,-26.0327744 176.970307,-26 177.158163,-25.9778453 C178.968268,-25.7644802 180.789615,-25.6625701 182.612047,-25.6726833 C183.43013,-25.6726833 184.34517,-25.4712764 185.035996,-25.7642319 C185.568828,-25.9683222 186.157508,-25.9683222 186.690341,-25.7642319 C187.432153,-25.5162753 188.191905,-25.3265084 188.962792,-25.1966307 C189.471822,-25.1417015 190.247485,-24.6961651 190.47776,-25.7215092 C190.520179,-25.9351226 190.811053,-25.8313676 190.986789,-25.7642319 C193.174403,-24.9952238 195.325657,-24.1712865 197.137559,-22.6637865 C197.846564,-22.0534626 198.719186,-21.7544039 199.391831,-21.0647379 C199.36621,-21.5777973 199.43609,-22.0911574 199.597867,-22.5783412 C199.94328,-22.6271671 200.119016,-22.3830375 200.306872,-22.1999403 C201.039725,-21.4933387 201.61232,-20.6355862 201.985456,-19.6854059 C202.27027,-18.9102945 202.439947,-18.0863572 202.76718,-17.3356588 C203.276209,-16.1882499 203.979154,-15.2605576 205.397164,-15.1079766 C206.25609,-14.9953467 207.081923,-14.7021573 207.821113,-14.2474199 C209.729972,-13.1122174 211.850927,-12.3126931 213.499212,-10.7380574 C214.051596,-10.2403796 214.638907,-9.78348523 215.256575,-9.3709319 C216.67162,-8.32756006 217.939594,-7.09568069 219.025815,-5.70898849 C219.523943,-5.19886827 219.806321,-4.51412154 219.813598,-3.79867467 C219.304569,-4.2564176 218.892498,-4.51275364 218.377409,-4.31134675 C218.219885,-5.23874546 217.77682,-6.0927839 217.110896,-6.75264236 C217.001818,-6.8686039 216.850321,-6.96625573 216.704884,-6.8686039 C216.462489,-6.70991969 216.613986,-6.53292575 216.735184,-6.38034478 C217.280572,-5.69678201 217.83808,-5.01932248 218.389529,-4.33575971 C218.517258,-4.14043576 218.659036,-3.95480659 218.81372,-3.78036495 C219.316355,-3.2819942 219.741306,-2.70996582 220.074173,-2.08366451 C220.322628,-1.61981834 220.764998,-1.18648837 220.401406,-0.570061227 C220.037814,0.0463659142 221.098291,0.174533934 220.946794,0.784857836 C220.795298,1.39518174 221.195249,1.7491696 221.419464,2.19470605 C221.819416,3.0003336 222.298146,3.76934172 222.631439,4.63600166 C222.837474,5.19139641 223.334384,5.74068792 222.534481,6.25946324 C222.346625,6.38152802 222.425403,6.71110293 222.473882,6.93692277 C222.601139,7.54724668 222.704157,8.15757058 222.825355,8.76789448 C223.128348,10.2753945 223.643437,11.819514 222.825355,13.3331173 C222.776311,13.5211626 222.776311,13.7187764 222.825355,13.9068217 C222.970791,15.1274695 223.195007,16.4030465 223.249546,17.6542105 C223.279845,18.5269737 223.419222,19.4851822 222.764756,20.2358806 C222.015487,21.2541392 221.592658,22.4784735 221.552781,23.745243 C221.477764,24.5905286 221.258407,25.4164238 220.904375,26.1865387 C220.66491,26.7261444 220.513486,27.301139 220.455945,27.8893423 C220.365047,28.4996662 220.21961,29.1099901 220.152951,29.7508302 C219.977215,31.4109113 219.104593,32.8695854 218.868258,34.5174599 C218.731175,34.9712468 218.897021,35.4625204 219.28033,35.7381077 C220.301822,36.5622462 220.939945,37.7747436 221.043752,39.088786 C221.384729,41.3161763 221.199963,43.5931399 220.504424,45.7352133 C219.51876,48.8079182 218.303306,51.8009725 216.868501,54.6886649 C216.270962,55.9333906 215.483762,57.0763072 214.53545,58.0759626 C214.017981,58.6133413 213.680978,59.3007093 213.571931,60.0412055 C213.11946,62.4906388 212.64881,64.905487 212.159981,67.2857502 C211.614592,70.062724 211.026785,72.8335945 210.584414,75.6349812 C210.433699,76.3363653 210.627696,77.0679236 211.105563,77.6002242 C211.23282,77.7528052 211.372197,77.8931797 211.505514,78.0335542 C213.323476,79.9316615 215.329293,81.6649814 216.171616,84.2954774 C216.260154,84.5631523 216.452525,84.78332 216.704884,84.9058013 C218.238032,85.6931191 219.601503,86.7733925 221.225548,87.4020261 C223.649497,88.3297184 226.039106,89.3082711 228.394376,90.337684 C231.260696,91.5949513 234.084596,92.9498703 236.878197,94.3108926 C239.010781,95.3032644 240.988802,96.6025999 242.750212,98.1681397 C245.200791,100.259676 247.303816,102.732137 248.97976,105.492027 C249.052478,105.620195 249.107017,105.876531 249.258514,105.809395 C249.900861,105.540852 249.93722,106.132867 250.167495,106.419719 C250.531087,106.883565 250.8765,107.365721 251.209793,107.847877 C251.906678,108.848808 252.906557,109.599506 253.633741,110.545508 C254.92836,112.187914 255.925319,114.047348 256.578839,116.038424 C257.093928,117.686298 257.306024,119.431824 258.190765,120.957634 C258.891633,122.279156 259.413391,123.689363 259.742092,125.150559 C260.117804,126.572614 260.657132,127.970256 260.348079,129.496066 C260.30566,129.660853 260.432917,129.874466 260.499576,130.057564 C260.79651,130.826572 261.105563,131.601683 261.408557,132.364588 C261.822012,133.257862 262.133071,134.19567 262.335717,135.159871 C262.664438,137.615027 263.274492,140.023555 264.153678,142.337281 C264.301683,142.769154 264.505425,143.179553 264.759665,143.557928 C265.626227,144.656511 266.777603,145.547584 267.183614,146.963536 C267.577506,148.239113 268.019876,149.508586 268.31075,150.81468 C268.581114,151.922 269.049291,152.970527 269.692401,153.909022 C270.953502,155.761476 271.954745,157.780347 272.667798,159.908506 C273.273785,161.904265 273.98885,163.863405 274.697855,165.828648 C275.529143,168.03932 276.10459,170.339151 276.412798,172.682585 C276.467337,173.152534 276.770331,173.744549 276.164344,174.061917 C275.721973,174.29384 275.752272,174.574589 275.909829,174.93468 C276.279989,175.646746 276.489007,176.432527 276.521876,177.235601 C276.522652,177.946395 276.80131,178.628291 277.29754,179.133709 C277.775362,179.707174 278.146888,180.362514 278.394376,181.068435 C278.800388,182.136502 279.103381,183.241188 279.606351,184.266533 C279.770612,184.542798 279.80394,184.878464 279.697249,185.182018 C279.441632,185.975422 279.441632,186.829911 279.697249,187.623314 C279.866925,188.508284 280.006302,189.40546 280.1275,190.302636 C280.140115,190.776828 280.289623,191.237047 280.557751,191.627039 C280.853595,191.920634 280.874731,192.394275 280.60623,192.713415 C280.085081,193.323739 280.206278,194.013405 280.345655,194.727484 C280.745607,196.73545 281.139498,198.743416 281.472791,200.763588 C281.703066,202.161229 281.830324,203.571078 282,204.974823 L282,210.650835 C281.837674,211.739112 281.561421,212.807026 281.175857,213.836726 C279.145801,218.450774 275.946188,221.838072 271.16495,223.540876 C267.593927,224.836535 264.124072,226.39925 260.78439,228.215957 C259.782491,228.753042 258.772512,229.284024 257.754454,229.808902 C257.23188,230.025925 256.927653,230.577958 257.02121,231.139408 C257.118167,232.201372 257.069689,233.275542 257.203006,234.325299 C257.38832,235.694322 257.326734,237.085793 257.02121,238.432779 C256.909045,239.015298 256.909045,239.614096 257.02121,240.196615 C257.142378,241.173405 257.142378,242.161586 257.02121,243.138376 C256.833354,245.298923 256.584899,247.453366 256.487941,249.613913 C256.342504,252.757081 256.348564,255.912456 256.239486,259.061727 C256.114249,262.609743 255.841555,266.13945 255.421403,269.650847 C255.261435,270.582086 255.284081,271.535863 255.488062,272.458337 C255.815613,273.649277 255.910285,274.89297 255.766816,276.12028 C255.505247,278.42098 255.488995,280.743272 255.718337,283.047456 C256.0391,286.335042 256.577608,289.597369 257.330263,292.812639 C257.784753,294.918256 258.057448,296.981151 257.542359,299.123388 C257.22433,300.434617 257.22433,301.803677 257.542359,303.114906 C258.045328,305.171698 257.681736,307.185767 257.366622,309.218145 C257.233305,310.060392 257.178766,310.811091 257.754454,311.433621 C259.192904,313.097159 260.229899,315.073194 260.78439,317.207285 C261.191781,318.351143 261.464324,319.539247 261.596413,320.747164 C261.605309,321.345899 261.857122,321.914881 262.293298,322.321799 C262.740654,322.764202 263.050222,323.328381 263.184099,323.945261 C263.703047,325.886805 264.107742,327.85751 264.396073,329.847093 C264.508083,330.509613 264.508083,331.186436 264.396073,331.848955 C264.299115,332.361628 264.171858,332.849887 263.571931,333.014674 C263.030662,333.162125 262.452963,332.992522 262.075142,332.575241 C261.790328,332.318905 261.71761,331.885575 261.372197,331.714684 C261.242122,331.755677 261.169119,331.894558 261.208581,332.025949 C261.596413,334.979917 261.541874,337.982711 262.420555,340.893956 C263.59011,344.793925 263.874924,348.864786 264.347594,352.88682 C264.523331,354.41263 263.953703,354.992438 262.420555,354.968025 C262.145935,354.958661 261.872435,354.928055 261.602472,354.876476 C261.383286,354.870024 261.177241,354.769711 261.036066,354.600721 C260.894892,354.431731 260.831996,354.210113 260.863168,353.991507 C260.863168,353.344563 260.863168,352.691517 260.863168,352.03847 C260.596534,353.259118 260.505636,354.479766 260.335959,355.657691 C259.960247,358.367529 259.81481,361.065161 260.614713,363.738379 C260.656841,363.929855 260.689203,364.123377 260.711671,364.318187 C261.614592,368.987165 262.18422,373.741588 263.971882,378.203056 C264.208407,378.873792 264.305356,379.586374 264.256696,380.296467 C264.177918,384.037752 264.256696,387.779038 264.026421,391.520323 C263.96945,392.307292 264.122167,393.095307 264.468792,393.802935 C266.880621,398.783178 269.098534,403.983138 271.673979,408.98169 Z M186.835777,345.849786 C186.914609,344.943053 186.873855,344.029799 186.71458,343.133844 C186.405527,344.06764 186.6964,344.964816 186.835777,345.849786 Z" id="Shadow"></path>
            </g>
        </g>
    </g>
</svg>