<?xml version="1.0" encoding="UTF-8"?>
<svg width="223px" height="460px" viewBox="0 0 223 460" version="1.1" xmlns="http://www.w3.org/2000/svg" xmlns:xlink="http://www.w3.org/1999/xlink">
    <!-- Generator: Sketch 61.2 (89653) - https://sketch.com -->
    <title>Shadow</title>
    <desc>Created with Sketch.</desc>
    <defs>
        <linearGradient x1="46.8113487%" y1="5.95546443%" x2="57.3135763%" y2="68.067101%" id="linearGradient-1">
            <stop stop-color="#C9F7EA" offset="0%"></stop>
            <stop stop-color="#73B9BF" offset="100%"></stop>
        </linearGradient>
    </defs>
    <g id="Page-1" stroke="none" stroke-width="1" fill="none" fill-rule="evenodd">
        <g id="Home" transform="translate(-990.000000, -2662.000000)" fill="url(#linearGradient-1)" fill-rule="nonzero">
            <g id="Project-Thumb---YouTube-Copy" transform="translate(950.000000, 2662.000000)">
                <path d="M40.0590878,-20 L163.934388,-20 C164.318081,-19.063789 164.782349,-18.1505995 165.112325,-17.1913669 C165.442301,-16.2321343 166.10609,-15.5529976 166.286426,-14.593765 C166.460668,-13.7071113 166.717586,-12.8387294 167.053812,-12 C167.524071,-10.8346803 167.82762,-9.60885813 167.955491,-8.358753 C168.028392,-7.57218225 167.905611,-6.73956835 168.266282,-6.01055156 C168.922397,-4.65227818 169.045179,-3.117506 169.639903,-1.7323741 C169.689783,-1.62110312 169.785707,-1.39088729 169.620719,-1.39088729 C168.949256,-1.39088729 169.260047,-0.857553957 169.313764,-0.707913669 C169.720479,0.37793765 169.83175,1.55971223 170.537745,2.55731415 C170.955486,3.14749205 171.246787,3.81761409 171.39338,4.52565947 C170.687385,4.18033573 170.798656,3.37458034 170.215443,2.75683453 C170.499376,3.71990408 170.695059,4.44508393 170.330551,5.20863309 C170.172544,5.51390738 170.236819,5.88701537 170.487865,6.12182254 C170.829352,6.34436451 170.794819,5.70359712 171.201534,5.67673861 C170.954118,7.14012553 170.875586,8.62708605 170.967481,10.1083933 C170.967481,10.2158273 170.967481,10.3693046 170.921438,10.4268585 C170.154052,11.1443645 170.280671,12.1918465 169.93151,13.0628297 C169.716642,13.6038369 169.513284,14.2868106 169.762685,14.7318945 C170.253812,15.6067146 169.697457,16.2129496 169.563165,16.9342926 C169.317601,16.5851319 169.45573,16.1016787 169.014483,15.8676259 C168.665323,16.2513189 169.15645,16.7270983 168.891702,17.1146283 C168.600095,17.1146283 168.734388,16.5697842 168.400575,16.7002398 C168.1435,16.7961631 168.112805,17.1184652 168.147337,17.3410072 C168.216402,17.8206235 167.825035,18.2004796 167.867241,18.729976 C168.350695,18.564988 168.473476,18.0047962 169.171798,17.8282974 C167.460527,19.777458 166.15597,21.6422062 167.399136,24.193765 C166.919519,23.5606715 166.750695,22.8278177 166.163644,22.0872902 C166.209687,23.2115108 165.595778,23.9098321 165.250455,24.7194245 C164.532949,26.4 163.803932,28.1266187 164.866762,29.9606715 C164.924316,30.0642686 165.039424,30.2829736 164.847577,30.2906475 C164.202973,30.317506 164.50609,30.7741007 164.463884,31.0580336 C164.387145,31.6719424 164.847577,32.2628297 164.747817,32.8038369 C164.607746,33.8877397 164.607746,34.985162 164.747817,36.0690647 C164.855251,37.3505995 164.567481,38.6167866 164.724795,39.9059952 C164.859088,40.9880096 165.166042,42.0853717 165.108488,43.1558753 C165.000687,44.1018265 165.255734,45.0534535 165.822157,45.818705 C165.898896,45.9223022 166.05621,46.0182254 165.948776,46.1678657 C165.41928,46.8968825 165.795299,47.5414868 166.129112,48.1860911 C166.190503,48.3088729 166.317121,48.4393285 166.213524,48.5697842 C165.672517,49.1990408 166.121438,49.6940048 166.428392,50.1928058 C166.574196,50.4345324 166.696977,50.8565947 167.015443,50.7990408 C167.333908,50.7414868 167.138225,50.2657074 167.295539,50.0316547 C167.31856,49.9932854 167.376114,49.9817746 167.441342,49.9434053 C167.825035,50.9218225 167.245659,51.777458 167.199615,52.7980815 C166.789064,52.4374101 166.850455,52.0767386 166.815922,51.7314149 C166.762205,51.2326139 166.604891,50.5803357 166.086906,50.6110312 C165.56892,50.6417266 165.85669,51.3170264 165.825994,51.7160671 C165.825994,51.7697842 165.852853,51.8273381 165.845179,51.8772182 C165.71856,52.7673861 166.228872,53.5232614 166.347817,54.3558753 C166.466762,55.3266187 166.696977,56.1515588 167.644699,56.6580336 C168.121086,56.8779968 168.488922,57.2804033 168.665323,57.7745803 C167.94398,57.6095923 167.671558,57.0071942 167.003932,56.8 C167.099855,57.2489209 167.126714,57.6594724 167.45669,57.8091127 C167.901774,58.01247 167.917121,58.3309353 167.955491,58.7261391 C168.010812,59.6547429 168.367833,60.5398868 168.972277,61.2470024 C169.40585,61.7458034 169.682109,62.3980815 170.292181,62.7472422 C170.622157,62.9390887 170.464843,64.1131894 171.320479,63.257554 C171.339663,63.2345324 171.466282,63.3074341 171.535347,63.3496403 L172.383308,63.8752998 C171.754052,64.1438849 171.746378,64.1669065 172.133908,64.6081535 C172.373537,64.87005 172.65488,65.0904575 172.966522,65.2604317 C174.086906,65.905036 175.291702,66.4115108 176.082109,67.5357314 C176.369879,67.9194245 176.876354,67.9808153 177.325275,68.1074341 C177.497937,68.1534772 177.708968,68.1342926 177.801054,68.3645084 C178.242301,69.6652278 178.533908,69.8992806 179.677313,69.876259 C179.638944,70.4211031 179.320479,70.4517986 178.879232,70.3558753 C178.514723,70.2791367 178.349735,69.8647482 177.820239,69.7189448 C178.276834,70.371223 178.292181,70.7702638 177.559328,70.9045564 C177.40585,70.9314149 177.194819,71.0311751 177.25621,71.2230216 C177.359807,71.5376499 177.551654,71.2805755 177.716642,71.2498801 C178.18091,71.1654676 178.388105,71.3841727 178.334388,71.8330935 C178.334388,71.9673861 178.042781,72.0786571 178.261486,72.2167866 C178.480191,72.3549161 178.599136,72.1669065 178.733428,72.028777 C178.867721,71.8906475 178.90609,71.6450839 179.228392,71.8177458 C178.138704,73.0839329 179.738704,73.7170264 179.811606,74.8872902 C180.037985,74.5419664 180.233668,74.3731415 180.252853,74.1851319 C180.360287,73.2067146 180.767001,73.682494 180.99338,74.0623501 C181.182677,74.438183 181.616259,74.6216843 182.017841,74.4959233 C182.401534,74.4306954 182.819759,74.3616307 182.965563,74.8796163 C183.188105,75.6661871 183.587145,75.4973621 184.009208,75.0791367 C184.327673,74.7645084 184.626954,74.4383693 185.133428,74.5458034 C185.788879,74.6336215 186.454346,74.4883052 187.013524,74.1352518 C187.91904,73.6863309 188.859088,73.298801 189.741582,72.8076739 C190.813301,72.250351 191.989355,71.9223627 193.194819,71.8446043 C194.480191,71.7103118 196.302733,72.0402878 196.536786,69.8340528 C196.608267,69.9027917 196.672548,69.9786441 196.728632,70.0604317 C196.749015,70.1400583 196.77465,70.2182472 196.805371,70.2944844 C197.246618,70.9314149 197.507529,70.9467626 198.002493,70.3673861 C198.098416,70.2561151 198.186666,70.0220624 198.386186,70.1985612 C198.942541,70.7203837 199.472037,70.3788969 199.963165,70.1371703 C200.98288,69.6067219 202.029184,69.1290335 203.097937,68.7059952 C203.915203,68.3990408 204.575155,67.7505995 205.595778,67.670024 C206.397697,67.6047962 207.533428,67.670024 208.19338,66.78753 C208.262445,66.6954436 208.504172,66.7223022 208.665323,66.7184652 C208.722877,66.7184652 208.784268,66.8028777 208.822637,66.8335731 C208.822637,67.1443645 208.389064,67.1098321 208.438944,67.5472422 C210.514723,66.9179856 212.659567,66.6877698 214.670119,65.8820144 C213.979472,66.5419664 213.753093,67.6738609 212.575155,67.7659472 C212.419997,67.78235 212.280144,67.8668301 212.193427,67.9965343 C212.106711,68.1262385 212.082093,68.2877621 212.126234,68.4374101 C212.163971,68.5733907 212.256333,68.6876738 212.38137,68.7531001 C212.506407,68.8185263 212.652954,68.8292541 212.786186,68.7827338 C213.753093,68.5717026 214.650934,68.9438849 215.583308,69.0436451 C215.276354,69.5923261 215.353093,69.876259 215.947817,69.8877698 C216.820497,69.8616464 217.688446,70.0252869 218.491702,70.3673861 C218.913764,70.5669065 219.404891,70.3673861 219.876834,70.3673861 C219.462445,70.9275779 219.458608,70.9390887 220.072517,71.1654676 C220.354471,71.2667961 220.644578,71.3438156 220.939663,71.3956835 C222.202013,71.6220624 223.468201,71.8254197 224.316162,72.9573141 C224.51712,73.1892765 224.785337,73.3528886 225.083548,73.4254197 C226.530071,73.9165468 227.723356,74.841247 228.958848,75.6930456 C229.158368,75.8311751 229.472997,76.0460432 229.396258,76.2417266 C229.127673,76.936211 229.691702,77.2201439 229.971798,77.653717 C230.143358,77.9327956 230.29714,78.2224196 230.432229,78.5208633 C230.505504,78.6450774 230.484948,78.8032059 230.382349,78.9045564 C230.276144,79.0099014 230.104862,79.0099014 229.998656,78.9045564 C229.315683,78.4211031 228.532949,78.0565947 228.080191,77.3007194 C227.792992,76.8994877 227.42427,76.5634543 226.998177,76.3146283 C226.837025,76.2033573 226.614483,76.057554 226.476354,76.2148681 C226.042781,76.659952 225.912325,76.2148681 225.666762,75.9961631 C224.960766,75.3247002 224.442781,74.3117506 223.188105,74.5611511 C223.051984,74.5550962 222.925535,74.489062 222.842781,74.3808153 C222.282589,73.6134293 221.438464,73.4983213 220.598177,73.3640288 L218.26916,72.9803357 L218.292181,72.8191847 L220.851414,73.0609113 L220.870599,72.853717 C219.604412,72.3779376 218.349735,71.8023981 216.949256,71.9366906 C216.438535,72.0100874 215.918823,71.9918975 215.414483,71.8829736 C214.178992,71.5721823 212.970359,71.8829736 211.765563,72.1131894 C211.255251,72.2052758 211.355011,72.5390887 211.673476,72.8115108 C211.875629,72.9559069 212.126397,73.0151541 212.371798,72.9764988 C213.327193,72.9342926 214.290263,72.8920863 215.241822,72.857554 C215.40681,72.857554 215.786666,72.8076739 215.675395,72.9803357 C215.464364,73.3141487 215.8941,73.9856115 215.11904,74.0278177 C214.976697,74.0358788 214.845472,74.1073482 214.761483,74.2225538 C214.677494,74.3377594 214.649596,74.4845575 214.685467,74.622542 C214.735347,74.9064748 214.988584,74.9717026 215.237985,75.0330935 C215.487385,75.0944844 215.790503,74.9563549 216.005371,75.2556355 C215.475874,75.8541966 214.574196,75.22494 214.048536,75.777458 C214.232709,76.1304556 214.68163,75.9040767 214.815922,76.2685851 C214.482109,76.4105516 214.152133,76.5601918 214.696977,76.8633094 C214.990466,77.0250484 215.201175,77.3041332 215.276354,77.6306954 C215.468201,78.3980815 215.099855,79.0733813 215.092181,79.8023981 C215.092181,79.9788969 214.884987,80.1285372 214.673956,80.136211 C214.462925,80.1438849 214.397697,79.9942446 214.328632,79.8369305 C214.259567,79.6796163 214.225035,79.2729017 213.891222,79.3534772 C213.557409,79.4340528 213.584268,79.7908873 213.584268,80.0479616 C213.617494,80.7205307 213.295663,81.36128 212.736306,81.736211 C211.884507,82.2618705 211.646618,83.0369305 211.527673,83.9347722 C211.427913,84.6676259 211.370359,85.4004796 211.339663,86.1371703 C211.278272,87.8023981 211.191302,89.4650679 211.078752,91.1251799 C210.921438,93.4964029 210.695059,95.863789 210.55693,98.2388489 C210.403452,101.108873 210.173236,103.971223 209.40585,106.756835 C209.108409,107.895171 209.070384,109.085771 209.294579,110.240767 C209.678272,112.366427 210.127193,114.480576 210.299855,116.63693 C210.40287,118.246905 210.629922,119.846534 210.978992,121.421583 C211.048057,121.713189 211.032709,122.054676 211.285946,122.25036 C212.724795,123.37458 213.100814,125.058993 213.630311,126.66283 C213.722397,126.939089 213.680191,127.326619 214.05621,127.384173 C214.489783,127.4494 214.570359,127.065707 214.689304,126.76259 C214.915683,126.156355 215.280191,125.995204 215.813524,126.428777 C216.351135,126.800627 216.962098,127.053123 217.605371,127.169305 C219.19386,127.599041 220.728632,128.097842 221.733908,129.605755 C222.171318,130.265707 222.19434,130.657074 221.584268,131.098321 C220.974196,131.539568 220.997217,131.969305 221.300335,132.594724 C221.740197,133.467925 222.094836,134.381505 222.359328,135.322782 C222.919519,137.43693 223.594819,139.520384 223.986186,141.676739 C224.016381,142.292695 224.483462,142.798564 225.095059,142.877698 C226.426474,143.142446 226.94446,144.796163 225.927673,145.655635 C225.160287,146.323261 225.214004,146.960192 225.482589,147.758273 C225.677746,148.384506 225.985948,148.9697 226.391942,149.484892 C227.514883,150.863629 228.627593,152.248761 229.730071,153.640288 C230.826049,154.935496 231.850745,156.289375 232.799615,157.695923 C233.666762,159.084892 234.503213,159.411031 236.041822,158.797122 C236.728632,158.5247 237.41928,158.271463 238.102253,158.002878 C238.869639,157.703597 239.191942,157.968345 239.330071,158.670504 C239.367371,159.113087 239.637959,159.502149 240.039903,159.691127 C240.623117,159.963549 240.519519,160.347242 240.120479,160.715588 C239.721438,161.083933 239.410647,161.310312 239.072997,161.628777 C238.620239,162.054676 238.597217,162.461391 239.153572,162.83741 C239.422157,163.017746 239.821198,163.221103 239.882589,163.46283 C240.155011,164.583213 240.979951,165.41199 241.375155,166.440288 C242.046618,168.170743 242.637505,169.939568 243.132469,171.727578 C243.509004,173.324226 244.1833,174.835533 245.119999,176.182254 C245.404367,176.462914 245.46131,176.90106 245.258129,177.245084 C245.035391,177.627442 244.997318,178.089962 245.154531,178.503597 C245.614963,180.333813 246.071558,182.164029 246.639424,183.963549 C247.055214,185.343317 247.35679,186.754952 247.541102,188.184173 C247.748296,189.661391 247.372277,191.338129 248.638464,192.577458 C248.760629,192.759598 248.840591,192.966714 248.872517,193.183693 C249.804891,196.072902 250.725754,198.96211 251.661966,201.847482 C253.407769,207.219185 255.115203,212.629257 256.235587,218.181295 C256.441923,218.898618 256.402761,219.664307 256.124316,220.356835 C255.86422,220.875596 255.833599,221.479658 256.039903,222.022062 C257.359807,225.793765 257.820239,229.784173 258.963644,233.609592 C259.608826,235.604852 260.396133,237.551321 261.319519,239.434053 C262.02925,240.937954 262.319571,242.605643 262.159807,244.260911 C261.920334,246.656211 261.440869,249.021401 260.728632,251.320863 C260.187625,253.21247 259.746378,255.130935 259.113284,256.99952 C258.196258,259.685372 257.098896,262.329017 256.515683,265.114628 C255.717601,268.917026 254.727673,272.665707 253.691702,276.410552 C252.483069,280.780815 250.883069,285.043645 250.050455,289.517506 C249.229352,293.926139 248.289304,298.307914 247.65621,302.751079 C247.533817,303.399344 247.574694,304.067879 247.775155,304.696403 C248.646138,307.079137 249.666762,309.41199 250.146378,311.921343 C250.195919,312.107239 250.268081,312.286355 250.361246,312.454676 C251.19386,314.204317 251.213045,316.042206 250.982829,317.914628 C250.721918,320.028777 250.449495,322.135252 250.215443,324.260911 C249.735826,328.815348 249.651414,333.435012 248.120479,337.82446 C247.598656,339.320863 247.863404,340.9247 247.410647,342.428777 C247.218674,343.145034 247.169137,343.892003 247.264843,344.627338 C247.493132,347.24299 247.493132,349.873557 247.264843,352.489209 C247.188437,353.664852 246.914752,354.819257 246.455251,355.904077 C245.779036,357.416827 245.380054,359.038745 245.277313,360.692566 C245.212085,362.000959 245.027913,363.301679 244.89362,364.606235 C244.586666,367.545324 244.279711,370.48697 243.972757,373.431175 C243.688824,376.155396 243.38187,378.875779 242.510886,381.488729 C242.127193,382.639808 241.820239,383.790887 241.536306,384.941966 C240.795778,388.011511 240.53103,391.2 239.748296,394.281055 C238.965563,397.36211 238.574196,400.443165 237.71856,403.489688 C235.995778,409.594245 235.032709,415.879137 233.497937,422.03741 C232.557889,425.874341 231.990023,429.822542 230.693141,433.586571 C230.20585,435.006235 229.649495,436.410552 229.415443,437.906954 C229.004891,440.5506 228.390982,443.171223 228.525275,445.876259 C228.519788,446.123285 228.487627,446.368996 228.429352,446.609113 C227.788584,450.411511 226.844699,454.148681 225.919999,457.889688 C225.402013,459.995101 225.398177,459.995101 223.234148,459.995101 L41.5631645,459.995101 C39.8902629,459.995101 40,460.130456 40,458.457554 C40,299.375859 40,140.299281 40,-18.7721823 C40,-19.1827338 40.0399032,-19.5894484 40.0590878,-20 Z M160.684507,37.7803357 C160.91856,38.1141487 160.646138,38.6206235 161.095059,38.5899281 C161.409687,38.5669065 161.409687,38.1256595 161.451894,37.822542 C161.586095,36.5204146 161.805267,35.2284518 162.108009,33.9549161 C162.19964,33.5281747 162.177141,33.0848174 162.042781,32.6695444 C161.919999,32.1592326 161.659088,31.6374101 162.012085,31.0925659 C162.430311,30.4671463 162.315203,29.7841727 162.13103,29.0858513 C162.123172,30.072473 161.670646,31.0028999 160.899376,31.6182254 C160.665323,31.4340528 160.899376,31.0772182 160.561726,30.9582734 C160.511846,31.0311751 160.396738,31.1232614 160.408248,31.1961631 C160.554052,32.1669065 160.078272,33.0685851 160.082109,34.0201439 C160.082109,34.1928058 160.247097,34.457554 159.955491,34.4997602 C159.663884,34.5419664 159.590982,34.2733813 159.571798,34.0508393 C159.57322,33.7521837 159.589868,33.4537947 159.621678,33.1568345 C159.621678,32.9956835 159.660047,32.7961631 159.475874,32.7270983 C159.291702,32.6580336 159.165083,32.8690647 159.053812,33.018705 C158.827433,33.3179856 159.053812,33.7553957 158.773716,34.01247 C158.240363,34.5248034 157.830933,35.1520717 157.576594,35.8465228 C157.411606,36.2302158 157.223596,36.4450839 156.935826,35.9309353 C156.859088,35.7928058 156.790023,35.616307 156.690263,35.6546763 C155.922877,36.7635492 156.394819,37.4964029 157.23127,38.1908873 C157.864364,38.7165468 158.351654,39.3995204 159.211126,39.9021583 C158.466762,40.0709832 158.159807,39.4302158 157.549735,39.58753 C157.933428,40.0095923 158.263404,40.3971223 158.608728,40.7693046 C158.723836,40.8959233 158.919519,40.9995204 159.03079,40.8230216 C159.552613,39.9635492 159.748296,40.6733813 159.978512,41.022542 C160.074436,41.1721823 160.051414,41.4446043 160.308488,41.406235 C160.492661,41.3678657 160.48115,41.1376499 160.473476,40.9841727 C160.454292,40.1553957 161.118081,39.3573141 160.5694,38.4940048 C160.48115,38.3558753 160.63079,38.0796163 160.684507,37.7803357 Z M198.132949,78.4211031 C197.825871,78.2290795 197.453085,78.1725088 197.102864,78.2647868 C196.752644,78.3570648 196.456134,78.5899853 196.283548,78.9083933 C196.030311,79.2920863 196.30657,79.3381295 196.571318,79.3381295 C196.954593,79.2952884 197.34195,79.3056179 197.722397,79.3688249 C199.527923,79.7864342 201.379959,79.9682845 203.232229,79.9098321 C203.800095,79.9098321 204.037985,79.6067146 203.91904,79.0618705 C203.81928,78.6091127 203.661966,78.1678657 203.535347,77.7189448 C203.381871,76.8293364 202.615489,76.1758949 201.712805,76.164988 C201.386666,76.164988 200.887865,75.9769784 200.780431,76.3990408 C200.672997,76.8211031 201.194819,76.8211031 201.45573,76.9899281 C201.524795,77.0359712 201.574675,77.0935252 201.486426,77.216307 C200.941582,77.2546763 200.492661,76.8594724 199.951654,76.771223 C199.142061,76.6407674 198.608728,77.1280576 198.033189,77.5386091 C197.657169,77.8417266 198.083069,78.1218225 198.132949,78.4211031 Z M163.696498,43.1213429 C162.802493,41.0992806 164.202973,38.9928058 163.262925,36.9822542 C163.225969,36.908613 163.225969,36.8218426 163.262925,36.7482014 C163.646618,36.3645084 163.308968,36.1266187 163.124795,35.8426859 C162.872054,35.4179775 162.739434,34.9325885 162.741102,34.4383693 C162.741102,34.235012 162.80633,33.9741007 162.51856,33.7784173 C162.249975,35.7966427 161.79338,37.7074341 161.413524,39.6297362 L161.628392,39.6681055 C161.870119,38.9007194 162.115683,38.1333333 162.357409,37.3659472 C162.487865,38.2446043 162.104172,39.0273381 162.008248,39.8484412 C161.923836,40.6158273 161.409687,41.241247 161.459567,42.0239808 C161.505611,42.7031175 162.487865,43.4359712 162.833189,43.0215827 C163.282109,42.511271 163.278272,43.1597122 163.696498,43.1328537 L163.696498,43.1213429 Z M204.110886,76.5026379 C204.030311,76.8863309 204.494579,76.9630695 204.291222,77.270024 C203.796258,78.0143885 204.421678,78.0681055 204.855251,78.0374101 C205.43079,77.9913669 205.979472,77.653717 206.558848,78.0374101 C206.68163,78.1179856 206.884987,78.0374101 206.988584,77.8800959 C207.032261,77.8248844 207.045531,77.7515287 207.023963,77.6845149 C207.002396,77.6175011 206.948831,77.565655 206.88115,77.546283 C205.95645,77.2393285 205.150695,76.5755396 204.110886,76.5064748 L204.110886,76.5026379 Z M206.5435,80.0211031 C207.003932,79.9098321 207.552613,79.9980815 207.963165,79.6028777 C208.308488,79.2729017 208.454292,78.7625899 208.227913,78.4517986 C207.955491,78.0681055 207.460527,78.1678657 207.076834,78.5208633 C206.78139,78.7971223 206.451414,79.0388489 206.163644,79.3189448 C206.014004,79.4647482 205.837505,79.6489209 205.983308,79.8868106 C206.129112,80.1247002 206.324795,80.02494 206.5435,80.02494 L206.5435,80.0211031 Z M204.149256,79.0158273 C204.16844,79.5913669 204.390982,79.9443645 204.713284,79.9558753 C205.035587,79.9673861 205.983308,79.2191847 205.898896,78.9697842 C205.707049,78.4057554 205.13151,78.4019185 204.686426,78.3558753 C204.241342,78.3098321 204.149256,78.7088729 204.149256,79.0196643 L204.149256,79.0158273 Z" id="Shadow"></path>
            </g>
        </g>
    </g>
</svg>