<?xml version="1.0" encoding="UTF-8"?>
<svg width="283px" height="374px" viewBox="0 0 283 374" version="1.1" xmlns="http://www.w3.org/2000/svg" xmlns:xlink="http://www.w3.org/1999/xlink">
    <!-- Generator: Sketch 61.2 (89653) - https://sketch.com -->
    <title>Shadow</title>
    <desc>Created with Sketch.</desc>
    <defs>
        <linearGradient x1="40.6252008%" y1="14.1825783%" x2="69.504193%" y2="77.1697645%" id="linearGradient-1">
            <stop stop-color="#FFBC88" offset="0%"></stop>
            <stop stop-color="#E75454" offset="100%"></stop>
        </linearGradient>
    </defs>
    <g id="Page-1" stroke="none" stroke-width="1" fill="none" fill-rule="evenodd">
        <g id="Home" transform="translate(-1000.000000, -783.000000)" fill="url(#linearGradient-1)" fill-rule="nonzero">
            <g id="Project-Thumb---YouTube" transform="translate(950.000000, 775.000000)">
                <path d="M327.860443,369.398009 C327.378462,370.180275 326.789374,370.115979 326.285972,370.276719 C324.51871,370.844666 322.264112,370.624988 324.641883,373.796918 C325.793281,375.334661 326.543029,377.670744 327.710493,379.519251 C328.69052,381.078426 327.962194,381.662447 326.489475,381.764248 C325.247036,381.86605 323.993887,381.86605 322.740737,381.86605 C240.896855,381.86605 159.052973,381.9107 77.209091,382 C73.0479915,382 70.852302,380.349739 68.8440493,377.274253 C65.6790432,372.452063 62.1873612,367.79597 59.1508832,362.877335 C54.6845294,355.660123 50.6840901,348.148222 50.0468046,339.478995 C49.7201288,335.117591 51.1928474,330.841916 51.6962494,326.501944 C53.0457952,314.821527 56.7891781,303.773353 60.5379164,292.714462 C62.0802544,288.160171 63.3066274,283.493362 64.6347518,278.869417 C65.3630781,276.324372 64.6883052,274.422286 62.2141379,273.061357 C59.7399707,271.700427 57.3621996,270.425226 55.7181101,268.024846 C54.914809,266.856805 54.7327274,265.940588 55.3432362,264.606449 C60.9127902,252.454529 66.3698821,240.254387 71.9447914,228.102466 C76.1487336,218.929588 81.204175,210.206781 86.286393,201.500048 C88.7605602,197.25652 91.1811741,192.996919 93.7838695,188.849835 C94.8549376,187.178142 95.7064367,185.404648 95.2244561,183.2936 C95.052716,182.764234 95.2303595,182.18393 95.6689493,181.841585 C98.8821536,179.521575 101.527692,176.365719 105.592395,175.261973 C107.734531,174.677953 109.801693,173.788526 111.890275,173.000902 C116.76899,171.147037 119.66623,167.476815 121.187146,162.627834 C122.151108,159.552348 122.916921,156.439356 122.708063,153.160267 C122.26357,146.312756 123.714867,139.481319 122.74555,132.596303 C122.167174,128.459935 121.888696,124.296777 121.01042,120.171125 C119.984004,115.174966 119.706055,110.053848 120.185698,104.975867 C120.84976,97.2710776 121.288898,89.5341407 122.226082,81.8614996 C124.057609,66.9127088 126.901294,52.1192997 134.404126,38.8636335 C141.06617,27.0760565 151.069946,18.8140366 163.858499,14.029352 C166.777159,12.9577541 169.610134,11.6236147 172.491307,10.412709 C176.920174,8.58027662 181.407949,7.4604568 186.275953,8.26415523 C187.870062,8.52462182 189.493405,8.55349551 191.09576,8.34988307 C195.598168,7.70679339 200.188411,8.50973292 204.205633,10.6431026 C204.95055,10.9358641 205.740556,11.0972067 206.540561,11.1199637 C208.297113,11.3342832 209.614527,11.8700822 210.541001,13.6864407 C211.660267,15.8778584 213.930931,17.0459001 216.105199,18.128214 C217.561852,18.8569006 218.852489,19.5587972 219.382668,21.3697977 C219.639724,22.2592239 220.753635,22.9771945 221.589068,23.5987213 C224.663033,25.9401627 226.408874,29.1228085 227.956568,32.6055017 C230.061216,37.3098166 232.310459,41.9766255 234.634677,46.5684225 C239.138518,55.4734011 241.634107,65.0749184 245.157921,74.3174504 C246.986397,78.9797312 247.788294,83.9817312 247.508915,88.9822677 C247.3429,91.7577063 248.156912,94.2545294 249.190492,96.7513526 C250.095545,98.9320543 251.461157,101.085966 250.26156,103.620295 C250.178275,103.789176 250.178275,103.987214 250.26156,104.156094 C252.168062,106.443956 250.748896,109.128308 251.12377,111.609058 C251.541487,114.357706 252.553646,116.967047 252.949941,119.67819 C253.972811,126.723946 255.006392,133.80185 254.358396,140.965482 C254.294657,142.595968 253.345624,144.061325 251.884228,144.785729 C249.634985,146.018066 249.206558,148.43452 249.945595,150.679517 C251.118415,154.306876 251.257654,157.982457 251.380826,161.727692 C251.477223,164.5835 252.575067,166.732054 255.707941,168.044761 C265.395752,172.106118 274.612293,177.222998 284.439343,180.989664 C285.363876,181.325575 286.195379,181.876512 286.865312,182.597061 C290.282019,186.561973 293.870097,190.366146 296.408528,195.054387 C303.852452,208.808346 309.636219,223.328498 316.25542,237.462874 C319.495401,244.369323 321.36977,251.613324 323.270916,258.92698 C324.288431,262.859744 326.269906,266.546041 328.626256,269.959081 C330.49527,272.691655 329.836563,274.888431 326.816151,276.431532 C325.155996,277.278094 323.511906,278.156805 321.846395,278.981935 C320.180884,279.807065 319.591797,281.205501 319.95596,282.978995 C321.658958,291.273163 323.544038,299.519109 325.745083,307.700759 C328.256738,317.066525 330.41494,326.507302 332.342862,336.023092 C333.71383,342.79559 332.792711,349.182314 330.934408,355.488668 C330.034711,358.537364 329.279608,361.800379 327.255289,364.49009 C325.889677,366.242153 324.968559,368.165671 327.860443,369.398009 Z M111.225867,320.411857 C111.225867,315.490205 111.541672,310.541629 111.146915,305.652286 C110.620573,298.775973 109.967909,291.9212 110.146866,285.007194 C110.146866,284.204868 110.094231,283.337925 109.094182,283.057918 C108.304669,282.837144 107.736219,283.278693 107.273039,283.85486 C105.488739,286.067988 103.951821,288.324194 103.235996,291.264261 C101.983302,296.385149 100.346379,301.414495 98.7252455,306.433073 C95.9672137,315.000193 92.4091423,323.368079 91.4722536,332.403672 C90.8985409,337.91226 90.0985011,343.641623 94.1723877,348.55789 C95.6514086,350.351009 96.2777555,352.865682 97.3304394,355.019578 C98.2199572,356.871928 99.0357872,358.788895 100.056891,360.544321 C101.077994,362.299746 103.414952,362.542059 104.07288,360.86202 C105.70454,356.683462 108.883645,353.861859 111.852213,350.835635 C112.794365,349.877151 113.010166,348.870205 112.999639,347.480942 C112.905655,338.439947 112.313457,329.411564 111.225867,320.43878 L111.225867,320.411857 Z M202.43404,247 C204.234181,250.224316 204.479655,253.116957 203.702321,256.102032 C203.410821,257.189491 203.702321,259.130605 202.076057,258.945737 C200.705496,258.793493 201.094162,257.069871 201.05325,255.960662 C201.00211,253.43232 201.094162,250.898541 200.644127,248.38651 C200.531618,247.750347 200.562303,247.010875 199.718486,247.092434 C198.87467,247.173993 199.007635,247.951527 199.007635,248.571378 C199.007635,251.741321 199.079232,254.911264 199.007635,258.07577 C198.971837,259.549277 199.554837,259.935325 200.807776,259.989698 C203.098865,260.093007 204.801839,259.445969 205.482006,256.836067 C206.673577,252.263302 205.870673,249.011799 202.43404,247 Z M209.893461,253.36926 C211.848333,255.057967 211.49011,256.719612 211.827863,258.126869 C212.042796,259.019936 212.441958,260.03749 213.501273,259.669438 C214.417299,259.3501 213.823673,258.462445 213.654797,257.818355 C213.086833,255.746116 212.912898,253.575352 213.143051,251.431576 C213.270987,250.305771 213.347749,249.098778 211.966034,248.59 C211.229119,249.764518 212.380549,251.967416 210.599671,252.021541 C209.130959,252.064841 209.867874,250.17587 209.576179,249.158315 C209.43289,248.617063 209.35101,247.994623 208.72668,248 C208.005117,248 208.097232,248.687426 208.092114,249.207028 C208.06141,252.351705 208.051175,255.496382 208,258.641059 C208,259.534125 208.296813,260.01584 209.156547,259.999603 C210.016281,259.983365 210.313093,259.45835 210.246566,258.576108 C210.113512,257.087664 210.03675,255.593807 209.893461,253.36926 L209.893461,253.36926 Z M155.103206,244 C150.157243,244.996966 147.447126,251.948191 149.943561,255.699208 C150.756596,256.916498 151.866701,257.136822 153.154007,256.933023 C154.441312,256.729223 155.405488,255.980121 155.603535,254.514966 C155.775523,253.231578 156.645888,251.358824 155.082359,250.923684 C153.826324,250.582181 154.394406,252.576114 153.982677,253.501475 C153.529254,254.487425 153.331207,255.903008 152.033478,255.616586 C150.62109,255.308133 150.714902,253.837469 150.928584,252.658736 C151.465396,249.596231 152.231525,246.594316 155.103206,244 Z M184.863623,257.975534 C183.246587,258.327091 182.331479,259.685378 181.411172,258.667994 C180.704043,257.884981 181.546358,256.835638 181.873925,255.956746 C182.705841,253.719567 183.652146,251.530327 184.432067,249.277168 C184.80123,248.211845 185.752733,246.720392 183.860125,246.240996 C182.466665,245.884113 180.74044,245.617782 180.090505,247.785715 C181.052408,248.158579 181.733539,246.544614 182.497862,247.60461 C183.01781,248.339684 182.497862,249.159983 182.217091,249.873749 C181.343579,252.185501 180.360878,254.45464 179.513364,256.798352 C179.144201,257.810409 178.35908,259.280555 180.007314,259.669398 C181.535959,260.026282 183.501361,260.654822 184.863623,257.991514 L184.863623,257.975534 Z M192,247.583391 C191.194347,246.064582 190.038618,246.424033 189.122667,246.160773 C187.501769,245.70513 187.074964,246.186086 187.204444,248.01372 C187.391471,250.945022 187.204444,253.901638 187.204444,256.848128 C187.204444,257.653097 186.398791,258.660574 187.98612,258.898521 C190.216053,259.227596 191.429329,258.777016 191.726653,257.243018 C190.019436,258.336561 189.630996,258.392251 189.06512,257.627784 C188.206715,256.468426 188.743818,253.916826 190.081778,253.132108 C190.690813,252.777719 190.724382,252.149944 190.259213,252.068941 C187.971733,251.658863 188.921253,250.079301 189.084302,248.788313 C189.271329,247.011306 190.628471,247.441635 192,247.598579 L192,247.583391 Z M149,244.349457 C147.858261,242.594633 146.330428,243.002988 144.962548,243.140946 C143.594668,243.278904 143.704981,244.492933 143.462292,245.45312 C142.748935,248.293214 142.013516,251.129628 141.256034,253.962364 C141.068502,254.66319 140.57761,255.446791 141.807599,255.617859 C143.07403,255.811708 144.350003,255.936973 145.629941,255.993104 C145.960626,256.03226 146.28891,255.902949 146.504153,255.648749 C146.719397,255.39455 146.792932,255.049321 146.699976,254.72941 C146.490381,253.78026 145.889176,254.348646 145.442409,254.569379 C144.488202,255.049472 143.716012,254.872886 143.677402,253.752668 C143.627762,252.312387 143.539511,250.662411 145.045282,249.862255 C145.955364,249.376643 146.093255,249.249722 145.447924,248.37231 C144.471655,247.053432 145.299002,245.745591 145.933301,244.548117 C146.666882,243.157501 147.825168,244.597781 149,244.366012 L149,244.349457 Z M159.622393,249.623725 C159.482682,251.00243 158.535752,252.581182 159.286052,252.554148 C162.41661,252.456828 161.790498,254.516775 161.671485,256.338827 C161.599043,257.420164 162.100967,257.782412 162.965105,257.960833 C163.829242,258.139253 164,257.695905 164,256.879496 C163.912034,253.484098 163.880987,250.083294 163.767149,246.687896 C163.741276,245.941773 163.725753,244.849623 162.602891,245.01723 C161.687009,245.157804 161.567996,246.071534 161.567996,246.931197 C161.624915,248.012533 161.733579,249.066837 161.743928,250.13736 C161.743928,250.769942 161.624915,251.483625 160.890139,251.597165 C159.751755,251.797213 160.19676,250.672622 159.59652,249.639945 L159.622393,249.623725 Z M172,256.13854 C171.166127,256.055915 170.48561,257.460527 169.661322,256.546496 C169.033522,255.849355 169.436081,254.909505 169.608606,254.093591 C170.164521,251.511585 170.02075,248.805643 171.003187,246.321753 C171.161335,245.929288 171.381784,245.485183 170.931301,245.18567 C170.507576,244.92061 169.980366,244.940684 169.57506,245.237311 C168.932882,245.650431 168.985598,246.378557 168.894543,247.049879 C168.501568,249.833281 168.329043,252.657996 167.576641,255.374266 C167.346607,256.221164 166.210814,257.217818 167.950446,257.739383 C170.025543,258.384885 171.539932,257.822007 171.976038,256.154032 L172,256.13854 Z M140,253.734934 C136.982232,253.680787 136.815124,253.523762 137.645748,250.697299 C138.328923,248.374401 138.319093,245.872819 139.28242,243.658215 C139.616635,242.88933 139.523252,242.21791 138.633649,242.033811 C137.744046,241.849712 137.47864,242.439912 137.390171,243.257529 C136.945707,246.650083 136.196602,249.985641 135.153877,253.215125 C134.95728,253.864887 134.819662,254.612112 135.586391,254.747479 C136.962572,254.980311 138.437052,255.483876 139.975425,253.767422 L140,253.734934 Z M177.968441,246.281088 C178.135441,245.503099 177.61774,245.174968 176.933038,245.037364 C176.086902,244.868006 175.752901,245.286109 175.741768,246.053513 C175.738987,249.9171 175.177049,253.76195 174.071764,257.479888 C173.732196,258.538376 174.661832,258.818875 175.513534,258.961771 C176.070202,259.057035 176.693671,259.02528 176.665837,258.257877 C176.52667,254.2515 177.306006,250.298049 177.940607,246.32872 L177.968441,246.281088 Z M221.908993,257.018349 C221.047155,257.998048 220.106969,259.985597 219.143739,257.665851 C218.503353,256.231396 218.604107,254.472961 219.401829,253.16149 C219.641485,252.795511 220.429582,252.570292 219.627658,252.0354 C218.627558,251.393528 218.669037,250.216764 218.410947,249.17513 C218.277293,248.612085 218.166683,247.942061 217.599806,248.003996 C216.793273,248.094084 217.023711,248.949912 217.051364,249.54674 C217.194235,252.609706 217.996159,255.65578 217.148147,258.741267 C217.107123,259.098683 217.220466,259.456574 217.447717,259.687183 C218.576862,260.368468 219.69679,259.766009 220.8075,259.484487 C221.784556,259.287421 222.226997,258.549832 221.885949,257.069023 L221.908993,257.018349 Z M244.97808,257.858189 C245.774582,259.733798 246.917151,260.230947 248.240993,259.90893 C249.427506,259.620809 249.823011,258.485275 249.954846,257.293247 C250.256968,254.547628 249.021016,252.705916 246.906165,251.163624 C245.66472,250.259717 243.703676,249.293665 245.730637,247 C244.011291,247.259873 244.011291,248.389758 244.000305,249.525292 C243.972839,252.214417 245.807541,253.688916 247.515901,255.248156 C248.554101,256.197259 249.301165,257.344092 248.240993,258.63781 C247.180821,259.931527 246.356853,258.372287 244.950614,257.909034 L244.97808,257.858189 Z M226.173112,252.976024 C225.83278,253.768075 225.990247,254.624783 226.68107,254.818755 C228.712902,255.416834 229.551033,256.650709 229.454521,258.908323 C229.398646,260.217632 230.587268,260.066765 231.364444,259.872793 C232.405758,259.608776 231.907959,258.795173 231.674298,258.159377 C230.902202,256.004137 230.150424,253.81118 229.327532,251.666716 C228.916086,250.589096 228.819574,248.530842 227.40745,249.096592 C225.802303,249.743164 227.757941,250.901606 227.813817,251.914569 C227.854453,252.64735 228.773857,253.493282 227.940806,254.069809 C227.107755,254.646336 226.726786,253.460954 226.147714,253.024517 L226.173112,252.976024 Z" id="Shadow"></path>
            </g>
        </g>
    </g>
</svg>