<svg xmlns="http://www.w3.org/2000/svg" viewBox="0 0 358.59 65.67"><defs><style>.cls-1{fill:#58563a;}.cls-2{fill:#cbdb2a;}</style></defs><title>Asset 1</title><g id="Layer_2" data-name="Layer 2"><g id="Layer_1-2" data-name="Layer 1"><path class="cls-1" d="M31.17,65.67C11.09,65.67,0,52.46,0,32.93S12,0,31.54,0A39.23,39.23,0,0,1,50.89,4.69L48.78,18.35c-4.77-3-10.36-5.41-16.87-5.41C21,12.94,15.68,21,15.68,32.84S21.18,53.1,32.09,53.1a16.83,16.83,0,0,0,8.53-2V39.81h-11L27.78,28.16h26.5V59a41.69,41.69,0,0,1-23.11,6.7"/><path class="cls-1" d="M83.89,65.21a52,52,0,0,1-22.1-4.77l2.29-13.39c6.51,3.49,13.75,5.87,20.08,5.87,4.49,0,7.61-1.93,7.61-5.68,0-3.58-1.83-5.23-10.73-8.62-12.65-4.86-18.15-9-18.15-19.44C62.89,7,72.42.47,84.53.47A40.19,40.19,0,0,1,103.6,4.69l-2.38,13.2c-5.69-3.3-11.65-5.13-16.51-5.13s-7.06,2-7.06,5c0,3.21,1.74,4.77,9.63,7.79,13.75,5.05,19.25,9.82,19.25,19.9,0,13.76-10.08,19.81-22.64,19.81"/><path class="cls-1" d="M150.11,65.2A52,52,0,0,1,128,60.44l2.29-13.39c6.51,3.49,13.76,5.87,20.08,5.87,4.49,0,7.61-1.93,7.61-5.69,0-3.57-1.83-5.22-10.73-8.61-12.65-4.86-18.15-9-18.15-19.44C129.11,7,138.64.47,150.75.47a40.19,40.19,0,0,1,19.07,4.22l-2.39,13.2c-5.68-3.3-11.64-5.13-16.5-5.13s-7.06,2-7.06,5c0,3.21,1.74,4.77,9.63,7.79,13.75,5.05,19.25,9.81,19.25,19.9,0,13.76-10.08,19.8-22.64,19.8"/><polygon class="cls-1" points="218 64.47 218 38.62 196.08 38.62 196.08 64.47 180.4 64.47 180.4 1.2 196.08 1.2 196.08 24.86 218 24.86 218 1.2 233.68 1.2 233.68 64.47 218 64.47"/><path class="cls-1" d="M333.1,43.47h-4v21H313.39V1.2h20.35c15.4,0,24.85,6.88,24.85,20.64,0,14.3-10.18,21.63-25.49,21.63M332.83,13h-3.95V31.65h3.67c7,0,10.82-3,10.82-9.54,0-6.05-3.58-9.08-10.54-9.08"/><path class="cls-2" d="M260.6,3.89a9.7,9.7,0,0,1,3.21-2.61,2.66,2.66,0,0,1,.76-.22V0c-.17,0-.49.07-.7.11h0c-7.13,1.63-22.51,8.43-22.51,32.72s15.38,31.08,22.51,32.71h0c.21,0,.53.1.7.11V64.61a2.66,2.66,0,0,1-.76-.22,9.7,9.7,0,0,1-3.21-2.61c-4.48-5.38-5.77-15.49-5.64-28.94S256.12,9.27,260.6,3.89Z"/><path class="cls-2" d="M286,3.89a9.68,9.68,0,0,0-3.2-2.61,2.66,2.66,0,0,0-.76-.22V0c.17,0,.49.07.7.11h0c7.13,1.63,22.51,8.43,22.51,32.72S289.83,63.92,282.7,65.55h0c-.21,0-.53.1-.7.11V64.61a2.66,2.66,0,0,0,.76-.22,9.68,9.68,0,0,0,3.2-2.61c4.49-5.38,5.77-15.49,5.65-28.94S290.45,9.27,286,3.89Z"/></g></g></svg>