<svg xmlns="http://www.w3.org/2000/svg" viewBox="0 0 282.09 75.69"><defs><style>.cls-1{fill:#010101;}.cls-2{fill:#fff;}.cls-3{fill:#231f20;}</style></defs><title>Asset 1</title><g id="Layer_2" data-name="Layer 2"><g id="Layer_1-2" data-name="Layer 1"><rect class="cls-1" x="24.89" y="30.02" width="228.3" height="45.66"/><path class="cls-2" d="M49.68,40.94q2.64.29,2.61,2.4l0,7.39h5.47l0-8.63c.07-1,1-1.36,2.68-1.16s2.57,1,2.61,2.4l-.08,19.09q-.21,1.6-2.76,1.35t-2.49-2.52l0-7.38H52.22l-.08,8.55c-.09,1.07-1,1.56-2.65,1.46S47,63,47,61.55l.1-19.45C47.05,41.13,47.92,40.74,49.68,40.94Z"/><path class="cls-2" d="M81.1,48.91c1.62.33,2.44,1.13,2.44,2.37l0,21.26c0,1-.85,1.48-2.52,1.3A2.61,2.61,0,0,1,78.43,71l-.07-7.35H77.09c-1.32,0-6.07-.32-7.4-1a6,6,0,0,1-2.93-3.21l0-8.86c-.43-1.1.11-1.7,1.65-1.76s2.49.37,2.88,1.33L71.13,59a2,2,0,0,0,.9,1.23,35.46,35.46,0,0,0,4.39.28h2.06l0-10.66C78.6,48.88,79.48,48.57,81.1,48.91Z"/><path class="cls-2" d="M87.69,62.56q-2-1.05-2-3.93l0-8.14c-.09-1.4.73-2,2.46-1.73s2.59,1,2.6,2.38v8a1.22,1.22,0,0,0,.4,1,2,2,0,0,0,1.37.39h3.57l-.09-10.23c.07-1.24.94-1.71,2.62-1.41s2.49,1.1,2.48,2.35V63.6H92.43A10.06,10.06,0,0,1,87.69,62.56Z"/><path class="cls-2" d="M120.24,62.09c.07,1.2-.73,1.73-2.39,1.59s-2.57-.85-2.71-2.1L115,52.94a1,1,0,0,0-.28-.75.82.82,0,0,0-.64-.26h-4l-.17,10.37c-.08,1.06-.92,1.53-2.49,1.41a2.4,2.4,0,0,1-2.5-2.49L105,48.83h9.91a6.52,6.52,0,0,1,3.46,1,3,3,0,0,1,1.68,2.45Z"/><path class="cls-2" d="M139.35,63.6h-8.8c-2.59,0-4.51-.64-5.77-1.94a5.56,5.56,0,0,1-1.72-3.78,8.44,8.44,0,0,1,.13-3.57,18.24,18.24,0,0,1,1.4-3.68A2.77,2.77,0,0,1,126,49.34a5.62,5.62,0,0,1,2.53-.51h5.89l-.2-5.69q-.28-2.23,2.34-2c1.75.17,2.66,1.05,2.72,2.63ZM134.5,51.93h-2.22a9.73,9.73,0,0,0-2.41.26,1.76,1.76,0,0,0-.74.82c-.42,1.1-.79,2.19-1.11,3.24a3.54,3.54,0,0,0,0,2.92,2,2,0,0,0,.83.94,3.22,3.22,0,0,0,1.53.39h4.12Z"/><path class="cls-2" d="M233.87,63.6h-8.8c-2.59,0-4.51-.64-5.77-1.94a5.56,5.56,0,0,1-1.72-3.78,8.6,8.6,0,0,1,.13-3.57,18.21,18.21,0,0,1,1.41-3.68,2.73,2.73,0,0,1,1.38-1.29,5.57,5.57,0,0,1,2.52-.51h5.89l-.19-5.69c-.19-1.49.58-2.15,2.33-2s2.66,1.05,2.73,2.63ZM229,51.93H226.8a9.59,9.59,0,0,0-2.4.26,1.73,1.73,0,0,0-.75.82c-.41,1.1-.78,2.19-1.11,3.24a3.5,3.5,0,0,0,0,2.92,1.93,1.93,0,0,0,.83.94,3.16,3.16,0,0,0,1.52.39H229Z"/><path class="cls-2" d="M156.69,48.83V60.5h.79a2.09,2.09,0,0,1,2.08,1.55c.38,1,.06,1.55-1,1.55h-9.83c-2.58,0-4.4-.64-5.46-1.94a6.63,6.63,0,0,1-1.45-4,11,11,0,0,1,.09-3.39c.29-1.34.59-2.5.87-3.46a2.77,2.77,0,0,1,1.61-1.44,7.54,7.54,0,0,1,3-.58Zm-5.05,3.1h-2.06a4.06,4.06,0,0,0-1.44.26,1.35,1.35,0,0,0-.64.82c-.31,1.06-.57,2.14-.8,3.24a7,7,0,0,0,0,2.88c.1.48.07.84.3,1a1.72,1.72,0,0,0,1.15.32h3.49Z"/><path class="cls-2" d="M164,63.63c-1.72-.16-2.53-.94-2.43-2.33l.13-8.58c0-.09-.06-.19-.26-.29a2.77,2.77,0,0,0-.7-.21,2.45,2.45,0,0,1-1.24-1.41c-.17-.55.09-.92.76-1.11a14.25,14.25,0,0,1,1.78-.47,5.71,5.71,0,0,0,1.57-.61,2.51,2.51,0,0,1,1.89.18,1.72,1.72,0,0,1,1.21,1.69l0,11.81C166.65,63.36,165.77,63.8,164,63.63ZM166,42.93a3.46,3.46,0,0,1,1.39,1.72,1.77,1.77,0,0,1-.2,1.73,1.94,1.94,0,0,1-1.65.73,4,4,0,0,1-2.2-.73,3.44,3.44,0,0,1-1.42-1.73,1.71,1.71,0,0,1,.23-1.72,2.05,2.05,0,0,1,1.7-.72A3.65,3.65,0,0,1,166,42.93Z"/><path class="cls-2" d="M180.38,41.34a2.11,2.11,0,0,1,2.09,1.54c.38,1,.07,1.56-.94,1.56h-5.94a1.12,1.12,0,0,0-.88.39,1.89,1.89,0,0,0-.35,1.19v13a1.24,1.24,0,0,0,.54,1,2.41,2.41,0,0,0,1.42.39h5.07a2.1,2.1,0,0,1,2.08,1.55c.39,1,.07,1.55-.93,1.55h-6.26a8.13,8.13,0,0,1-4.9-1.55,4.74,4.74,0,0,1-2.2-3.71l0-12.75a3.88,3.88,0,0,1,1.27-3.32,5.13,5.13,0,0,1,3.1-.93Z"/><path class="cls-2" d="M200.27,48.83l.06,11.67h.79a2.09,2.09,0,0,1,2.08,1.55c.39,1,.08,1.55-.93,1.55h-9.83c-2.59,0-4.41-.64-5.48-1.94a6.46,6.46,0,0,1-1.46-4,12,12,0,0,1,.08-3.39c.29-1.34.57-2.5.85-3.46A2.71,2.71,0,0,1,188,49.41a7.38,7.38,0,0,1,3-.58Zm-5,3.1h-2.06a3.9,3.9,0,0,0-1.41.26,1.32,1.32,0,0,0-.64.82c-.3,1.06-.55,2.14-.78,3.24a9,9,0,0,0,0,2.88c.06.49.07.84.31,1a1.7,1.7,0,0,0,1.15.32h3.49Z"/><path class="cls-2" d="M205.8,49.91a5.1,5.1,0,0,1,3.32-1.08h4.43a2.12,2.12,0,0,1,2.1,1.55c.39,1,.09,1.55-.92,1.55h-3.64a1.34,1.34,0,0,0-1.2.61,1.79,1.79,0,0,0-.32,1.26l-.06,8.64c0,.92-.87,1.33-2.55,1.24s-2.49-.8-2.45-2.1l0-8.28A4.1,4.1,0,0,1,205.8,49.91Z"/><path class="cls-3" d="M5.22,75.69V39.59A34.15,34.15,0,0,1,39.06,5.21H243a34.14,34.14,0,0,1,33.84,34.38v36.1h5.22V39.59C282.05,17.76,264.64,0,243,0h-204C17.46,0,0,17.76,0,39.59v36.1Z"/></g></g></svg>