<svg xmlns="http://www.w3.org/2000/svg" viewBox="0 0 510.52 623.62"><defs><style>.cls-1{fill:none;}</style></defs><title>Asset 1</title><g id="Layer_2" data-name="Layer 2"><g id="图层_1" data-name="图层 1"><g id="text"><path class="cls-1" d="M465.58,579.4a16,16,0,1,0,16,16A16.12,16.12,0,0,0,465.58,579.4Z"/><path class="cls-1" d="M334.28,601.91c-1.44.72-2.16,2.87-2.16,4.38s.72,3.6,2.16,4.39c.72,1.44,2.88,2.16,4.39,2.16s3.59-.72,4.38-2.16l2.88-2.16L336.51,599Z"/><polygon points="277.05 580.91 282.8 580.91 282.8 609.89 277.05 609.89 277.05 621.47 300.2 621.47 300.2 609.89 294.45 609.89 294.45 580.91 300.2 580.91 300.2 569.26 277.05 569.26 277.05 580.91"/><polygon points="105.12 580.91 120.37 580.91 120.37 621.47 132.01 621.47 132.01 580.91 147.19 580.91 147.19 569.26 105.12 569.26 105.12 580.91"/><polygon points="69.6 580.91 75.43 580.91 75.43 609.89 69.6 609.89 69.6 621.47 92.83 621.47 92.83 609.89 87 609.89 87 580.91 92.83 580.91 92.83 569.26 69.6 569.26 69.6 580.91"/><polygon points="26.1 592.49 13.09 569.26 0 569.26 0 621.47 11.58 621.47 11.58 590.33 26.1 616.43 40.63 590.33 40.63 621.47 52.2 621.47 52.2 569.26 39.19 569.26 26.1 592.49"/><path d="M179.83,590.33c-8-2.16-12.29-2.88-12.29-6.54,0-2.88,2.15-5.11,8-5.11,4.38,0,9.42,2.16,13.08,5.11l6.55-8.7a35.36,35.36,0,0,0-19.56-6.55c-12.3,0-20.28,8-20.28,16,0,10.85,10.86,15.24,20.28,16.68,5.82.72,10.86,2.87,10.86,6.54,0,2.88-2.88,4.39-8.7,4.39s-12.3-2.88-17.4-7.26l-8,8.7c8,6.54,16,9.42,24.67,9.42,18.84,0,21.78-11.58,21.78-15.25C199.39,596.8,190.69,592.49,179.83,590.33Z"/><path d="M247.28,599.75a11.58,11.58,0,0,1-23.16,0V568.54H212.55v31.21a23.23,23.23,0,1,0,46.45,0V568.54H247.42v31.21Z"/><path d="M361.89,592.49l-9.42,9.42-16.68-16.68a3.74,3.74,0,0,1-1.44-2.88,2.87,2.87,0,0,1,1.44-2.88,3.73,3.73,0,0,1,2.88-1.43,2.87,2.87,0,0,1,2.87,1.43,3.74,3.74,0,0,1,1.44,2.88v2.16h8.7v-2.16a13,13,0,1,0-22.43,9.42l.72.72-2.88,2.87a14.86,14.86,0,0,0-4.39,10.86,14.58,14.58,0,0,0,4.39,10.86A14.88,14.88,0,0,0,338,621.46a14.59,14.59,0,0,0,10.86-4.38l2.87-2.88,9.42,9.42,6.54-6.54-9.41-9.42,9.41-9.42ZM343.7,611.33c-.72.72-2.88,2.15-4.39,2.15s-3.59-.72-4.38-2.15c-.72-.72-2.16-2.88-2.16-4.39s.72-3.59,2.16-4.39l2.87-2.87,9.42,9.42Z"/><rect x="498.94" y="609.89" width="11.58" height="11.58"/><path d="M465.58,567.82a27.54,27.54,0,1,0,27.54,27.54A27.5,27.5,0,0,0,465.58,567.82Zm0,43.51a16,16,0,1,1,16-16A15.66,15.66,0,0,1,465.58,611.33Z"/><path d="M412.58,579.4c4.39,0,8,1.44,10.14,3.6l8-8a28.93,28.93,0,0,0-18.83-7.2,26.52,26.52,0,0,0-19.56,8,27.83,27.83,0,0,0-8,19.55,26.51,26.51,0,0,0,8,19.56,27.84,27.84,0,0,0,19.56,8,28.62,28.62,0,0,0,18.83-7.26l-7.91-7.91a17.35,17.35,0,0,1-10.13,3.6c-4.39,0-8-1.44-11.58-5.11A17.19,17.19,0,0,1,396,594.64c0-4.31,1.44-8,5.11-11.57C404.67,581.63,408.27,579.4,412.58,579.4Z"/></g><g id="symbol"><path class="cls-1" d="M319.83,200.9H173.29v-37L90.6,246.63l82.69,82.69v-37H319.76v37l82.69-82.69-82.69-82.69v37Zm0,64.57H173.29v-37H319.76v37Z"/><polygon class="cls-1" points="246.56 91.39 173.29 164.66 319.83 164.66 246.56 91.39"/><polygon class="cls-1" points="246.56 403.24 319.83 329.97 173.29 329.97 246.56 403.24"/><rect x="173.29" y="229.16" width="146.47" height="36.96"/><path d="M467,182.06l-39.19,39.12L272.66,65.29,311.85,26.1,285.75,0,246.56,39.19,207.37,0l-26.1,26.1,39.19,39.19L64.57,221.18,26.1,182,0,208.16l39.19,39.19L0,286.46l26.1,26.11,39.19-39.19L221.18,429.27,182,468.45l26.1,26.1,39.19-39.18,39.18,39.18,26.11-26.1-39.19-39.18L429.27,273.38l39.18,39.19,26.1-26.11-39.18-39.18,39.18-39.19ZM319.83,330l-73.27,73.27L173.29,330,90.6,247.28l82.69-82.69,73.27-73.27,73.27,73.27h0l82.69,82.69Z"/><rect x="173.29" y="293.73" width="146.47" height="36.96"/><polygon points="319.83 200.9 319.83 164.66 319.83 164.66 173.29 164.66 173.29 200.9 319.83 200.9"/></g></g></g></svg>