<?xml version="1.0" encoding="utf-8"?>
<!-- Generator: Adobe Illustrator 24.1.0, SVG Export Plug-In . SVG Version: 6.00 Build 0)  -->
<svg version="1.1" id="svg2" xmlns:svg="http://www.w3.org/2000/svg"
	 xmlns="http://www.w3.org/2000/svg" xmlns:xlink="http://www.w3.org/1999/xlink" x="0px" y="0px" viewBox="0 0 599.7 53.2"
	 style="enable-background:new 0 0 599.7 53.2;" xml:space="preserve">
<style type="text/css">
	.st0{fill:none;}
</style>
<path class="st0" d="M300.1,26.7c0-1-0.8-1.8-1.8-1.8c-1,0-1.8,0.8-1.8,1.8c0,1,0.9,1.8,1.8,1.8C299.3,28.4,300.1,27.6,300.1,26.7z"
	/>
<path class="st0" d="M294.2,27.2h-1.5v4.2c0,0.5,0.5,1,1,1h9.4c0.6,0,1-0.5,1-1v-9.7c0-0.5-0.5-1-1-1h-9.4c-0.5,0-1,0.5-1,1v4.4h1.5
	c0.3-2.1,2.1-3.6,4.2-3.6c2.3,0,4.2,1.9,4.2,4.2c0,2.2-1.9,4.1-4.2,4.1C296.2,30.8,294.4,29.3,294.2,27.2z"/>
<path class="st0" d="M44.4,6.2c-2.9-1.4-7.2-2.1-12.9-2.1c-3.1,0-5.1,0.2-5.8,0.6c-0.8,0.4-1.2,1.1-1.2,2.2v39.6
	c0,1.2,0.3,2,0.9,2.5c0.6,0.5,1.6,0.8,3,0.8h5h0c4.2,0,7.9-0.8,11.2-2.4c3.3-1.6,5.6-3.9,7.1-6.7s2.2-7.2,2.2-13.1
	c0-6.2-0.9-11-2.6-14.3C49.7,10,47.3,7.6,44.4,6.2z"/>
<polygon class="st0" points="82.3,33 103.7,33 93.1,13.4 "/>
<path class="st0" d="M306,16.9h-15.3c-1.1,0-2,0.9-2,2v7.2h1.8v-5.8c0-1,0.8-1.8,1.8-1.8h12.2c1,0,1.8,0.8,1.8,1.8v12.5
	c0,1-0.8,1.8-1.8,1.8h-12.2c-1,0-1.8-0.8-1.8-1.8v-5.5h-1.2c-0.2,0-0.3,0-0.5,0v7c0,1.1,0.9,2,2,2H306c1.1,0,2-0.9,2-2V18.9
	C308,17.8,307.1,16.9,306,16.9z"/>
<path class="st0" d="M310.2,20.6v11.5c1.1,0,1.1-0.2,1.1-0.8v-10C311.3,20.7,311.4,20.6,310.2,20.6z"/>
<path d="M588.1,23.6c-2.5-0.8-6.9-1.8-13.3-2.8c-5.5-0.9-9.3-1.7-11.5-2.5c-2.2-0.8-3.8-1.8-4.7-2.9c-1-1.1-1.5-2.4-1.5-3.8
	c0-2.3,1.3-4.3,3.7-6c2.5-1.7,5.7-2.5,9.7-2.5c4.6,0,8.9,1.3,12.7,3.8c3.8,2.5,6.8,6.3,8.9,11.4h4l-0.4-17.6h-3.2l-4.2,4.6
	C583,1.7,577.1-0.1,570.5,0c-6.8,0-12.2,1.5-16.2,4.4c-4,2.9-6.1,6.7-6.1,11.3c0,2.7,0.7,5.1,2.2,7c1.5,1.9,3.7,3.5,6.9,4.9
	c3.1,1.3,8.3,2.6,15.6,3.8c5.4,0.9,8.8,1.5,10.2,1.9c2.5,0.7,4.3,1.8,5.5,3c1.2,1.2,1.8,2.7,1.8,4.6c0,2.6-1.4,4.7-4.1,6.5
	c-2.7,1.7-6.5,2.6-11.4,2.6c-11.9,0-19.8-5.4-23.7-16.2h-3.9v18.8h3.2l5.2-5c5.7,3.7,12,5.5,18.9,5.5c7.5,0,13.7-1.7,18.8-5.1
	c4.2-2.8,6.3-6.5,6.3-11.2c0-3.1-1-5.8-2.9-8C594.9,26.7,592,24.9,588.1,23.6z"/>
<path d="M66.4,40.5c2.6-3.9,3.9-8.4,3.9-13.6c0-5-1.4-9.6-4.3-13.6c-2.9-4-6.8-7.1-11.8-9.3c-5-2.2-10.9-3.3-17.5-3.3H0v3.3h5
	c1.7,0,3,0.3,3.7,0.7c0.7,0.5,1.1,1.3,1.1,2.3v39.4c0,1-0.3,1.8-1.1,2.4c-0.7,0.6-1.7,0.9-3.1,0.9H0v3.3h38c5.9,0,11.5-1.1,16.7-3.4
	C59.9,47.4,63.8,44.3,66.4,40.5z M51.7,40.7c-1.4,2.8-3.8,5-7.1,6.7c-3.3,1.6-7,2.4-11.2,2.4h0h-5c-1.4,0-2.4-0.3-3-0.8
	c-0.6-0.5-0.9-1.4-0.9-2.5V6.9c0-1.1,0.4-1.8,1.2-2.2c0.8-0.4,2.7-0.6,5.8-0.6c5.7,0,9.9,0.7,12.9,2.1c2.9,1.4,5.2,3.8,6.9,7.1
	c1.7,3.3,2.6,8.1,2.6,14.3C53.9,33.5,53.2,37.9,51.7,40.7z"/>
<path d="M125.5,46.5L100.4,0.4v0h-5.1l-24,43.9c-1,1.7-2.3,3.1-4.1,4.3c-1.2,0.8-2.7,1.2-4.3,1.2h-1.4v3.3h25.4v-3.3h-2.1
	c-2.5,0-4.5-0.5-5.9-1.4c-1.4-0.9-2.2-2.2-2.2-3.7c0-0.9,0.5-2.2,1.5-4l2.4-4.3h25l5.2,9.5c0.4,0.7,0.5,1.3,0.5,1.8
	c0,0.7-0.4,1.2-1.3,1.6c-0.9,0.4-2.5,0.6-4.8,0.6h-2.9v3.3h28.7c0,0,0-2.9,0-3.3c-1.2,0-2.3-0.3-3.1-0.7
	C127,48.7,126.2,47.8,125.5,46.5z M82.3,33l10.7-19.5L103.7,33H82.3z"/>
<path d="M155.1,49c-0.7-0.4-1-1.1-1-2V6.5c0-0.8,0.3-1.4,0.9-1.8c0.6-0.4,1.6-0.6,2.9-0.6h6.3V0.8h-34.8l0,3.3h6.1
	c1.5,0,2.6,0.2,3.3,0.7c0.7,0.5,1,1.2,1,2.2v40c0,0.9-0.4,1.6-1.1,2.1c-0.8,0.5-2.1,0.7-3.9,0.7h-1.5l0,3.3h31v-3.3h-5.6
	C157.1,49.8,155.9,49.5,155.1,49z"/>
<path d="M217.7,45.8c-3.2,2.7-6.6,4-10.2,4h-9.8c-2.4,0-3.9-0.2-4.6-0.7c-0.7-0.4-1-1.4-1-3V7.2c0-1.1,0.3-1.9,1-2.4
	c0.7-0.5,1.9-0.7,3.5-0.7h5.9V0.8h-34.9v3.3l5.4,0c1.7,0,2.9,0.2,3.6,0.7c0.7,0.4,1,1.1,1,2.1v40c0,0.9-0.3,1.7-1,2.2
	s-1.7,0.8-3,0.8h-6v3.3h59.9l1.5-20.1H225C223.3,38.9,220.9,43.1,217.7,45.8z"/>
<path d="M283.3,0.7H257v3.3h2.1c2.2,0,3.8,0.3,4.9,1c1.1,0.7,1.6,1.6,1.6,2.8c0,1.1-0.4,2.2-1.3,3.5l-10,15.2L240.2,7.8
	c-0.6-0.7-0.8-1.4-0.8-2c0-0.5,0.3-0.9,1-1.3c0.7-0.3,1.8-0.5,3.5-0.5h4.7V0.8h-33.9l0.1,3.3h1.5c1.9,0,3.6,0.3,4.9,0.9
	c1.3,0.6,2.5,1.6,3.7,3.2L243,32.3v14.6c0,1-0.3,1.7-1,2.2c-0.6,0.5-1.8,0.7-3.4,0.7h-7v3.3H269v-3.3h-7c-1.5,0-2.6-0.2-3.3-0.7
	c-0.7-0.5-1-1.2-1-2.2V30.4l13.7-20.7c1.3-1.9,2.9-3.4,4.7-4.3s4.3-1.3,7.3-1.4V0.7z"/>
<path d="M364,4.1c3.3,0.2,5.8,1,7.6,2.4c1.8,1.5,2.7,3.4,2.7,5.8v24.4L337.4,0.8h-21.1l0,3.3h3c3.2,0,5.8,1,7.9,3.1v33.8
	c0,2.6-0.9,4.7-2.8,6.4c-1.8,1.7-4.1,2.5-6.8,2.5h-1.9v3.3h27.5v-3.3h-1.1c-2.9,0-5.3-0.7-7.3-2.2c-1.9-1.5-2.9-3.9-2.9-7.2V11.8
	l42,41.4h5.3V12.3c0-2.6,0.7-4.5,2.3-5.8c1.5-1.3,4-2.1,7.5-2.4V0.8H364V4.1z"/>
<path d="M443.7,45.7c-3.5,2.8-8.1,4.1-13.8,4.1h-8.2c-1.9,0-3.3-0.3-4.2-0.8c-0.7-0.4-1-1-1-1.8V27.9h2.6c4.1,0,7.1,0.8,9.2,2.5
	c2,1.7,3.2,4.5,3.5,8.5h4.2V14.5h-4.1c-0.4,3.6-1.6,6.2-3.6,7.8c-2,1.6-4.8,2.4-8.5,2.4h-3.2V6.6c0-0.8,0.3-1.4,1-1.8
	c0.6-0.4,1.7-0.7,3.1-0.7h9.3c3.8,0,6.8,0.5,9.1,1.4c2.3,0.9,4.2,2.4,5.6,4.3c1.4,1.9,2.6,5,3.6,9.3h4l-1.3-18.3h-59.3h0v3.4h5.4
	c1.9,0,3.2,0.2,3.9,0.6c0.7,0.4,1.1,1,1.1,1.9v40.2c0,0.9-0.4,1.6-1.1,2.2c-0.7,0.5-1.8,0.8-3.1,0.8h-6.1v3.3h61.9l1-20h-4.1
	C449.5,38.7,447.3,42.9,443.7,45.7z"/>
<path d="M551.2,0.4h-21.9v3.3h1.9c1.6,0,2.9,0.4,3.9,1.1c1,0.8,1.5,1.9,1.5,3.3c0,0.8-0.2,1.6-0.5,2.4l-11.1,26.9L511.6,6.9
	c-0.1-0.3-0.2-0.7-0.2-1c0-0.7,0.4-1.2,1.1-1.6c0.7-0.4,2.2-0.6,4.3-0.6h2.9V0.4h-31.1v3.3h3.3c1.6,0,2.9,0.2,3.9,0.7
	c0.7,0.3,1.3,1,1.8,1.9l1.9,4.5l-11.6,26.6L474.4,6.9c-0.2-0.5-0.3-1-0.3-1.4c0-0.6,0.3-1,0.9-1.3c0.6-0.3,1.7-0.5,3.3-0.5h2.5V0.5
	h-27.1v3.3h2.1c1.1,0,2,0.2,2.7,0.6c0.7,0.4,1.3,1.1,1.7,2.1l20.5,46.7h5.7l15.9-36.3L518,53.1h5.6l18.6-44.4
	c0.7-1.6,1.7-2.9,3.2-3.7c1.5-0.8,3.4-1.3,5.8-1.3V0.4z"/>
<path d="M311.6,19.5l-1.4,0V19c0-2.4-1.9-4.3-4.3-4.3h-15.1c-2.4,0-4.3,1.9-4.3,4.3v7.5c-1.9,0.8-3.2,2.7-3.2,4.9v7.1
	c0,0.4-0.5,0.4-0.5,0.8c0,0.3,0.6,0.5,0.9,0.5c0.3,0,1.1,0,1.1-0.5c0-0.3-0.5-0.4-0.5-0.7V32c0-1.8,0.9-3.3,2.2-4.1v6.3
	c0,2.4,1.9,4.3,4.3,4.3h15.1c2.4,0,4.3-1.9,4.3-4.3v-0.9h1.4c0.7,0,1.3-0.6,1.3-1.3V20.8C312.9,20.2,312.3,19.5,311.6,19.5z
	 M308,34.2c0,1.1-0.9,2-2,2h-15.3c-1.1,0-2-0.9-2-2v-7c0.2,0,0.4,0,0.5,0h1.2v5.5c0,1,0.8,1.8,1.8,1.8h12.2c1,0,1.8-0.8,1.8-1.8
	V20.3c0-1-0.8-1.8-1.8-1.8h-12.2c-1,0-1.8,0.8-1.8,1.8v5.8h-1.8v-7.2c0-1.1,0.9-2,2-2H306c1.1,0,2,0.9,2,2V34.2z M298.4,30.8
	c2.3,0,4.2-1.9,4.2-4.1c0-2.3-1.9-4.2-4.2-4.2c-2.1,0-3.9,1.6-4.2,3.6h-1.5v-4.4c0-0.5,0.5-1,1-1h9.4c0.6,0,1,0.5,1,1v9.7
	c0,0.5-0.5,1-1,1h-9.4c-0.5,0-1-0.5-1-1v-4.2h1.5C294.4,29.3,296.2,30.8,298.4,30.8z M296.5,26.7c0-1,0.8-1.8,1.8-1.8
	c1,0,1.8,0.9,1.8,1.8c0,0.9-0.8,1.8-1.8,1.8C297.4,28.4,296.5,27.6,296.5,26.7z M311.3,21.3v10c0,0.6,0,0.8-1.1,0.8V20.6
	C311.4,20.6,311.3,20.7,311.3,21.3z"/>
<path d="M283.7,40.1c-0.5-0.1-0.3,0.9-0.6,1.6v0.7h1.2v-0.8C284.1,41.1,284,40.1,283.7,40.1z"/>
<path d="M309.4,39.7c-0.2-0.3-0.5-0.5-0.8-0.5c-1.3,0-0.9,1.2-1.6,1.2h-17.4c-0.5-0.5-0.6-1.2-1.5-1.2c-1.4,0-0.3,1.8-1.8,2.1v1
	l0.2,0.2h23.7c0.2-0.1,0.2-0.2,0.2-0.2c-0.1-0.2,0-0.7-0.2-0.9C309.6,40.9,309.5,40.3,309.4,39.7z"/>
</svg>
