<?xml version="1.0" encoding="utf-8"?>
<!-- Generator: Adobe Illustrator 24.1.0, SVG Export Plug-In . SVG Version: 6.00 Build 0)  -->
<svg version="1.1" id="Layer_1" xmlns="http://www.w3.org/2000/svg" xmlns:xlink="http://www.w3.org/1999/xlink" x="0px" y="0px"
	 viewBox="0 0 535.1 298.6" style="enable-background:new 0 0 535.1 298.6;" xml:space="preserve">
<style type="text/css">
	.st0{fill:#010101;}
</style>
<path class="st0" d="M493.4,236.2c0,11.5-9.4,20.8-20.9,20.8h-20.9V41.6h20.9c11.5,0,20.9,9.3,20.9,20.8V236.2z M472.5,0h-58.8
	c-2.1,0-3.8,1.7-3.8,3.8v291c0,2.1,1.7,3.8,3.8,3.8h58.8c34.5,0,62.6-28,62.6-62.4V62.3C535.1,28,507,0,472.5,0z M356.7,236.2
	c0,11.5-9.4,20.8-20.9,20.8s-20.9-9.3-20.9-20.8V62.3c0-11.5,9.4-20.8,20.9-20.8s20.9,9.3,20.9,20.8V236.2z M335.9,0
	c-34.5,0-62.6,28-62.6,62.3v173.9c0,34.4,28.1,62.4,62.6,62.4s62.6-28,62.6-62.4V62.3C398.5,28,370.4,0,335.9,0z M62.6,0
	C28.1,0,0,28,0,62.3v173.9c0,34.4,28.1,62.4,62.6,62.4c14.7,0,28.2-5.1,38.9-13.5l4.8,13.5h15.2c2.1,0,3.8-1.7,3.8-3.8V124.7
	c0-2.1-1.7-3.8-3.8-3.8H64.6c-2.1,0-3.8,1.7-3.8,3.8v34c0,2.1,1.7,3.8,3.8,3.8h19v73.7c0,11.5-9.4,20.8-20.9,20.8
	s-20.9-9.3-20.9-20.8V62.3c0-11.5,9.4-20.8,20.9-20.8s20.9,9.3,20.9,20.8v13.3c0,2.1,1.7,3.8,3.8,3.8h34.1c2.1,0,3.8-1.7,3.8-3.8
	V62.3C125.2,28,97.1,0,62.6,0z M220.1,236.2c0,11.5-9.4,20.8-20.9,20.8s-20.9-9.3-20.9-20.8V62.3c0-11.5,9.4-20.8,20.9-20.8
	s20.9,9.3,20.9,20.8V236.2z M199.2,0c-34.5,0-62.6,28-62.6,62.3v173.9c0,34.4,28.1,62.4,62.6,62.4s62.6-28,62.6-62.4V62.3
	C261.8,28,233.7,0,199.2,0z"/>
</svg>
