<?xml version="1.0" encoding="utf-8"?>
<!-- Generator: Adobe Illustrator 24.1.0, SVG Export Plug-In . SVG Version: 6.00 Build 0)  -->
<svg version="1.1" id="Layer_1" xmlns="http://www.w3.org/2000/svg" xmlns:xlink="http://www.w3.org/1999/xlink" x="0px" y="0px"
	 viewBox="0 0 600 89.3" style="enable-background:new 0 0 600 89.3;" xml:space="preserve">
<style type="text/css">
	.st0{fill:#010101;}
</style>
<path class="st0" d="M69.2,66.3v-2.8c4,0,4.8-1.2,4.8-2.4c0-1.6-0.5-2.8-0.8-4.1c0,0-0.8-3.2-1.6-5.6H55.9l-1.6,5.2
	c-0.5,1.2-0.8,2.4-0.8,4s1.6,2.8,4,2.8v2.8H41.8v-2.8c4.1,0,5.6-1.2,7.2-5.6l12.1-36.1c-0.5-1.6-1.6-2.8-4-2.8v-2.8H70
	c10.4,30.5,13.2,38.6,13.2,38.6c2,6.8,4,8.8,7.2,8.8v2.8H69.2L69.2,66.3z M63.5,27.3l-6,19.7H70L63.5,27.3L63.5,27.3z M246.1,71.2
	c-15.3,0-25.7-10.9-25.7-26.6c0-14.9,10.9-26.6,25.7-26.6c14.5,0,25.4,11.2,25.4,26.6C271.5,59.5,260.2,71.2,246.1,71.2L246.1,71.2z
	 M246.1,22.9C235.7,22.9,232,33,232,44.6c0,10.8,3.2,21.7,14.1,21.7c10.5,0,13.7-10.9,13.7-22.1C259.8,33.4,255.8,22.9,246.1,22.9
	L246.1,22.9z M386.5,55.9c0,0-3.6,0-6,0v17.3c0,8.8,2.4,10.8,9.2,10.8v3.2h-31V84c6.4,0,8.8-2.4,8.8-11.2V16.1
	c0-8.8-2.4-10.5-8.8-10.5V2.8H382c22.5,0,35.8,6.8,35.8,25.3C417.8,47.4,401.8,55.9,386.5,55.9L386.5,55.9z M382.4,8.4h-2v41.4h3.6
	c13.3,0,20.1-6.1,20.1-21.3C404.2,13.2,398.1,8.4,382.4,8.4L382.4,8.4z M486.6,23.3v48.2c0,10.5,2.3,12.5,8.7,12.5v3.2h-47.4V84
	c3.6,0,6.8-1.2,6.8-3.6c0-1.6-0.5-4.5-0.9-7.2l-3.6-11.7h-26.7c-0.5,1.6-5.2,14.8-5.2,18.5c0,3.2,3.6,4,6,4v3.2h-22.1V84
	c4,0,7.2-0.5,10-8.8l20.5-65.5c-1.2-2.8-2.8-3.6-5.6-4.1V2.8h18.1l21.9,68.8c1.8,7.2,4.1,10.9,7.3,12.5c4.6-1.6,5.9-3.2,5.9-12.5
	V13.7c-3.6-4.8-4.1-8.1-10.9-8.1V2.8h20.5l33.7,57.5V16.5c0-8.9-1.8-10.9-8.7-10.9V2.8H560v2.8c-2.7,0-5.5,1.2-5.5,4.1
	c0,2,0.9,4,1.8,6.4l12.8,27.7l12.3-27c2.3-3.6,2.7-5.6,2.7-7.6c0-2.4-1.8-3.6-5.5-3.6V2.8H600v2.8c-5,0-8.7,4.8-10.9,10.5
	l-16.4,33.8V72c0,9.7,2.3,12.1,8.7,12.1v3.2h-30.5v-3.2c6.4,0,9.1-2.4,9.1-12.1V53.1l-17.8-37.4c-3.2-7.2-4.6-8.8-6.4-10.1
	c-4.1,1.6-5.5,4.4-5.5,10.9v61.9c0,0,0.5,4.8,0.9,10.4l-5,0.5L486.6,23.3L486.6,23.3L486.6,23.3z M436.5,19.3l-11.4,36.6h23.3
	L436.5,19.3L436.5,19.3z M52.7,18.5h-3.2c0-7.2-3.2-10.1-9.7-10.1H21.7v31.8h11.7c6.1,0,7.2-3.2,8.1-8.5h2.8v22.5h-2.8
	c-0.8-6.1-2-8.5-8.5-8.5H21.7v27c0,10.1,2.4,11.2,8.8,11.2v3.2H0v-3.2c7.6,0,8.8-2,8.8-11.2v-59c0-5.6-2.4-8.1-8.8-8.1V2.8h41.8
	c7.2,0,8.8-0.5,10-2.8h2.8L52.7,18.5L52.7,18.5z M98.5,89.3c-5.6,0-10.1-0.8-13.3-2c-3.2-0.8-5.6-2-6.8-2.8
	c-1.6,1.6-2.8,3.6-2.8,3.6l-2.4-0.8l2-18.9l2.8,0.5c1.6,8.8,7.7,15.3,20.1,15.3c9.7,0,16.1-8,16.1-16.9c0-7.2-2.8-10.9-12.5-18.1
	c-3.2-2-6-3.6-8.4-5.6c-8.9-5.6-14.5-12-14.5-22.5C78.8,9,88.9,1,102.1,1c7.7,0,12.5,2.4,14.1,3.2L119,1l2,0.5l-2,17.3l-2.8-0.5
	c0-8-4.8-11.7-12.9-11.7c-7.6,0-13.3,4-13.3,11.7c0,6.8,5.2,11.2,11.2,15.3c3.2,2,5.6,3.6,8.1,5.2c14.1,10.1,17.3,16.5,17.3,26.1
	C126.7,78.8,115.8,89.3,98.5,89.3L98.5,89.3L98.5,89.3z M183.8,18.5H181c-0.5-7.7-2.8-10.1-8.8-10.1h-11.7v63.2
	c0,10.4,2,12.4,8.9,12.4v3.2h-30.2V84c6.8,0,8.9-2,8.9-12.8V8.4h-11.7c-7.7,0-8.9,2-10.9,10.1h-2.8l2-18.1l2,0.5c0.8,2,2.4,2,7.2,2
	h39c7.2,0,8.8,0,10.5-2.4h2.4L183.8,18.5L183.8,18.5L183.8,18.5z M259.8,87.7c-1.6-0.5-3.2-0.5-4.8-0.5c-3.2,0-8.9,1.6-15.7,1.6
	c-26.1,0-45.5-15.7-45.5-44.6c0-24.5,18.1-43.4,45.9-43.4c6.4,0,13.7,1.2,19.7,3.6c1.2-1.2,1.6-2,2.8-3.2h2.4
	c-0.5,4.4-2,18.9-2,18.9h-2.4c-1.6-8.4-6-14.1-20.1-14.1c-16.9,0-32.2,13.3-32.2,37.8c0,27.7,15.7,39.8,33,39.8
	c11.2,0,18.1-6.4,22.5-14.5l2.8,1.2L259.8,87.7L259.8,87.7L259.8,87.7z M285.1,24.1c0,12.1-1.2,49.5-1.2,49.5
	c0,7.2,2.4,10.4,9.3,10.4v3.2h-27V84c6.8,0,10.4-3.2,10.4-10.4l2.4-61.2c-2-4.8-4-6.4-9.2-6.8V2.8h20.5L312,59.9l22.1-57.1h18.5v2.8
	c-5.2,0-8,2.4-8,8.1l2.4,59.1c0,8.8,1.6,11.2,8.8,11.2v3.2h-31V84c6,0,8.8-2,8.4-11.2c0,0-1.2-41.4-1.6-48.6l-14.9,41
	c-2,5.2-4,11.2-5.6,17.7l-4.8,0.5c-1.2-4.5-4.4-12.5-4.4-12.5S289.5,35.8,285.1,24.1L285.1,24.1L285.1,24.1z"/>
</svg>
