<?xml version="1.0" encoding="utf-8"?>
<!-- Generator: Adobe Illustrator 24.1.0, SVG Export Plug-In . SVG Version: 6.00 Build 0)  -->
<svg version="1.1"
	 id="svg14" xmlns:cc="http://creativecommons.org/ns#" xmlns:dc="http://purl.org/dc/elements/1.1/" xmlns:inkscape="http://www.inkscape.org/namespaces/inkscape" xmlns:rdf="http://www.w3.org/1999/02/22-rdf-syntax-ns#" xmlns:sodipodi="http://sodipodi.sourceforge.net/DTD/sodipodi-0.dtd" xmlns:svg="http://www.w3.org/2000/svg"
	 xmlns="http://www.w3.org/2000/svg" xmlns:xlink="http://www.w3.org/1999/xlink" x="0px" y="0px" viewBox="0 0 110.9 13"
	 style="enable-background:new 0 0 110.9 13;" xml:space="preserve">
<sodipodi:namedview  bordercolor="#666666" borderopacity="1" gridtolerance="10" guidetolerance="10" id="namedview16" inkscape:current-layer="svg14" inkscape:cx="154.91483" inkscape:cy="41.344642" inkscape:pageopacity="0" inkscape:pageshadow="2" inkscape:window-height="1001" inkscape:window-maximized="1" inkscape:window-width="1920" inkscape:window-x="-9" inkscape:window-y="-9" inkscape:zoom="4.1248275" objecttolerance="10" pagecolor="#ffffff" showgrid="false">
	</sodipodi:namedview>
<path id="path8" inkscape:connector-curvature="0" d="M14.3,12.7h4.1l2.2-12.4h-4.1l-0.8,4.4h-3.5L13,0.3H8.9L6.8,12.7h4.1l0.8-4.7
	h3.5L14.3,12.7z M22.9,0.3l-1.2,6.9c-0.1,0.5-0.2,1-0.2,1.6c0,3.7,3.2,4.2,5.1,4.2c4,0,5.8-1.3,6.4-5l1.4-7.8h-4.1l-1.1,6.5
	c-0.4,2-0.6,3.1-2.1,3.1c-1,0-1.5-0.5-1.5-1.6c0-0.5,0.1-1,0.2-1.6l1.2-6.4L22.9,0.3L22.9,0.3z M55.8,12.7h4.1l0.6-3.2h1.9
	c3.5,0,5.5-1.9,5.5-5.4c0-2.4-1.7-3.9-4.7-3.9h-5.2L55.8,12.7z M62.1,6.4h-1.2l0.5-2.9h1.1c0.9,0,1.4,0.4,1.4,1.3
	C63.9,5.8,63.2,6.4,62.1,6.4z M75.7,0c-4.4,0-7,2.8-7,7.6c0,3.3,2.1,5.3,5.6,5.3c4.4,0,7-2.8,7-7.6C81.3,2,79.2,0,75.7,0z M74.5,9.8
	c-1,0-1.7-0.8-1.7-2c0-0.5,0-0.9,0.1-1.4c0.3-1.6,0.8-3.1,2.5-3.1c1,0,1.7,0.8,1.7,2c0,0.5,0,0.9-0.1,1.4
	C76.6,8.2,76.1,9.8,74.5,9.8z M95.4,12.7h4.1l1.6-9.1h3.1l0.6-3.3H94.3l-0.6,3.3h3.2L95.4,12.7z M88.6,4.9c-1.3-0.4-1.8-0.6-1.8-1.2
	c0-0.4,0.3-0.9,1-0.9c0.5,0,1,0.3,1.2,0.8l3.6-1C92.3,0.9,90.7,0,88.1,0c-4.9,0-5.3,3.3-5.3,4.3c0,2,1.1,3.3,3.4,3.9
	c0.6,0.2,1.3,0.4,1.3,1c0,0.5-0.4,0.9-1.1,0.9c-0.7,0-1.3-0.4-1.5-1l-3.5,1c0.4,1.8,2.1,2.9,4.9,2.9c2.1,0,5.6-0.6,5.6-4.3
	C91.9,6.8,90.8,5.5,88.6,4.9z"/>
<path id="path10" inkscape:connector-curvature="0" d="M4.5,12.7L6.7,0.3H0v12.4L4.5,12.7z M106.4,0.3l-2.2,12.4h6.7V0.3H106.4z"/>
<path id="path12" inkscape:connector-curvature="0" d="M36.7,0.3l-2.2,12.4h4.1L39.2,9h3.4l0.6-3.1h-3.4l0.4-2.3h4.8l0.6-3.3H36.7z
	 M47.3,0.3l-2.2,12.4h4.1L49.8,9h3.4l0.6-3.1h-3.4l0.4-2.3h4.8l0.6-3.3H47.3z"/>
</svg>
