<svg xmlns="http://www.w3.org/2000/svg" viewBox="0 0 1093.26 336.5"><g id="Layer_2" data-name="Layer 2"><g id="Layer_1-2" data-name="Layer 1"><path d="M154.18,152.45c1.28-5.73,2.61-11.45,3.83-17.19q13.73-64.54,27.37-129.1c.92-4.43,2.56-6.2,7.53-6.16,36,.26,71.94.2,107.91.06,4.22,0,5.87.87,5.73,5.47-.33,11.14-.21,22.3,0,33.44.05,3.41-.94,4.83-4.51,4.61-4.15-.25-8.34.13-12.49-.1-3.58-.21-4.8,1.41-4.65,4.69.06,1.16,0,2.32,0,3.49q0,81.38,0,162.74c0,7.56,0,7.56,7.65,7.57,3.33,0,6.66.13,10,0,3.08-.15,4,1.2,4,4.15-.11,11.65-.13,23.3,0,35,0,3.17-.95,4.45-4.25,4.44q-50-.12-99.92,0c-3.45,0-4.72-1.26-4.69-4.67.12-11.48.1-23,0-34.45,0-3.15,1.09-4.56,4.37-4.43,4.33.17,8.66-.08,13,.07,3.06.1,4.27-1.2,4-4.16-.09-1,0-2,0-3q0-76.12,0-152.26V57.43l-1.36-.11c-2,8.46-4.13,16.91-6.09,25.38q-18.68,80.76-37.3,161.51c-1.27,5.5-2.63,11-3.69,16.52-.63,3.27-2,4.83-5.58,4.78-13.49-.18-27-.15-40.46,0-3.47,0-4.81-1.19-5.62-4.65Q98,170.84,76.86,80.9C75.3,74.27,73.79,67.64,72.21,61a6.07,6.07,0,0,0-2.3-3.7c-.08,1.59-.21,3.18-.21,4.77q0,76.62,0,153.25c0,6.61,0,6.61,6.54,6.63,3.83,0,7.66.12,11.49,0,3-.12,4.08,1.16,4.06,4.13q-.15,17.48,0,34.94c0,3.15-1,4.48-4.27,4.47q-41.48-.12-82.93,0c-3.13,0-4.47-.93-4.43-4.28q.23-17.47,0-34.94c0-3.28,1.12-4.47,4.35-4.33,4.32.18,8.66-.09,13,.07,2.94.11,4.4-.94,4.28-4,0-1.16,0-2.33,0-3.49q0-81.87,0-163.74c0-7.28,0-7.21-7.42-7.31-4.46,0-10.81,1.35-12.87-1C-.89,39.85.31,33.81.24,29.23c-.13-8,.12-16-.1-24C0,1.52,1,0,5.09.05Q59.54.29,114,.07c3.35,0,4.69,1.24,5.38,4.31q14.07,62.47,28.26,124.93c1.74,7.69,3.6,15.37,5.41,23.05Z"/><path d="M966.88,107.68C977,141,986.71,173.32,996.47,205.61l1.48,0c9.71-32.21,19.42-64.43,29.52-98-6.19,0-11.42-.24-16.61.08-4.38.27-5.8-1.24-5.69-5.66.29-10.81.23-21.63,0-32.43-.07-4,.9-5.58,5.24-5.55q38.72.27,77.41,0c4.2,0,5.49,1.39,5.42,5.46-.21,11-.18,22,0,32.94.06,3.83-1.22,5.3-5.19,5.22-10-.2-8-.58-11,7.88-20.14,56.6-40.08,113.28-60.36,169.84-4.85,13.52-11.53,26.15-22.46,36-10.36,9.38-23,13.28-36.45,14.4-19.34,1.62-38.5-.24-57.44-4.57-3.76-.86-5.25-2.31-5.19-6.27q.29-22.69,0-45.41c0-4,1.36-5.15,5.22-5,8.32.24,16.65.2,25,0,3.56-.08,5.16.74,5.8,4.75,1.92,12,7.58,16.64,18.68,16.33,8.21-.23,13.95-5.57,13.38-14.08a74.23,74.23,0,0,0-4.31-19.31c-14.92-42.62-30.1-85.15-45.21-127.7-2.66-7.51-5.55-14.95-8-22.53-1.12-3.51-3.05-4.8-6.55-4.44-1.64.16-3.33-.06-5,0-2.74.14-3.87-1.06-3.85-3.83q.1-18,0-35.93c0-2.88,1.27-3.74,3.94-3.73q45,.06,89.9,0c3,0,4.13,1.23,4.11,4.16-.07,11.64-.09,23.29,0,34.93,0,3.17-1.17,4.52-4.4,4.44C978.62,107.57,973.34,107.68,966.88,107.68Z"/><path d="M577.48,95.2c1.1-1.62,2.18-3.25,3.3-4.85,12.77-18.21,29.69-29.8,52.42-29.85,32.86-.06,54,20.5,55.62,51.37,1.74,32.68.87,65.5,1.14,98.27,0,2.66.11,5.33,0,8s.91,3.74,3.73,3.9c10.58.58,10.57.68,10.57,11.48,0,8.82-.23,17.65.1,26.45.16,4.55-1.55,5.61-5.78,5.57-21.14-.17-42.29-.07-63.43-.08-6.64,0-6.67,0-6.67-6.54,0-37.43.06-74.87-.07-112.3a74.24,74.24,0,0,0-1.56-15.83c-2.73-12.27-12-18.74-25-18.19s-21.54,7.69-23.51,20.14a81.75,81.75,0,0,0-1,12.39c-.1,23.46-.06,46.92-.05,70.38,0,6.46,0,6.46,6.68,6.48,4.33,0,8.66.13,13,0,3.16-.12,4.47,1,4.43,4.28q-.21,17.46,0,34.94c0,3.27-1.24,4.33-4.41,4.33q-45.45-.11-90.9,0c-3.22,0-4.4-1.11-4.36-4.36q.21-17.48,0-34.94c-.05-3.36,1.31-4.21,4.44-4.27,9.71-.18,9.71-.29,9.71-10.24V114.35c0-6.61,0-6.61-6.54-6.66-7.56,0-7.56,0-7.56-7.56,0-10.31.17-20.63-.09-30.94-.1-4.07,1.39-5.07,5.22-5q32.21.21,64.43,0c3.79,0,4.89,1.29,4.81,4.93-.21,8.59-.07,17.18-.07,25.77Z"/><path d="M829.33,179.58c-17.48,0-35,.11-52.43-.07-4.41,0-6.21,1.07-6,5.88.43,8.55,1.18,17,5.62,24.49a33.72,33.72,0,0,0,6.88,8.42c13.85,11.81,39.5,11.41,50.81-1,3.14-3.44,5.21-8,7.1-12.38,1.22-2.81,2.34-4.26,5.64-4.2q16.21.28,32.45,0c3.66-.06,5,1.14,5,4.85-.14,14.63-.11,29.27,0,43.91,0,3.05-1,4.74-4,5.92C855,265.23,828.85,271.1,801.54,270c-18.64-.72-36.61-4.71-52.62-14.91-19.09-12.15-30.55-29.86-35.57-51.58-7.2-31.11-7.23-62.18,5.5-91.95,13.44-31.42,38.21-47.94,72.23-50.67,16.67-1.34,32.95.48,48.3,7.32,22.75,10.13,36.37,28.19,43.65,51.57,5.75,18.46,5,37.43,5,56.37,0,4.06-2.85,3.37-5.22,3.38Q856,179.61,829.33,179.58Zm.12-35.84a50.79,50.79,0,0,0-5.11-26.37c-2.91-5.9-7.59-10.18-14.05-11.84-9.61-2.47-19-2-26.65,5.09-9.56,8.84-11.41,20.6-12.23,33.12Z"/><path d="M307.77,165.59c-.27-20.47,2.54-40.17,11.77-58.63,10.64-21.26,27.36-35.45,50.09-41.89,26.59-7.53,53-6.75,78.3,5.29,21.83,10.41,35.39,28.32,42.29,51.1,8.44,27.84,8.25,56,1.11,84.12-9.06,35.74-38,60.09-75,63.77-19,1.9-37.5.44-55.29-6.86-21.84-9-36.43-25-45-46.73C309.59,199.6,307.48,182.72,307.77,165.59Zm60.74-.3c1,10.67,1.34,21.31,3,31.75,1.56,9.78,6.17,18.36,15.32,23.37,19.78,10.81,42-.74,45.84-24.14a190.2,190.2,0,0,0,0-62c-1.65-10-6.12-19-15.76-24.2-19.4-10.43-41.52.8-45.4,23.56C369.72,144,369.46,154.7,368.51,165.29Z"/></g></g></svg>