<?xml version="1.0" encoding="utf-8"?>
<!-- Generator: Adobe Illustrator 24.1.0, SVG Export Plug-In . SVG Version: 6.00 Build 0)  -->
<svg version="1.1" id="Layer_1" xmlns="http://www.w3.org/2000/svg" xmlns:xlink="http://www.w3.org/1999/xlink" x="0px" y="0px"
	 viewBox="0 0 497.8 143.2" style="enable-background:new 0 0 497.8 143.2;" xml:space="preserve">
<g>
	<path d="M226.8,95.4h-8.2c-0.7,0-1-0.7-1.3-1.3l-9.7-16.3h-1.5c-1.8,0-7.2-0.2-8.7-0.3V94c0,0.7-0.5,1.3-1.3,1.3h-6.7
		c-0.7,0-1.3-0.6-1.3-1.3V50c0-1.3,0.8-1.8,2.2-2c3.5-0.5,11-0.9,15.9-0.9c10.3,0,19.9,3.7,19.9,15.2v0.6c0,7.1-3.5,11-9.1,13.1
		l10.5,18c0.1,0.2,0.1,0.4,0.1,0.5C227.6,95.1,227.3,95.4,226.8,95.4z M216.7,62.4c0-5-3.9-7.2-10.6-7.2c-1.4,0-7.5,0.1-8.7,0.3
		v14.6c1.1,0.1,7.6,0.2,8.7,0.2c6.9,0,10.6-1.3,10.6-7.2V62.4z M245.5,82.2c0,5.6,0.2,5.8,5.3,5.8h17c0.8,0,1.3,0.6,1.3,1.3v4.3
		c0,1-0.3,1.3-1.3,1.4c-2.2,0.3-6.5,0.9-14.5,0.9c-11.1,0-17,0.1-17-13.7V61c0-13.8,5.9-13.7,17-13.7c8,0,12.4,0.6,14.5,1
		c1,0.1,1.3,0.5,1.3,1.4V54c0,0.7-0.6,1.3-1.3,1.3h-17c-5.1,0-5.3,0.1-5.3,5.8v6.1H267c0.7,0,1.3,0.6,1.3,1.3v4.8
		c0,0.7-0.6,1.3-1.3,1.3h-21.5V82.2L245.5,82.2z M299.3,96c-10.8,0-20.1-4.7-20.1-19V49.1c0-0.8,0.6-1.3,1.3-1.3h6.6
		c0.8,0,1.3,0.5,1.3,1.3V77c0,7.7,3.5,11.3,10.8,11.3S310,84.7,310,77V49.1c0-0.8,0.6-1.3,1.3-1.3h6.7c0.8,0,1.3,0.5,1.3,1.3V77
		C319.4,91.3,310.1,96,299.3,96z M363.5,55.5h-13.4v38.6c0,0.7-0.6,1.3-1.4,1.3H342c-0.7,0-1.3-0.6-1.3-1.3V55.5h-13.4
		c-0.7,0-1.3-0.4-1.3-1.2V49c0-0.8,0.6-1.3,1.3-1.3h36.1c0.7,0,1.3,0.5,1.3,1.3v5.3C364.9,55.1,364.3,55.5,363.5,55.5z M454.7,95.4
		h-8.2c-0.7,0-1-0.7-1.3-1.3l-9.7-16.3H434c-1.7,0-7.2-0.2-8.7-0.3V94c0,0.7-0.5,1.3-1.3,1.3h-6.7c-0.8,0-1.3-0.6-1.3-1.3V50
		c0-1.3,0.8-1.8,2.2-2c3.5-0.5,11-0.9,15.9-0.9c10.3,0,19.9,3.7,19.9,15.2v0.6c0,7.1-3.6,11-9.1,13.1l10.6,18
		c0.1,0.2,0.1,0.4,0.1,0.5C455.5,95.1,455.2,95.4,454.7,95.4z M444.7,62.4c0-5-3.9-7.2-10.6-7.2c-1.4,0-7.5,0.1-8.7,0.3v14.6
		c1.1,0.1,7.6,0.2,8.7,0.2c6.9,0,10.6-1.3,10.6-7.2V62.4L444.7,62.4z M480.3,96c-5.9,0-12-1-15.2-1.8c-0.7-0.1-1.3-0.6-1.3-1.3v-4.8
		c0-0.7,0.6-1.3,1.3-1.3c0.1,0,0.1,0,0.1,0c2.7,0.3,9,1.2,15.2,1.2c6,0,7.8-2.2,7.8-6c0-5-12-7.8-17.9-10.3c-5.8-2.4-7.9-7-7.9-11.7
		c0-7.4,6-12.8,18.4-12.8c6.4,0,12.3,1.2,14.5,1.8c0.7,0.1,1.2,0.6,1.2,1.3v5c0,0.7-0.4,1.2-1.1,1.2c-0.1,0-0.1,0-0.1,0
		c-4.4-0.4-9-1.2-14.9-1.2c-5,0-8.7,1.7-8.7,4.8c0,2.2,2.5,4.2,5.5,5.4s6.9,2.7,11.3,4.5c5.6,2.3,9.3,5.6,9.3,12.1
		C498,88.7,493.8,96,480.3,96z M381.1,82.2c0,5.6,0.2,5.8,5.3,5.8h17c0.7,0,1.3,0.6,1.3,1.3v4.3c0,1-0.3,1.3-1.3,1.4
		c-2.2,0.3-6.5,0.9-14.5,0.9c-11.2,0-17.1,0.1-17.1-13.7V61c0-13.8,5.9-13.7,17.1-13.7c8,0,12.4,0.6,14.5,1c1,0.1,1.3,0.5,1.3,1.4
		V54c0,0.7-0.6,1.3-1.3,1.3h-17c-5.1,0-5.3,0.1-5.3,5.8v6.1h21.5c0.8,0,1.3,0.6,1.3,1.3v4.8c0,0.7-0.6,1.3-1.3,1.3h-21.5V82.2z"/>
	<g>
		<path d="M68.2,50.6c0.8,1.5,0.3,3.3-1.2,4.1s-3.3,0.2-4.1-1.2c-0.8-1.5-0.3-3.3,1.2-4C65.6,48.7,67.5,49.2,68.2,50.6z M53.5,74
			c-0.8,0.5-1.2,1.5-0.7,2.4s1.5,1.2,2.4,0.7c0.9-0.4,1.2-1.5,0.7-2.4C55.4,73.9,54.4,73.6,53.5,74z M53.2,66.8
			c-1,0.5-1.3,1.8-0.8,2.8c0.6,1,1.8,1.4,2.8,0.8c1-0.5,1.4-1.8,0.8-2.8C55.4,66.7,54.2,66.3,53.2,66.8z M55,59.9
			c-1.1,0.6-1.6,2-1,3.2c0.6,1.1,2,1.6,3.2,1c1.1-0.6,1.6-2,1-3.2C57.6,59.8,56.2,59.3,55,59.9z M58.9,53.9
			c-1.3,0.7-1.8,2.3-1.1,3.6s2.3,1.8,3.5,1.1c1.3-0.7,1.8-2.3,1.1-3.6C61.7,53.7,60.1,53.2,58.9,53.9z M55.9,80.8
			c-0.7,0.4-1,1.3-0.6,2s1.3,1,2,0.6s1-1.3,0.6-2S56.6,80.5,55.9,80.8z M89.9,56.4c0.4,0.8,1.5,1.2,2.4,0.7c0.8-0.5,1.2-1.5,0.7-2.4
			s-1.5-1.2-2.4-0.7C89.8,54.4,89.5,55.5,89.9,56.4z M83.9,52.6c0.5,1,1.8,1.4,2.8,0.8c1-0.5,1.4-1.8,0.8-2.8
			c-0.5-1-1.8-1.4-2.8-0.8S83.4,51.6,83.9,52.6z M77,50.7c0.6,1.1,2,1.6,3.2,1s1.6-2,1-3.2c-0.6-1.1-2-1.6-3.2-0.9
			C76.8,48.2,76.4,49.6,77,50.7z M69.8,51c0.7,1.3,2.3,1.8,3.6,1.1c1.3-0.7,1.7-2.3,1.1-3.6c-0.7-1.3-2.3-1.8-3.6-1.1
			C69.6,48.1,69.2,49.7,69.8,51z M94.4,61.7c0.4,0.7,1.3,1,2,0.6s1-1.3,0.6-2s-1.3-1-2-0.6S94,61,94.4,61.7z M89.3,89.7
			c-0.8-1.5-2.6-2-4.1-1.2s-2,2.6-1.2,4.1s2.6,2,4.1,1.2S90.1,91.1,89.3,89.7z M62.4,86.8C62,86,60.9,85.7,60,86.1s-1.2,1.5-0.7,2.4
			c0.4,0.9,1.5,1.2,2.4,0.7C62.5,88.7,62.8,87.7,62.4,86.8z M68.4,90.6c-0.6-1-1.8-1.4-2.8-0.8s-1.4,1.8-0.8,2.8
			c0.5,1,1.8,1.4,2.8,0.8C68.5,92.8,68.9,91.6,68.4,90.6z M75.3,92.4c-0.6-1.1-2-1.5-3.2-1c-1.1,0.6-1.5,2-1,3.2
			c0.6,1.1,2,1.6,3.2,1S75.9,93.6,75.3,92.4z M82.5,92.2c-0.7-1.3-2.3-1.8-3.6-1.1c-1.3,0.7-1.7,2.3-1,3.6c0.7,1.3,2.3,1.8,3.5,1.1
			C82.7,95,83.1,93.4,82.5,92.2z M98.8,69.2c0.9-0.5,1.2-1.6,0.8-2.4c-0.5-0.9-1.5-1.2-2.4-0.7c-0.9,0.4-1.2,1.5-0.7,2.4
			C96.9,69.3,98,69.6,98.8,69.2z M99.1,76.3c1-0.5,1.3-1.8,0.8-2.8s-1.8-1.4-2.8-0.8c-1,0.6-1.4,1.8-0.8,2.8
			C96.9,76.5,98.1,76.9,99.1,76.3z M97.2,83.3c1.2-0.6,1.6-2,1-3.2c-0.6-1.1-2-1.6-3.2-1c-1.1,0.6-1.6,2.1-1,3.2
			C94.7,83.4,96.1,83.8,97.2,83.3z M93.4,89.2c1.3-0.7,1.8-2.3,1.1-3.5c-0.7-1.3-2.3-1.8-3.6-1.1c-1.3,0.7-1.8,2.3-1.1,3.6
			C90.6,89.4,92.2,89.9,93.4,89.2z"/>
		<path d="M88.4,43.5c-0.6,2-2.7,3.2-4.8,2.6c-2.1-0.6-3.2-2.7-2.6-4.8c0.6-2,2.7-3.2,4.8-2.6C87.9,39.3,89,41.4,88.4,43.5z
			 M51.6,52.6c-1-0.3-2.1,0.3-2.3,1.3c-0.3,1,0.3,2,1.3,2.3s2-0.3,2.3-1.3C53.2,54,52.5,52.9,51.6,52.6z M58.2,45.2
			c-1.3-0.4-2.5,0.4-2.9,1.6c-0.4,1.3,0.3,2.5,1.6,2.9c1.2,0.4,2.5-0.4,2.9-1.6C60.2,46.9,59.5,45.6,58.2,45.2z M66.8,40.1
			c-1.6-0.4-3.2,0.4-3.7,2c-0.4,1.6,0.4,3.2,2,3.7s3.2-0.4,3.7-2C69.2,42.2,68.3,40.6,66.8,40.1z M76.2,38c-1.8-0.5-3.6,0.5-4.2,2.3
			c-0.5,1.8,0.5,3.6,2.3,4.2s3.6-0.5,4.2-2.3C79,40.4,78,38.5,76.2,38z M47.3,61.7c-0.8-0.2-1.5,0.2-1.8,1s0.2,1.6,1,1.8
			s1.5-0.2,1.8-1C48.5,62.7,48.1,61.9,47.3,61.7z M104.7,70.2c-0.3,1,0.3,2.1,1.3,2.3c1,0.3,2.1-0.3,2.3-1.3c0.3-1-0.3-2-1.3-2.3
			C106.1,68.6,105,69.2,104.7,70.2z M102.6,60.7c-0.4,1.3,0.4,2.6,1.6,2.9c1.3,0.4,2.5-0.3,2.9-1.6s-0.3-2.5-1.6-2.9
			C104.2,58.8,102.9,59.5,102.6,60.7z M97.4,52.2c-0.5,1.6,0.4,3.2,2,3.7s3.2-0.4,3.7-2s-0.4-3.2-2-3.7S97.9,50.6,97.4,52.2z
			 M90.1,45.6c-0.5,1.8,0.5,3.6,2.3,4.2c1.8,0.5,3.6-0.5,4.2-2.3c0.5-1.8-0.5-3.6-2.3-4.2C92.5,42.7,90.6,43.8,90.1,45.6z M104,79.8
			c-0.2,0.8,0.2,1.5,1,1.8c0.8,0.2,1.5-0.2,1.8-1c0.2-0.8-0.2-1.5-1-1.8C105,78.6,104.2,79,104,79.8z M71.3,101.9
			c0.6-2-0.6-4.2-2.6-4.8c-2-0.6-4.2,0.6-4.8,2.6c-0.6,2.1,0.6,4.2,2.6,4.8S70.7,103.9,71.3,101.9z M47.5,73c0.3-1-0.3-2-1.3-2.3
			s-2,0.3-2.4,1.3c-0.3,1,0.3,2,1.3,2.3C46.2,74.6,47.2,74,47.5,73z M49.7,82.5c0.4-1.2-0.4-2.5-1.6-2.9c-1.3-0.4-2.6,0.3-2.9,1.6
			s0.3,2.5,1.6,2.9S49.4,83.7,49.7,82.5z M54.9,91c0.4-1.6-0.4-3.2-2-3.7c-1.6-0.4-3.2,0.4-3.7,2s0.4,3.2,2,3.7S54.4,92.6,54.9,91z
			 M62.2,97.7c0.5-1.8-0.5-3.6-2.3-4.2c-1.8-0.5-3.6,0.5-4.1,2.3s0.5,3.6,2.3,4.1C59.8,100.4,61.6,99.4,62.2,97.7z M100.7,90.6
			c1,0.3,2.1-0.3,2.4-1.3s-0.3-2.1-1.3-2.4s-2.1,0.3-2.3,1.3C99.1,89.3,99.7,90.3,100.7,90.6z M94.1,98c1.2,0.4,2.5-0.3,2.9-1.6
			c0.4-1.3-0.3-2.6-1.6-2.9c-1.3-0.4-2.5,0.4-2.9,1.6S92.8,97.6,94.1,98z M85.5,103.1c1.6,0.5,3.2-0.4,3.7-2c0.4-1.6-0.4-3.2-2-3.7
			s-3.2,0.4-3.7,2C83.1,101,83.9,102.6,85.5,103.1z M76.1,105.2c1.8,0.5,3.6-0.5,4.2-2.2c0.5-1.8-0.5-3.6-2.3-4.2s-3.6,0.5-4.2,2.3
			C73.3,102.8,74.3,104.7,76.1,105.2z"/>
		<path d="M107.5,45.5c-1.9,2-5,2.1-7,0.2c-2-1.9-2.1-5-0.2-7s5-2.1,7-0.2C109.3,40.3,109.4,43.5,107.5,45.5z M58.3,34.2
			c-1-0.9-2.5-0.9-3.4,0.1S54,36.8,55,37.7s2.5,0.9,3.4-0.1C59.3,36.7,59.3,35.2,58.3,34.2z M70.6,29.5c-1.2-1.1-3.1-1.1-4.2,0.1
			c-1.1,1.2-1.1,3.1,0.1,4.2c1.2,1.1,3.1,1.1,4.2-0.1C71.9,32.6,71.9,30.7,70.6,29.5z M83.9,28.6c-1.5-1.5-3.9-1.4-5.4,0.2
			c-1.4,1.5-1.4,3.9,0.2,5.4c1.5,1.5,4,1.4,5.4-0.2S85.4,30,83.9,28.6z M96.4,31.8c-1.8-1.6-4.4-1.5-6.1,0.2
			c-1.6,1.7-1.6,4.4,0.2,6.1c1.7,1.6,4.5,1.5,6.1-0.2C98.2,36.1,98.1,33.4,96.4,31.8z M47.9,42.5c-0.8-0.7-1.9-0.6-2.6,0.1
			c-0.7,0.7-0.7,1.9,0.1,2.6c0.8,0.7,1.9,0.7,2.6-0.1C48.6,44.3,48.6,43.2,47.9,42.5z M111.1,87.2c-0.9,1-0.9,2.5,0.1,3.4
			s2.5,0.9,3.5-0.1c0.9-1,0.9-2.5-0.1-3.4C113.5,86.2,112,86.3,111.1,87.2z M114.2,74.7c-1.1,1.2-1.1,3.1,0.1,4.2s3.1,1.1,4.2-0.1
			s1.1-3.1-0.1-4.2C117.2,73.4,115.3,73.5,114.2,74.7z M113.2,61.4c-1.5,1.5-1.4,3.9,0.2,5.4c1.5,1.5,3.9,1.4,5.4-0.2
			c1.5-1.5,1.4-3.9-0.2-5.4C117.1,59.8,114.7,59.9,113.2,61.4z M108.6,49.2c-1.6,1.7-1.5,4.4,0.2,6.1c1.7,1.6,4.4,1.5,6.1-0.2
			c1.6-1.7,1.6-4.4-0.2-6.1C113,47.3,110.2,47.5,108.6,49.2z M104.3,98.2c-0.7,0.7-0.6,1.9,0.1,2.6s1.9,0.6,2.6-0.1s0.7-1.9-0.1-2.5
			C106.2,97.4,105,97.4,104.3,98.2z M51.9,104.5c1.9-2,1.8-5.1-0.2-7s-5.1-1.8-7,0.2s-1.8,5.1,0.2,7S50.1,106.5,51.9,104.5z
			 M41.2,56c0.9-1,0.9-2.5-0.1-3.4s-2.5-0.9-3.4,0.1s-0.9,2.5,0.1,3.4S40.3,56.9,41.2,56z M38.1,68.5c1.1-1.2,1.1-3.1-0.1-4.2
			c-1.2-1.1-3.1-1.1-4.2,0.1c-1.1,1.2-1.1,3.1,0.1,4.2C35,69.8,37,69.7,38.1,68.5z M39.1,81.7c1.5-1.5,1.4-3.9-0.2-5.4
			c-1.5-1.5-3.9-1.4-5.4,0.2c-1.4,1.5-1.4,4,0.2,5.4C35.2,83.4,37.6,83.3,39.1,81.7z M43.7,94c1.6-1.7,1.5-4.4-0.2-6.1
			c-1.7-1.6-4.4-1.5-6.1,0.2c-1.6,1.7-1.6,4.4,0.2,6.1C39.3,95.8,42.1,95.7,43.7,94z M93.9,108.9c1,0.9,2.5,0.9,3.4-0.1
			s0.9-2.5-0.1-3.4s-2.5-0.9-3.4,0.1S93,108,93.9,108.9z M81.6,113.6c1.2,1.1,3.1,1.1,4.2-0.1s1.1-3.1-0.1-4.2s-3.1-1.1-4.2,0.1
			S80.4,112.5,81.6,113.6z M68.4,114.6c1.5,1.5,3.9,1.4,5.4-0.1s1.4-4-0.1-5.4c-1.5-1.5-4-1.4-5.4,0.1
			C66.8,110.7,66.8,113.2,68.4,114.6z M55.9,111.4c1.7,1.6,4.4,1.5,6.1-0.2c1.6-1.7,1.6-4.4-0.2-6.1s-4.4-1.5-6.1,0.2
			C54.1,107,54.2,109.8,55.9,111.4z"/>
		<path d="M127.6,55.9c-3,1.3-6.5-0.1-7.9-3.1s0.1-6.5,3.1-7.9c3-1.3,6.5,0.1,7.9,3.1C132,51.1,130.6,54.6,127.6,55.9z M85.6,17.9
			c-0.4-1.8-2.1-3-3.9-2.6s-3,2.1-2.6,3.9c0.4,1.8,2.1,2.9,3.9,2.6C84.8,21.4,85.9,19.6,85.6,17.9z M99.7,20.9
			c-0.6-2.2-2.7-3.4-4.9-2.9c-2.2,0.5-3.4,2.7-2.9,4.9s2.7,3.4,4.9,2.9C99,25.2,100.3,23.1,99.7,20.9z M112.8,27.3
			c-0.8-2.6-3.6-4.1-6.2-3.3s-4.1,3.6-3.3,6.2c0.8,2.6,3.6,4.1,6.3,3.3C112.2,32.7,113.6,29.9,112.8,27.3z M123.2,36.5
			c-1.1-2.9-4.2-4.3-7.1-3.2s-4.3,4.2-3.2,7.1c1.1,2.9,4.2,4.3,7.1,3.2C122.8,42.5,124.3,39.4,123.2,36.5z M57.2,21.6
			c-0.5-1.2-2-1.8-3.2-1.3s-1.8,1.9-1.3,3.2c0.5,1.2,2,1.8,3.2,1.3C57.1,24.2,57.7,22.8,57.2,21.6z M117.1,100.8
			c-1.5,1.1-1.8,3.1-0.8,4.6c1.1,1.5,3.1,1.8,4.6,0.8s1.8-3.1,0.8-4.6S118.6,99.8,117.1,100.8z M123.7,87.9
			c-1.9,1.2-2.4,3.7-1.3,5.5c1.2,1.9,3.7,2.4,5.5,1.2c1.9-1.2,2.4-3.6,1.2-5.5C128,87.3,125.5,86.8,123.7,87.9z M126.8,73.5
			c-2.4,1.3-3.3,4.4-1.9,6.8s4.4,3.2,6.8,1.9c2.4-1.3,3.3-4.4,1.9-6.8C132.2,73,129.2,72.1,126.8,73.5z M126.6,58.9
			c-2.7,1.3-3.8,4.6-2.5,7.3c1.4,2.7,4.6,3.8,7.4,2.5c2.7-1.3,3.8-4.6,2.5-7.3C132.6,58.7,129.3,57.6,126.6,58.9z M96.4,118.5
			c-1.2,0.5-1.8,1.9-1.3,3.2s1.9,1.8,3.2,1.3c1.2-0.5,1.8-1.9,1.3-3.2C99,118.5,97.6,118,96.4,118.5z M29.4,98.3
			c3-1.3,4.4-4.8,3.1-7.9s-4.8-4.4-7.9-3.1c-3,1.3-4.4,4.8-3.1,7.9C22.9,98.2,26.4,99.6,29.4,98.3z M35.2,42.4
			c1.5-1.1,1.8-3.1,0.8-4.6c-1.1-1.5-3.1-1.8-4.6-0.8c-1.5,1.1-1.8,3.1-0.8,4.6C31.6,43.1,33.7,43.4,35.2,42.4z M28.6,55.3
			c1.9-1.2,2.4-3.7,1.2-5.5c-1.2-1.9-3.7-2.4-5.5-1.2s-2.4,3.6-1.2,5.5C24.3,55.9,26.7,56.4,28.6,55.3z M25.5,69.7
			c2.4-1.3,3.3-4.4,1.9-6.8c-1.3-2.4-4.4-3.2-6.8-1.9s-3.3,4.4-1.9,6.8C20,70.2,23.1,71.1,25.5,69.7z M25.7,84.3
			c2.7-1.3,3.8-4.6,2.5-7.4c-1.3-2.7-4.6-3.8-7.4-2.5c-2.7,1.3-3.9,4.6-2.5,7.3C19.6,84.5,22.9,85.6,25.7,84.3z M66.7,125.4
			c0.4,1.8,2.1,3,3.9,2.6s2.9-2.1,2.6-3.9c-0.4-1.8-2.1-2.9-3.9-2.6C67.5,121.8,66.3,123.6,66.7,125.4z M52.5,122.3
			c0.6,2.2,2.7,3.4,4.9,2.9c2.2-0.6,3.4-2.7,2.9-4.9c-0.5-2.2-2.7-3.4-4.9-2.9S52,120.1,52.5,122.3z M39.5,115.9
			c0.8,2.7,3.6,4.1,6.2,3.3c2.6-0.8,4.1-3.6,3.3-6.2s-3.6-4.1-6.3-3.3C40.1,110.5,38.6,113.3,39.5,115.9z M29,106.7
			c1.1,2.9,4.2,4.3,7.1,3.2c2.9-1.1,4.3-4.2,3.2-7.1s-4.2-4.3-7.1-3.2C29.4,100.7,28,103.8,29,106.7z M107.7,111.5
			c-1.1,0.9-1.3,2.5-0.4,3.6s2.5,1.3,3.6,0.4s1.3-2.5,0.4-3.6C110.4,110.8,108.8,110.6,107.7,111.5z M83.5,121.9
			c-1.4,0.2-2.4,1.5-2.2,2.9s1.5,2.4,2.9,2.2c1.4-0.2,2.4-1.5,2.2-2.9S84.9,121.7,83.5,121.9z M71,18.3c-0.2-1.4-1.5-2.4-2.9-2.2
			s-2.4,1.5-2.2,2.9c0.2,1.4,1.5,2.4,2.9,2.2C70.2,21,71.1,19.7,71,18.3z M45,28.1c-0.9-1.1-2.5-1.3-3.6-0.4
			c-1.1,0.9-1.3,2.5-0.4,3.6c0.9,1.1,2.5,1.3,3.6,0.4C45.7,30.8,45.9,29.2,45,28.1z"/>
		<path d="M144.6,79.3c-4.2,0-7.7-3.4-7.7-7.7c0-4.2,3.4-7.7,7.7-7.7s7.7,3.4,7.7,7.7C152.3,75.8,148.8,79.3,144.6,79.3z
			 M114.5,13.2c0.5-2.3-1-4.5-3.2-5c-2.3-0.5-4.5,1-5,3.2c-0.5,2.3,1,4.5,3.3,5C111.8,16.9,114,15.5,114.5,13.2z M129.6,24
			c0.4-2.8-1.5-5.4-4.2-5.9c-2.8-0.4-5.4,1.5-5.9,4.2c-0.4,2.8,1.5,5.4,4.2,5.9C126.5,28.7,129.2,26.8,129.6,24z M141.8,38
			c0.4-3.5-2.2-6.7-5.7-7s-6.7,2.2-7,5.7c-0.4,3.5,2.2,6.7,5.7,7C138.3,44.1,141.4,41.5,141.8,38z M149.3,54.2
			c0.2-3.9-2.8-7.2-6.7-7.4s-7.2,2.7-7.4,6.7c-0.2,3.9,2.8,7.2,6.7,7.4S149.1,58.1,149.3,54.2z M79.2,3.1c0-1.7-1.4-3.1-3.1-3.1
			S73,1.4,73,3.1s1.4,3.1,3.1,3.1C77.8,6.2,79.2,4.8,79.2,3.1z M109.5,126.8c-2.3,0.5-3.7,2.7-3.3,5c0.5,2.3,2.7,3.7,5,3.3
			c2.3-0.5,3.7-2.7,3.2-5C114,127.7,111.8,126.3,109.5,126.8z M123.7,114.9c-2.8,0.4-4.7,3.1-4.3,5.9c0.4,2.8,3.1,4.7,5.9,4.2
			c2.8-0.4,4.7-3,4.2-5.9C129.2,116.4,126.5,114.5,123.7,114.9z M134.7,99.5c-3.5,0.4-6.1,3.5-5.7,7c0.4,3.5,3.5,6,7,5.7
			c3.5-0.4,6.1-3.5,5.7-7C141.4,101.6,138.3,99.1,134.7,99.5z M141.9,82.3c-3.9,0.2-6.8,3.5-6.7,7.4c0.2,3.9,3.5,6.9,7.4,6.7
			c3.9-0.2,6.9-3.5,6.7-7.4C149.1,85.1,145.8,82.1,141.9,82.3z M76.1,137c-1.7,0-3.1,1.4-3.1,3.1s1.4,3.1,3.1,3.1s3.1-1.4,3.1-3.1
			S77.8,137,76.1,137z M7.7,79.3c4.2,0,7.7-3.4,7.7-7.7c0-4.2-3.4-7.7-7.7-7.7S0,67.4,0,71.6S3.4,79.3,7.7,79.3z M42.8,16.4
			c2.3-0.5,3.7-2.7,3.3-5c-0.5-2.3-2.7-3.7-5-3.2s-3.7,2.7-3.3,5C38.2,15.5,40.5,16.9,42.8,16.4z M28.5,28.3
			c2.8-0.4,4.7-3.1,4.3-5.9c-0.4-2.8-3.1-4.7-5.9-4.2c-2.8,0.4-4.7,3-4.2,5.9C23.1,26.8,25.7,28.7,28.5,28.3z M17.5,43.7
			c3.5-0.4,6.1-3.5,5.7-7s-3.5-6.1-7-5.7c-3.5,0.4-6.1,3.5-5.7,7C10.8,41.5,14,44.1,17.5,43.7z M10.4,60.9c3.9-0.2,6.9-3.5,6.7-7.4
			s-3.5-6.9-7.4-6.7S2.8,50.3,3,54.2C3.2,58.1,6.5,61.1,10.4,60.9z M37.8,130c-0.5,2.3,1,4.5,3.2,5c2.3,0.5,4.5-1,5-3.3
			s-1-4.5-3.3-5C40.5,126.3,38.2,127.7,37.8,130z M22.7,119.2c-0.4,2.8,1.5,5.4,4.2,5.9c2.8,0.4,5.4-1.5,5.9-4.2s-1.5-5.4-4.3-5.9
			C25.7,114.5,23.1,116.4,22.7,119.2z M10.5,105.2c-0.4,3.5,2.2,6.7,5.7,7c3.5,0.4,6.7-2.2,7-5.7c0.4-3.5-2.2-6.7-5.7-7
			C14,99.1,10.9,101.7,10.5,105.2z M2.9,89c-0.2,3.9,2.8,7.2,6.7,7.4c3.9,0.2,7.2-2.7,7.4-6.7c0.2-3.9-2.8-7.2-6.7-7.4
			C6.5,82.1,3.2,85.1,2.9,89z M93,134.5c-1.8,0.5-2.8,2.3-2.3,4.1c0.5,1.8,2.3,2.8,4.1,2.3c1.8-0.5,2.8-2.3,2.3-4.1
			C96.6,135.1,94.8,134.1,93,134.5z M59.3,134.5c-1.8-0.5-3.6,0.6-4.1,2.3c-0.5,1.8,0.6,3.6,2.3,4.1c1.8,0.5,3.6-0.6,4.1-2.3
			C62.1,136.8,61,135,59.3,134.5z M97.1,6.3c0.5-1.8-0.6-3.6-2.3-4.1c-1.8-0.5-3.6,0.6-4.1,2.3c-0.5,1.8,0.6,3.6,2.3,4.1
			C94.8,9.1,96.6,8.1,97.1,6.3z M61.6,4.6c-0.5-1.8-2.3-2.8-4.1-2.3s-2.8,2.3-2.3,4c0.5,1.8,2.3,2.8,4.1,2.3
			C61,8.2,62.1,6.4,61.6,4.6z"/>
	</g>
</g>
</svg>
