<?xml version="1.0" encoding="utf-8"?>
<!-- Generator: Adobe Illustrator 24.1.0, SVG Export Plug-In . SVG Version: 6.00 Build 0)  -->
<svg version="1.1" id="Layer_1" xmlns="http://www.w3.org/2000/svg" xmlns:xlink="http://www.w3.org/1999/xlink" x="0px" y="0px"
	 viewBox="0 0 595 190.5" style="enable-background:new 0 0 595 190.5;" xml:space="preserve">
<style type="text/css">
	.st0{display:none;fill:#FFFFFF;}
	.st1{display:none;fill:#010101;}
</style>
<polygon class="st0" points="0.1,-201.8 594.9,-201.8 594.9,393 0.1,393 "/>
<path class="st1" d="M498.5,124.2c0,0.3,0,0.4,0,0.7c-7.7,1.6-15.5,3.2-23.1,4.8c-6.6-0.3-13-0.4-19.6-0.7c0-0.3,0-0.4,0-0.7
	c6-0.9,12.2-1.9,18.3-3C482.2,125,490.3,124.6,498.5,124.2L498.5,124.2z"/>
<path class="st1" d="M474,75.1c0.3-0.4,0.4-0.7,0.7-1.1c2.2,0,4.4,0,6.6,0c0,0.3,0,0.4,0,0.7c-1.2,0.1-2.4,0.3-3.6,0.4
	C476.4,75.1,475.2,75.1,474,75.1L474,75.1z"/>
<g>
	<g>
		<g>
			<path d="M392,103.1l-0.3-1.9l-0.4-1.9l-3.7-14.7h-0.7l-3,9.4l-5.9,7.7l-3.1,0.7h-2.8l-3.1,0.7h-3l-2.7,0.4h-3.1l-3.5,0.7h-2.4
				l-3,0.7h-3l-3,0.4h-3l-5.9,1.2h-3.1l-2.4,0.7h-3v-0.7l13.7-51.3v-0.7L299.1,109l-1.2,1.9l-0.9,1.9l-0.8,1.9l-0.7,1.9l-0.7,1.6
				l-0.4,1.7l-0.4,1.6l-0.1,1.7l-0.1,1.5l0.1,1.6l0.1,1.5l0.4,1.5l0.4,1.2l0.5,1.3l0.7,1.2l0.8,1.2l2.2,2l2.3,1.6l2.4,1.2l2.8,0.9
				l2.8,0.5l3.2,0.1l1.6-0.1l1.7-0.1l3.5-0.4l27.2-8.9l22.4-10.8l20.8-6.3l0.4-0.9l0.4-0.9l0.7-1.9l0.4-1.9l0.4-1.7v-0.9l0.1-0.9
				L392,103.1z M364.5,114.2l-40.4,16.5l-10.6,1.7l-9.4-3.4l-0.4-0.5l-0.3-0.4L303,127l-0.3-1.2l-0.1-0.7l0.1-0.5l0.1-1.5l0.4-1.5
				l0.7-1.5l0.8-1.6l8.3-14.9l8.3-9.4l-1.2,11.2l-3.5,12.5l47.3-4.8l-0.1,0.4h0.7V114.2z"/>
		</g>
	</g>
	<g>
		<g>
			<path d="M463.1,4.9c-15.9-2.6-31.6-1.7-47.5,2.4c-2.8-0.9-6-2.4-9.1-3.8c-4.7-1.2-9.5-2.4-14.2-3.5c-5,0.3-9.8,0.4-14.8,0.7
				c-8.1,1.7-16.3,3.5-24.3,5.2c-2.3,0.8-4.7,1.6-7,2.4c-2.3,0.9-4.4,1.7-6.7,2.7c-2.3,0.9-4.4,1.9-6.7,3c-2.2,1.1-4.4,2.2-6.6,3.2
				c-2.2,1.1-4.4,2.3-6.6,3.4c-2.2,1.2-4.2,2.4-6.3,3.5c-2.2,1.2-4.2,2.6-6.3,3.8c-2,1.3-4,2.7-6,4c-1.6,0.8-3.1,1.6-4.7,2.4
				c0.8-1.3,1.6-2.7,2.4-4c1.2-1.2,2.3-2.4,3.5-3.5c-6.3-2.4-12.6-4.7-19-7.1c-2.2-0.8-4.3-1.5-6.3-2.3c-2.2-0.7-4.2-1.2-6.3-1.9
				c-2.2-0.7-4.3-1.2-6.5-1.9c-2.2-0.5-4.3-1.1-6.3-1.6c-2.2-0.5-4.4-1.1-6.6-1.6c-2.2-0.4-4.4-0.8-6.6-1.2
				c-2.3-0.4-4.4-0.8-6.7-1.2c-2.3-0.3-4.4-0.5-6.7-0.8c-6-0.4-12.2-0.8-18.3-1.2c-4.2,1.2-8.3,2.4-12.6,3.5
				c-3.4,2.6-6.6,5.1-9.9,7.8c0,0.3,0,0.4,0,0.7c-8.9-0.8-17.7-1.6-26.8-2.4c-1.3,0.3-2.8,0.4-4.2,0.7c-1.2,0-2.4,0-3.5,0
				c-3,0.4-5.9,0.8-8.9,1.2c-9.7,2.3-19.4,4.7-28.9,7c-3.8,1.6-7.5,3.2-11.2,4.8c-3,2.4-6,4.7-9,7.1c-0.4,0.5-0.9,1.1-1.3,1.6
				c-0.3,0.7-0.7,1.2-0.9,1.9c-0.3,0.7-0.5,1.5-0.8,2.2c-0.3,0.8-0.4,1.6-0.7,2.4c-0.1,0.4-0.3,0.8-0.4,1.2c0,0.4-0.1,0.9-0.1,1.3
				c-0.1,0.9-0.1,1.9-0.3,2.8c0,1.1,0,2-0.1,3.1c0,1.1,0,2.3,0.1,3.4c0.4,4.2,0.7,8.3,1.1,12.5c-0.9,3.4-1.9,6.6-3,9.9
				c-2,3.6-3.9,7.1-5.9,10.8c-0.3,0.5-0.4,1.2-0.7,1.9c-0.4,0.5-0.7,1.2-1.1,1.7c-0.3,0-0.4,0-0.7,0c0-2,0-4,0.1-6
				c0.1-1.9,0.3-3.9,0.4-5.8c0.4-3.8,0.8-7.5,1.2-11.4c0.3-1.9,0.5-3.8,0.7-5.6c0.3-1.9,0.7-3.6,0.9-5.5c0.8-3.5,1.6-7.1,2.4-10.6
				c1.3-9.9,2.8-19.8,4.2-29.7c0-0.4,0-0.7,0-1.1c0-0.7,0-1.3,0-2s0-1.2-0.1-1.9c0-0.5-0.1-1.2-0.1-1.7s-0.1-1.1-0.1-1.6
				c-0.1-0.5-0.3-1.1-0.4-1.6c-0.1-0.4-0.3-0.9-0.4-1.3c-0.1-0.4-0.4-0.9-0.5-1.3c-0.3-0.4-0.4-0.8-0.7-1.2
				c-0.3-0.4-0.5-0.8-0.8-1.2c-0.3-0.3-0.7-0.7-0.9-0.9c-0.4-0.3-0.7-0.5-1.1-0.8s-0.8-0.4-1.2-0.7c-0.5-0.1-0.9-0.4-1.5-0.5
				c-0.5-0.1-1.1-0.1-1.6-0.3c-0.5-0.1-1.2-0.1-1.7-0.3c-0.5,0-1.2,0-1.7,0.1c-3.6,1.2-7.1,2.4-10.8,3.5
				c-16.3,8.5-32.6,17.1-48.7,25.8c-5.4,6.3-10.8,12.6-16.1,19c-0.5,1.2-1.1,2.4-1.6,3.6c-0.4,1.2-0.7,2.6-1.1,3.8
				c-0.3,1.3-0.7,2.6-0.9,3.9c-0.1,1.3-0.4,2.7-0.5,4c-0.1,1.2-0.3,2.3-0.4,3.5c0,1.2,0,2.4-0.1,3.5c0,1.2,0,2.4,0.1,3.5
				c0.1,1.2,0.3,2.4,0.4,3.8c0.1,1.3,0.4,2.7,0.5,4c0.3,1.3,0.5,2.7,0.8,4s0.7,2.7,0.9,4c0.4,1.3,0.7,2.7,1.1,4s0.7,2.6,1.1,3.9
				c0.4,1.3,0.9,2.7,1.3,4c1.1,2.6,2,5.2,3.1,7.8c7.5,15.5,15.1,30.8,22.4,46.2c-0.9,2.2-2,4.3-3,6.5c-1.7,2.8-3.5,5.5-5.2,8.3
				c-0.1,0.4-0.3,0.7-0.4,1.1c0,0.4,0,0.8-0.1,1.2c0,0.4,0,0.8,0.1,1.2s0.3,0.9,0.4,1.3c0.1,0.4,0.3,0.8,0.4,1.2
				c0.3,0.5,0.5,0.9,0.8,1.5c0.3,0.5,0.7,0.9,0.9,1.5c0.4,0.5,0.8,1.1,1.2,1.6c3.6,2,7.3,3.9,10.9,5.9c4.6,0.3,9.1,0.4,13.7,0.7
				c5.9-1.3,11.8-2.8,17.6-4.2c5.1-2.6,10.2-5.1,15.5-7.8c1.2-0.7,2.6-1.5,3.8-2.2c1.3-0.7,2.6-1.5,3.9-2.2c1.2-0.8,2.6-1.6,3.8-2.4
				c0.3-0.3,0.7-0.4,0.9-0.7c0.3-0.1,0.7-0.4,0.9-0.5c0.7-0.4,1.3-0.7,2-1.1c1.2-0.8,2.4-1.7,3.6-2.6c1.2-0.9,2.6-1.7,3.8-2.6
				c1.2-0.9,2.4-1.7,3.6-2.7s2.4-1.7,3.6-2.7s2.3-1.9,3.5-3c1.2-0.9,2.3-1.9,3.5-3c0.5-0.5,1.1-1.1,1.6-1.6s1.2-0.9,1.7-1.5
				c1.2-0.9,2.3-2,3.5-3c1.1-1.1,2.2-2.2,3.2-3.2c1.1-1.1,2.2-2.2,3.2-3.2c0.3-0.3,0.5-0.7,0.7-0.9c0.1-0.1,0.3-0.3,0.4-0.4
				c0.1-0.1,0.3-0.3,0.4-0.4c0.5-0.5,1.1-1.1,1.6-1.6c1.1-1.1,2.2-2.3,3.2-3.4c10.6-13.8,21.4-27.6,32-41.4c0.3,0,0.4,0,0.7,0
				c-4.7,13.6-9.4,27.3-14.1,40.9c-1.9,10.1-3.6,20-5.5,30.1c0.4,4.7,0.8,9.4,1.2,14.1c0.3,0.4,0.4,0.9,0.7,1.3
				c0.3,0.5,0.5,0.9,0.8,1.5c0.3,0.4,0.5,0.8,0.8,1.2c0.4,0.4,0.7,0.8,1.1,1.2c0.4,0.4,0.7,0.7,1.1,1.1c0.4,0.4,0.8,0.8,1.2,1.2
				c0.4,0.3,0.8,0.7,1.2,0.9c0.5,0.3,1.1,0.7,1.6,0.9c0.5,0.3,1.2,0.5,1.7,0.9c0.7,0.3,1.2,0.7,1.9,0.9c0.7,0.3,1.3,0.5,2.2,0.8
				c0.8,0.3,1.5,0.5,2.3,0.8c8.3,0.8,16.5,1.5,24.9,2.3c0.9-0.1,1.9-0.3,2.8-0.4c0.3,0,0.4-0.1,0.7-0.1s0.5,0,0.7-0.1
				c0.5,0,0.9-0.1,1.5-0.1c0.9-0.1,1.7-0.4,2.7-0.5c0.8-0.3,1.7-0.4,2.6-0.7c0.4-0.1,0.7-0.3,1.1-0.4c0.4-0.1,0.8-0.3,1.2-0.4
				c0.8-0.3,1.5-0.7,2.3-0.9c0.3-0.1,0.7-0.4,0.9-0.5c0.4-0.1,0.7-0.3,1.1-0.4c0.7-0.4,1.3-0.7,2-1.1c0.7-0.4,1.2-0.8,1.9-1.2
				c2.4-3.1,4.7-6.3,7.1-9.4c1.6-3.8,3.1-7.4,4.7-11.2c3.6,3.8,7.1,7.4,10.8,11.2c1.1,0.7,2.2,1.2,3.2,1.9s2.3,1.3,3.4,2
				c2.4,1.2,4.7,2.6,7.1,3.8c1.2,0.5,2.6,0.9,3.8,1.5c1.3,0.5,2.7,1.1,4,1.6c1.1,0.4,2.2,0.7,3.2,1.1c1.1,0.4,2.3,0.7,3.4,1.1
				c1.1,0.3,2.2,0.7,3.2,0.9c0.5,0.1,1.1,0.3,1.6,0.4c0.3,0,0.5,0.1,0.8,0.1c0.3,0.1,0.7,0.1,0.9,0.3c2.2,0.4,4.4,0.8,6.6,1.2
				c1.1,0.1,2.2,0.3,3.2,0.4c1.1,0.1,2.2,0.3,3.2,0.4c1.1,0,2,0.1,3.1,0.1s2.2,0,3.2,0.1c1.1,0,2.2,0,3.2,0c1.1,0,2.2,0,3.2-0.1
				c1.1-0.1,2-0.1,3.1-0.3c0.5,0,1.1-0.1,1.6-0.1s1.1,0,1.6-0.1c1.1-0.1,2-0.3,3.1-0.4c1.1-0.1,2.2-0.4,3.2-0.5
				c2.8-0.7,5.6-1.5,8.3-2.2c1.3-0.4,2.8-0.8,4.2-1.2l14-4.3c1.6-0.7,3.2-1.2,4.7-1.9c1.6-0.7,3.2-1.3,5-2c1.6-0.7,3.2-1.5,4.7-2.2
				c0.8-0.4,1.6-0.8,2.4-1.2s1.6-0.7,2.4-1.1c1.6-0.8,3.2-1.6,4.7-2.4c1.6-0.8,3.2-1.6,4.7-2.4c0.3-0.3,0.4-0.4,0.7-0.7
				c0,0.3,0,0.4,0,0.7c0.4,1.2,0.8,2.4,1.2,3.5c0.1,0.7,0.3,1.2,0.4,1.9c0.3,0.5,0.4,1.2,0.7,1.9c0.3,0.5,0.5,1.1,0.8,1.6
				c0.4,0.5,0.7,1.1,1.1,1.6c0.4,0.4,0.8,0.8,1.2,1.2c0.4,0.4,0.9,0.8,1.3,1.2c0.5,0.3,1.1,0.7,1.6,0.9c0.7,0.3,1.2,0.5,1.9,0.8
				s1.3,0.7,2,0.9s1.3,0.7,2,0.9c0.8,0.3,1.6,0.5,2.4,0.8s1.7,0.5,2.6,0.8c0.8,0.3,1.7,0.4,2.6,0.7s1.9,0.4,2.7,0.7
				c19.2,0.5,38.3,1.2,57.5,1.7c18.4-3.9,36.7-7.9,55.1-11.8c9.8-3.4,19.8-6.7,29.6-10.1c5-4.3,9.8-8.7,14.8-13
				c3.8-6.3,7.5-12.6,11.4-19c0.1-0.8,0.3-1.7,0.4-2.6c0-0.8,0-1.6,0.1-2.4c-0.1-0.8-0.1-1.6-0.3-2.4c-0.1-0.7-0.3-1.3-0.4-2.2
				c-0.3-0.7-0.7-1.5-0.9-2.2c-0.4-0.7-0.7-1.3-1.1-2c-0.5-0.7-0.9-1.2-1.5-1.9c-0.5-0.5-1.2-1.2-1.7-1.7c-0.4-0.3-0.8-0.7-1.2-0.9
				c-0.4-0.3-0.8-0.5-1.2-0.8s-0.9-0.4-1.3-0.7c-0.4-0.1-0.9-0.3-1.3-0.4c-0.5-0.1-1.1-0.3-1.6-0.4c-0.5,0-1.1,0-1.6-0.1
				c-0.5,0-1.2,0-1.7,0.1s-1.1,0.1-1.6,0.3c-0.8,0-1.6,0-2.4,0c-1.1,0.3-2,0.4-3.1,0.7c5.1-7.5,10.4-15.1,15.5-22.6
				c0.1-0.9,0.4-1.9,0.5-2.7c0-0.4,0-0.9,0.1-1.3c0-0.4,0-0.8,0-1.2s-0.1-0.8-0.1-1.2c-0.1-0.4-0.1-0.8-0.3-1.2
				c-0.1-0.4-0.3-0.8-0.4-1.2c-0.1-0.4-0.3-0.8-0.4-1.2c-0.3-0.4-0.5-0.8-0.7-1.2c-0.3-0.4-0.5-0.8-0.8-1.2s-0.7-0.8-0.9-1.2
				c-0.3-0.4-0.7-0.8-0.9-1.2c-0.4-0.4-0.8-0.8-1.2-1.2c-0.4-0.4-0.8-0.7-1.2-1.1c-0.9-0.8-1.9-1.6-3-2.4c0-0.3,0-0.4,0-0.7
				c2-1.2,3.9-2.4,5.9-3.5c0.5-0.3,0.9-0.7,1.5-0.9c0.3-0.1,0.5-0.3,0.7-0.4c0.3-0.1,0.5-0.3,0.8-0.4c1.1-0.7,2-1.2,3.1-1.9
				c2-1.3,4-2.7,6-4c1.9-1.5,3.9-3.1,5.8-4.6c0.9-0.8,1.9-1.6,3-2.4c0.9-0.8,1.9-1.7,3-2.6c6.3-7.5,12.6-14.9,19-22.4
				C550.9,21.5,507.1,13.1,463.1,4.9z M575.9,37.3c-4,5-8.2,9.8-12.2,14.8c-5.4,3.8-10.8,7.5-16.1,11.3c-3.5,1.3-7,2.7-10.6,4
				c-0.7,0-1.2,0-1.9,0c-2.3,0.4-4.7,0.8-7,1.2c-0.7,0-1.2,0-1.9,0c-1.3,0.3-2.8,0.4-4.2,0.7c-13.6-1.1-27.3-2-40.9-3.1
				c-4.7,0.4-9.4,0.8-14.2,1.2c-3.2,5.5-6.3,11-9.4,16.5c0,0.1,0.1,0.3,0.1,0.4c0.1,0.1,0.3,0.3,0.4,0.4c0.3,0.1,0.4,0.1,0.7,0.3
				c0.3,0.1,0.7,0.3,0.9,0.4c0.3,0,0.7,0,0.9,0.1c0.4,0,0.8,0.1,1.2,0.1c0.5,0,1.1,0,1.6,0.1c0.5,0,1.2,0,1.7,0.1c3.4,0,6.6,0,9.9,0
				c14.2-3,28.5-5.9,42.7-8.9c6.7,0.7,13.3,1.5,20,2.2c0.4,0.1,0.7,0.4,1.1,0.5c0.3,0.3,0.7,0.5,0.9,0.7c0.7,0.5,1.2,1.1,1.9,1.6
				c0.5,0.5,0.9,1.1,1.5,1.5c0.4,0.7,0.7,1.2,1.1,1.9c0.3,0.5,0.5,1.2,0.7,1.7c0.1,0.7,0.3,1.3,0.4,2c0,0.7,0,1.3,0,2.2
				c-0.1,0.8-0.3,1.5-0.4,2.3c-3.4,5-6.7,9.8-10.1,14.8c-4.3,2.2-8.7,4.3-13,6.6c-0.5,0-1.2,0-1.7,0c-0.8,0.1-1.6,0.3-2.4,0.4
				c-1.1,0-2,0-3.1,0c-0.8,0.3-1.5,0.4-2.3,0.7c-1.2,0-2.3,0-3.5,0c-1.2,0.3-2.6,0.4-3.8,0.7c-13.6,0.8-27.2,1.6-40.9,2.4
				c-0.9,0.1-1.9,0.3-3,0.4c-0.7,0-1.2,0-1.9,0c-1.2,0.3-2.4,0.4-3.5,0.7c-3.5,0.9-7,1.9-10.6,3c-2,2.8-3.9,5.5-5.9,8.3
				c0,0.3,0,0.7,0,0.9s0.1,0.5,0.1,0.9c0,0.3,0.1,0.5,0.1,0.7c0.1,0.3,0.3,0.5,0.4,0.7c0.1,0.1,0.3,0.4,0.4,0.5
				c0.3,0.1,0.4,0.4,0.7,0.5c0.3,0.1,0.4,0.3,0.7,0.4s0.7,0.3,0.9,0.4c2.2,0.8,4.4,1.6,6.6,2.4c10.9,0.3,21.8,0.4,32.7,0.7
				c20.7-4.3,41.4-8.7,62.1-13c1.6,0,3.2,0,4.7,0c0.4,0.1,0.8,0.1,1.3,0.3c0.4,0.1,0.8,0.4,1.2,0.5c0.3,0.3,0.7,0.4,0.9,0.7
				c0.3,0.3,0.5,0.5,0.7,0.8c-0.1,2-0.3,3.9-0.4,5.9c-0.8,2-1.6,4-2.4,6c-0.7,1.2-1.2,2.3-1.9,3.5c-0.3,0.5-0.7,1.1-0.9,1.6
				c-0.3,0.5-0.7,1.1-0.9,1.6c-0.4,0.5-0.7,0.9-1.1,1.5c-0.1,0.3-0.4,0.5-0.5,0.7c-0.1,0.1-0.1,0.3-0.3,0.4c0,0.1-0.1,0.3-0.1,0.4
				c-0.1,0.1-0.3,0.1-0.4,0.3c-0.1,0.2-0.1,0.3-0.3,0.4c-0.1,0.3-0.4,0.5-0.5,0.7c-0.4,0.4-0.7,0.9-1.1,1.3s-0.8,0.8-1.2,1.2
				c-0.3,0.1-0.4,0.4-0.7,0.5c-0.1,0.3-0.4,0.4-0.5,0.7c-0.4,0.4-0.9,0.7-1.3,1.1c-0.4,0.4-0.8,0.7-1.2,1.1
				c-0.5,0.3-0.9,0.7-1.5,0.9c-0.3,0.1-0.5,0.3-0.7,0.4c-0.3,0.1-0.4,0.4-0.7,0.5c-0.9,0.5-1.9,1.2-3,1.7
				c-8.9,2.6-17.7,5.1-26.8,7.8c-2.4,0.4-5,0.8-7.4,1.2c-1.2,0.3-2.4,0.5-3.6,0.8s-2.3,0.7-3.5,0.9c-1.2,0.3-2.4,0.7-3.5,0.9
				c-1.1,0.4-2.3,0.7-3.4,1.1c-1.1,0.4-2.3,0.8-3.4,1.2s-2.2,0.9-3.2,1.3c-5.5,0.9-11,1.9-16.5,3c-0.5,0.3-1.2,0.4-1.7,0.7
				c-0.8,0-1.6,0-2.4,0c-0.5,0.3-1.2,0.4-1.7,0.7c-0.7,0-1.2,0-1.9,0c-0.9,0.3-1.9,0.4-2.8,0.7c-0.8,0-1.6,0-2.4,0
				c-0.9,0.1-1.9,0.4-3,0.5c-1.2,0-2.4,0-3.6,0c-1.2,0.3-2.4,0.4-3.5,0.7c-14.2-1.1-28.4-2-42.6-3.1c-0.9-0.1-1.7-0.4-2.7-0.5
				c-0.4-0.1-0.8-0.3-1.2-0.4c-0.4-0.1-0.7-0.1-1.1-0.3c-0.7-0.3-1.5-0.5-2.2-0.7c-0.7-0.3-1.2-0.5-1.9-0.7
				c-0.5-0.3-1.2-0.7-1.7-0.9c-0.3-0.1-0.5-0.4-0.8-0.5s-0.4-0.3-0.7-0.4c-0.4-0.4-0.8-0.8-1.2-1.2c-0.1-0.3-0.4-0.4-0.5-0.7
				c-0.1-0.1-0.3-0.4-0.4-0.5c-0.8-6.7-1.6-13.4-2.4-20.2c-0.5,0.3-1.2,0.4-1.7,0.7c-0.8,0.5-1.5,0.9-2.3,1.5
				c-0.7,0.5-1.5,1.1-2.2,1.6c-1.5,0.9-3,1.9-4.4,3c-1.5,0.9-3.1,1.9-4.6,2.7c-1.5,0.9-3,1.9-4.4,2.7c-0.8,0.4-1.6,0.8-2.4,1.2
				s-1.5,0.8-2.3,1.2s-1.6,0.8-2.4,1.2s-1.5,0.8-2.3,1.2c-1.6,0.8-3.1,1.5-4.7,2.3c-1.6,0.7-3.2,1.5-4.7,2.2
				c-6.9,2.2-13.8,4.3-20.7,6.3c-2,0.4-3.9,0.8-5.9,1.2c-0.7,0-1.2,0-1.9,0c-0.9,0.1-2,0.4-3,0.5c-0.9,0-1.9,0-3,0
				c-11.4-1.2-22.9-2.4-34.3-3.5c-1.3-0.4-2.7-0.7-4-1.1s-2.6-0.8-3.9-1.2c-1.2-0.5-2.6-1.1-3.8-1.5c-1.1-0.5-2.3-1.1-3.4-1.6
				c-0.5-0.3-1.2-0.7-1.7-0.9s-1.1-0.7-1.6-0.9c-0.9-0.7-2-1.3-3-2c-0.9-0.8-1.9-1.6-2.8-2.4c-0.8-0.8-1.6-1.6-2.4-2.4
				c-0.4-0.5-0.9-0.9-1.3-1.5c-0.4-0.5-0.8-0.9-1.2-1.5s-0.8-1.1-1.2-1.6c-0.3-0.5-0.7-1.1-0.9-1.6c-0.7-1.2-1.2-2.3-1.9-3.5
				c-0.3-0.7-0.5-1.2-0.8-1.9c-0.3-0.5-0.4-1.2-0.7-1.7c-0.3-0.7-0.5-1.3-0.7-2c-0.1-0.7-0.4-1.3-0.5-2s-0.3-1.3-0.4-2.2
				c-0.1-0.7-0.1-1.3-0.3-2c-0.1-0.8-0.3-1.5-0.4-2.3c0-0.7-0.1-1.5-0.1-2.2c0-0.8,0-1.6-0.1-2.4c0-0.8,0-1.5,0.1-2.3
				c-0.3,0-0.4,0-0.7,0c0-0.3,0-0.4,0-0.7c-0.3,0-0.4,0-0.7,0c-4.2,10.2-8.2,20.6-12.4,30.8c-2.2,3.9-4.4,7.8-6.6,11.7
				c-3.4,1.6-6.7,3.2-10.1,4.8c-0.5,0.3-1.2,0.4-1.7,0.7c-0.8,0-1.5,0-2.3,0c-0.5,0.1-1.2,0.4-1.7,0.5c-6.6-0.1-13.2-0.4-19.6-0.5
				c-1.2-0.3-2.6-0.7-3.8-0.9c-0.5-0.3-1.2-0.4-1.7-0.7s-1.1-0.5-1.6-0.7c-0.5-0.3-1.1-0.7-1.6-0.9c-0.4-0.3-0.9-0.7-1.3-0.9
				c-0.4-0.4-0.9-0.8-1.3-1.2c-0.4-0.4-0.8-0.8-1.2-1.2c-0.3-0.4-0.4-0.7-0.7-1.1c-0.1-0.4-0.3-0.7-0.4-1.1s-0.3-0.8-0.4-1.2
				c-0.1-0.4-0.1-0.8-0.3-1.2c-0.1-0.4-0.3-0.9-0.4-1.3c0-0.4-0.1-0.8-0.1-1.2c0-0.5-0.1-0.9-0.1-1.5s0-0.9,0-1.5
				c0-0.5,0-1.1-0.1-1.6c0-0.5,0-1.1,0.1-1.6c0-0.7,0-1.2,0.1-1.9c0.1-0.5,0.1-1.2,0.3-1.7c0.3-1.2,0.4-2.6,0.7-3.8
				c0.3-1.3,0.7-2.7,0.9-4c6.3-19.9,12.6-39.8,19.1-59.7c-0.8-9-1.6-18.1-2.4-27.2c-0.3,0-0.4,0-0.7,0c-17.3,22.9-34.7,45.7-52,68.7
				c-1.2,1.1-2.4,2.2-3.5,3.2c-1.2,1.1-2.3,2.2-3.5,3.2c-1.2,1.1-2.4,2-3.5,3.1c-1.2,1.1-2.3,2-3.5,3.1c-2.4,1.9-4.8,3.9-7.3,5.8
				c-0.1,0.1-0.4,0.1-0.5,0.3c-0.1,0.1-0.3,0.3-0.4,0.4c-0.3,0.3-0.7,0.5-0.9,0.7c-0.5,0.5-1.2,0.9-1.9,1.5
				c-1.2,0.9-2.4,1.9-3.6,2.7s-2.6,1.7-3.8,2.6c-1.2,0.8-2.6,1.7-3.8,2.6c-1.3,0.8-2.6,1.6-3.9,2.4c-1.2,0.8-2.6,1.6-3.8,2.4
				c-1.3,0.7-2.7,1.5-4,2.2s-2.6,1.5-3.9,2.2c-2.7,1.3-5.4,2.8-8.1,4.2c-4.6,1.3-9.1,2.8-13.7,4.2c-4.6,0-9,0-13.6,0
				c-0.4,0-0.9,0-1.3-0.1c-0.4,0-0.8-0.1-1.2-0.1c-0.4-0.1-0.8-0.1-1.2-0.3c-0.3-0.1-0.7-0.3-0.9-0.4c-0.3-0.1-0.7-0.4-0.9-0.5
				c-0.3-0.3-0.7-0.4-0.9-0.7c-0.5-0.5-1.1-0.9-1.6-1.5c0-0.5,0-1.2,0-1.7c0.1-0.8,0.3-1.6,0.4-2.4c0.3-0.7,0.7-1.3,0.9-2.2
				c0.5-0.7,1.1-1.3,1.6-2.2c0.8-0.5,1.5-1.2,2.3-1.7c0.1-0.1,0.3-0.4,0.4-0.5c0.1-0.1,0.4-0.3,0.5-0.4c0.3-0.3,0.7-0.5,0.9-0.9
				c0.3-0.4,0.5-0.7,0.7-1.1c0.1-0.1,0.1-0.4,0.3-0.5s0.3-0.3,0.4-0.4c0-0.3,0.1-0.4,0.1-0.7c0.1-0.1,0.1-0.4,0.3-0.5
				c0-0.1,0-0.3,0-0.4v-0.1c0,0,0,0,0-0.1c0,0,0,0,0.1,0c0-0.1,0.1-0.4,0.1-0.5c0-0.4,0-0.8,0.1-1.2c0-0.3,0-0.4,0-0.7
				c0-0.1,0-0.4,0.1-0.5c-4.2-6.7-8.3-13.4-12.6-20.2c-3.5-8.1-7-16.3-10.6-24.3c-3-9.8-5.9-19.6-8.9-29.4c-0.3-1.3-0.5-2.6-0.7-3.9
				c-0.1-1.2-0.3-2.4-0.4-3.6c0-1.2-0.1-2.4-0.1-3.5c0-1.1,0-2.3,0.1-3.4c0-1.1,0.1-2.3,0.1-3.4c0.1-1.1,0.3-2,0.4-3.1
				c0.3-0.9,0.5-2,0.7-3c0.3-0.9,0.7-1.9,0.9-2.7c0.5-1.2,1.1-2.4,1.6-3.5c0.7-1.1,1.2-2.2,1.9-3.2c0.7-0.9,1.3-2,2-3
				c0.8-0.9,1.5-1.7,2.3-2.7c0.8-0.8,1.5-1.7,2.3-2.6c0.9-0.7,1.7-1.5,2.7-2.2s1.7-1.3,2.7-2c0.9-0.5,2-1.1,3-1.6
				C46.7,26.2,63.2,18,79.6,9.6c0.1,0,0.3,0,0.4,0c0.3,0.1,0.7,0.1,0.9,0.3c0.3,0.1,0.7,0.4,0.9,0.5c0.3,0.3,0.4,0.4,0.7,0.7
				c0.3,0.3,0.4,0.5,0.7,0.8c0.1,0.3,0.1,0.7,0.3,0.9c0.1,0.4,0.1,0.8,0.3,1.2c0,0.4,0,0.8-0.1,1.2c0,0.5,0,1.1-0.1,1.6
				c-3.4,21.5-6.6,43-9.9,64.5c-0.1,1.3-0.3,2.7-0.4,4c0,1.3-0.1,2.7-0.1,4s0,2.7-0.1,4c0.1,1.3,0.1,2.7,0.3,4
				c0.2,1.3,0.1,2.7,0.3,4c0.3,1.3,0.4,2.8,0.7,4.2c0.3,1.3,0.5,2.7,0.7,4c0.3,1.3,0.7,2.8,0.9,4.2c0.3,0,0.4,0,0.7,0
				c0.4-0.3,0.8-0.4,1.3-0.7c0.7-0.7,1.3-1.2,2-1.9s1.3-1.3,2-2.2s1.3-1.5,2-2.3s1.5-1.6,2.2-2.4c0.7-0.9,1.3-1.9,2-2.8
				c0.7-0.9,1.5-1.9,2.2-2.8c0.7-1.1,1.3-2.2,2-3.2c0.7-1.1,1.5-2.2,2.2-3.2c0.7-1.2,1.2-2.4,1.9-3.5c0.5-1.1,1.2-2.3,1.7-3.4
				s0.9-2.2,1.5-3.2c0.4-0.9,0.8-2,1.2-3c0.3-0.9,0.7-2,0.9-3c0.3-0.9,0.5-1.9,0.8-2.8c0.1-0.9,0.3-1.9,0.4-2.7
				c0.1-0.8,0.3-1.6,0.4-2.4c-0.4-4.3-0.7-8.6-1.1-13c0.5-4.2,1.2-8.2,1.7-12.4c0.4-0.5,0.8-1.1,1.2-1.6c0.5-0.5,1.1-0.9,1.6-1.5
				c0.7-0.4,1.2-0.9,1.9-1.3c0.7-0.4,1.3-0.8,2.2-1.2c0.8-0.4,1.5-0.8,2.3-1.2c0.9-0.4,1.7-0.7,2.7-1.1c0.9-0.4,1.9-0.7,3-1.1
				c1.1-0.3,2.2-0.7,3.2-0.9c17.1-2.8,34-5.5,51.1-8.3c6.5,1.1,13,2,19.5,3.1c2.2-1.6,4.4-3.2,6.6-4.8c0.7-0.7,1.2-1.3,1.9-2
				c0.7-0.5,1.5-1.1,2.2-1.6s1.5-0.9,2.2-1.5c0.8-0.4,1.6-0.7,2.4-1.1c0.8-0.3,1.6-0.5,2.4-0.9c0.9-0.1,1.7-0.3,2.7-0.4
				c0.9-0.1,1.9-0.1,2.7-0.3c0.9,0,2,0,3,0.1c11.4,1.7,23,3.5,34.4,5.2c10.8,3.4,21.6,6.9,32.4,10.2c0,0.3,0,0.4,0,0.7
				c-0.7,0.5-1.2,1.2-1.9,1.7c-7,10.1-14.1,20.2-21.1,30.2c-4.2,8.3-8.3,16.5-12.6,24.9c0,0.3,0,0.4,0,0.7c0.3,0,0.4,0,0.7,0
				c0.5-0.4,1.2-0.8,1.7-1.2c5.1-5.8,10.4-11.4,15.5-17.2c1.2-1.2,2.4-2.3,3.5-3.5c1.2-1.2,2.6-2.3,3.8-3.5c2.7-2.3,5.4-4.4,8.1-6.7
				c1.5-1.2,2.8-2.3,4.3-3.5c1.5-1.1,3-2.2,4.4-3.2c3.2-2.3,6.3-4.4,9.5-6.7c1.6-1.2,3.1-2.3,4.7-3.5c1.6-1.1,3.2-2.2,5-3.2
				c1.6-1.1,3.2-2,5-3.1c1.7-0.9,3.4-1.9,5.1-3c1.7-0.9,3.4-1.9,5.1-3c1.7-0.9,3.5-1.7,5.2-2.7c1.7-0.8,3.6-1.7,5.4-2.6
				c1.9-0.8,3.8-1.6,5.5-2.4c0.8-0.4,1.7-0.8,2.6-1.2c0.9-0.4,1.7-0.7,2.7-1.1c1.7-0.7,3.5-1.2,5.2-1.9c1.7-0.5,3.5-1.2,5.2-1.7
				c1.7-0.4,3.5-0.9,5.2-1.3c1.7-0.4,3.4-0.8,5.1-1.2c1.7-0.3,3.5-0.5,5.2-0.8c1.7-0.1,3.4-0.4,5.1-0.5c1.7,0,3.4-0.1,5.1-0.1
				c4.3,0.4,8.7,0.7,13,1.1c3.5,1.6,7,3.2,10.6,4.8c-0.8,4.2-1.6,8.2-2.4,12.4c-3.5,10.5-7,21-10.6,31.5c0,0.1,0,0.3,0,0.4
				c0.3,0,0.4,0,0.7,0c11.7-3.5,23.3-6.5,34.8-9.3c0-0.4,0-0.7,0-1.1c-6-2-12.2-4-18.3-6c-2.3-1.7-4.7-3.5-7-5.2
				c-0.1-0.5-0.3-1.1-0.4-1.6c0-0.5,0-1.1,0-1.6s0.1-1.1,0.1-1.6c0.1-0.5,0.4-1.1,0.5-1.6c0.3-0.5,0.5-1.1,0.7-1.6
				c0.4-0.5,0.8-1.1,1.2-1.6c0.4-0.5,0.9-1.1,1.3-1.6c0.5-0.5,1.2-1.1,1.7-1.6c4.3-3.1,8.7-6.3,13-9.4c4.7-0.7,9.5-1.2,14.2-1.9
				c4.7,0.3,9.4,0.4,14.1,0.7c33.2,5,66.4,9.9,99.6,14.8c8.6,2.2,17.3,4.3,25.9,6.6C576.3,36.9,576.2,37,575.9,37.3z"/>
		</g>
	</g>
</g>
</svg>
