<svg xmlns="http://www.w3.org/2000/svg" viewBox="0 0 364.01 364.03"><g id="Layer_2" data-name="Layer 2"><g id="Layer_1-2" data-name="Layer 1"><path d="M319.36,155.62c-.85.91-23.42,25.2-24.65,26.58s-1.36,3.19,2,3.21c0,0,18.6.08,21.56.08s3.83-1.08,3.83-2.91c0-1.24.36-23.72.36-26.26S321,153.74,319.36,155.62Z"/><path d="M0,0V226.83l.44-.19c.31-.16,5.84-2.15,8.68-4.35,1.42-.92,80.45-87.06,81.81-88.4A.68.68,0,0,1,92,134c.31.66-.89,82.45-.84,83.75s.23,3.12,2.47,4.2,10,4.41,11,4.81c.38.14.12.56-.56.56H59.86s-.63-.14-.14-.35,14.75-4.83,15.8-5.16c2.2-.77,2.77-1.24,2.86-4.61s1-22.55,1-23.75.38-3.56-2.78-3.78c-1.48-.12-6.36-.54-11.42-.67-6-.17-12.36,0-13.41,0-3.44.06-4.26.28-6.21,1.75C44,191.9,22.78,218.2,22,219.35s-.61,2.53,1.62,3.21,15.77,3.47,18.84,4.08c.45.12.36.65-.25.65H.52l-.52,0V364H364V0ZM154.69,141.49a5.63,5.63,0,0,0-3.5,3.79c-.43,1.39-17.14,71.83-17.37,73.07-.31,1.6-.4,3,1.45,3.64s11.42,4.19,12.17,4.47.58.85-.24.85h-41c-.78,0-1.15-.26-.47-.57.86-.4,9.86-3.63,10.78-4s3.26-1.22,3.92-3.33c.46-1.5,17.64-72.34,17.95-73.7.4-1.73.23-3.47-1.78-4.2l-12-4.12c-.58-.19-.58-.59,0-.59h43c.46,0,.93.36.29.52s-7.66,2.25-8.44,2.46S156,140.92,154.69,141.49Zm83.08,80.2c-1.21.43-15.53,6-29.46,6.34-35.68.93-48.75-24-42.64-46.67,3.21-11.93,11.05-23.14,21-31a76.76,76.76,0,0,1,44.66-14.93c4.17,0,14.81.52,22.6,2.56,3.79,1,3.22,3.12,2.8,4.64-.21.77-8.6,26-8.86,26.63-.35.93-1.12,1-1.15-.07,0-.54,1.06-22.9,1-23.86,0-2.34,0-3.79-2.7-4.63-3.65-1.2-21.16-2.72-34.08,3.3-21.7,10.1-34.29,33.45-31.76,52.09,2.09,15.32,14.3,27.84,33.69,28.36a42.22,42.22,0,0,0,11.88-1.15c2-.58,2.22-1.14,2.65-2.29s3.69-14.81,3.82-15.4.94-2.51-1.05-3-19.53-5.29-20.49-5.53-.51-.73.21-.73h33c1.37,0,4.84-.32,3.9,3s-6,19.08-6.43,20.18A3.83,3.83,0,0,1,237.77,221.69Zm108.7,5.62H302.24s-.66-.15-.17-.36,14.75-4.82,15.8-5.15c2.18-.78,2.77-1.25,2.86-4.62s1-22.55,1-23.74.37-3.57-2.79-3.79c-1.45-.11-6.33-.53-11.38-.67-6.07-.17-12.39,0-13.45,0-3.42.06-4.24.28-6.16,1.75-1.52,1.18-22.78,27.48-23.6,28.62s-.64,2.53,1.59,3.21,15.77,3.47,18.89,4.08c.45.12.35.66-.28.66H242.87c-.45,0-.38-.49-.07-.65s5.81-2.16,8.64-4.36c1.46-.92,80.48-87.06,81.85-88.4.43-.35.9-.28,1.06.1.33.65-.84,82.44-.82,83.75s.19,3.12,2.47,4.19c2.1,1,9.95,4.41,11,4.81C347.4,226.88,347.13,227.31,346.47,227.31Z"/><path d="M54.33,185.41s18.59.08,21.59.08,3.82-1.08,3.82-2.91c0-1.24.35-23.72.35-26.26s-1.42-2.58-3.07-.7c-.84.91-23.44,25.2-24.66,26.58S51,185.39,54.33,185.41Z"/></g></g></svg>