<svg xmlns="http://www.w3.org/2000/svg" viewBox="0 0 1545.33 417"><g id="Layer_2" data-name="Layer 2"><g id="Layer_1-2" data-name="Layer 1"><path d="M74.09,417c-9.48-1.7-19-3.1-28.42-5.18A77.2,77.2,0,0,1,16.51,399.2C.93,387.9-3.82,371.78,3.09,353.76s19.85-31.45,34.06-43.71c27.15-23.42,58.41-40.11,91.08-54.32,3.82-1.66,5.5-3.67,6.16-7.89,6.3-40,13-79.88,19.35-119.85,3.47-21.85-.08-42.74-9.46-62.78-6.91-14.79-13.43-29.76-20-44.72-1.41-3.21-2.12-6.73-3.15-10.11l1.76-1.17c2,1.94,4.21,3.66,5.81,5.86,7,9.69,13.18,20.14,21,29.18C168.22,65.8,192.32,74,220.4,71.42c19.5-1.81,37.7-8,55.48-15.84,2.56-1.13,5.3-1.85,7.95-2.75l.88,1.61c-1.6,1.51-3.09,3.15-4.8,4.52-16.27,13-32.22,26.44-49,38.74-8.75,6.41-12.27,14.89-14.58,24.56-6.23,26-5.2,51.51,5.71,76.31,2.81,6.39,5.23,13,7.52,19.58,1.4,4,3.42,5.29,7.79,4.41a344.27,344.27,0,0,1,87-6.42c19.06,1.06,37.82,4.13,54.9,13.43a54.66,54.66,0,0,1,12.12,8.7c12.54,12.29,14.54,28.11,6.2,45.57-7.72,16.17-19.95,28.69-33.37,40-32.47,27.45-70,46.17-109.37,61.24a501.52,501.52,0,0,1-124.41,30.5c-3.78.42-7.55.92-11.33,1.39Zm56.24-145.43c-2.32.91-3.57,1.31-4.73,1.88-19.8,9.8-38.46,21.35-55,36.05-9.67,8.59-18.08,18.2-23.35,30.22-6.49,14.79-3.14,28.17,10.09,37.38a62.15,62.15,0,0,0,16,8c25.14,8.19,51,7.19,76.74,4.42,31.13-3.34,61.23-11.25,90.54-22.13C270.88,356.1,299.7,342,325.2,321.86c12.77-10.08,24.36-21.29,31.28-36.45,7.06-15.45,3.35-29.36-10.75-38.88-12.4-8.37-26.69-10.91-41.18-12.5-20.52-2.26-40.92-.34-61.28,2.2a52.91,52.91,0,0,0-6.05,1.52c2.71,7.33,5.39,13.95,7.6,20.72q10.27,31.59,20.19,63.28c.57,1.8.38,3.84.55,5.76L264,328c-1.44-1.94-3-3.81-4.28-5.84Q235.78,284.66,212,247.09c-1.71-2.7-3.31-4.27-6.8-3.08-19.07,6.46-38.25,12.62-57.23,19.34-2.68.95-5.22,4-6.52,6.77-3.44,7.2-6.13,14.77-9.23,22.14a52,52,0,0,1-3,5.37l-1.81-.43ZM201.56,230c-5.69-6.94-10.38-13.4-15.85-19.13-6.45-6.76-11.62-6.33-16.5,1.73-5.76,9.51-10.58,19.6-15.74,29.47a16.41,16.41,0,0,0-.85,3.41Z"/><path d="M200.09,0a18.52,18.52,0,0,0,2,1.49c11.9,6.6,14.57,12.51,10.8,25.4-2.85,9.77-6.51,19.25-13.72,26.82-6.09,6.39-13.08,5.88-16.95-2-6.77-13.8-7.24-28.37-1.13-42.4,1.72-4,7.25-6.25,11-9.31Z"/><path d="M1442.34,321.56c-8.87,0-17.16.14-25.42-.2-.91,0-2.38-2.86-2.43-4.43-.25-7.83-.13-15.67-.13-23.5q0-34.74,0-69.49c0-6.75,0-6.78-6.49-6.78-30.17,0-60.33.1-90.49-.11-4.8,0-6.19,1.24-6.15,6.11.22,30.83,0,61.66.22,92.49,0,4.92-1.5,6.43-6.23,6.16-5.64-.33-11.33-.23-17,0-3.71.12-5.19-1.41-4.87-5,.1-1.16,0-2.33,0-3.5q0-101,0-202c0-1.67.06-3.33.05-5,0-2.46,1-3.58,3.62-3.54,6.67.11,13.34.21,20,0,3.76-.14,4.38,1.63,4.34,4.82-.12,11.33,0,22.67,0,34,0,14.83.11,29.67-.08,44.5,0,3.74,1.12,4.82,4.84,4.81q46.49-.2,93,0c4.34,0,5.35-1.59,5.33-5.54-.12-25.33-.07-50.67-.05-76,0-6.53,0-6.54,6.64-6.54,5.83,0,11.67.08,17.5,0,2.73,0,4.06.93,3.83,3.76-.09,1.16,0,2.33,0,3.5V321.56Z"/><path d="M1217.34,145.08c-46.26-36.35-98.57-20.19-122.62,9.14a91.74,91.74,0,0,0,.55,116.88c22.61,27.29,75.36,45.68,121.51,7.47a30.37,30.37,0,0,1,.53,3.91c0,7-.45,14,.17,21,.55,6.09-2.13,8.73-7.27,11.15-65.56,30.86-142.27-3.08-160.59-71.91-18.18-68.3,27.25-133.16,94.38-143,23.74-3.49,46.41-.48,68,10.28,3.86,1.93,5.7,4.22,5.47,8.82C1217,127.19,1217.34,135.66,1217.34,145.08Z"/><path d="M970.13,160.15c-6.6-7.24-12.19-14.34-18.74-20.41C903.77,95.56,829.48,109,798.11,168.26,766.19,228.52,806.75,303.18,875,309.9c35.47,3.49,64.66-9.57,87.08-37,9.26-11.33,13.66-27.81,13.14-42.66-2-.15-4.1-.44-6.18-.45-21.66,0-43.32,0-65-.09-2.11,0-5.88-.78-6-1.66a41.91,41.91,0,0,1,.18-11.29c0-.46,2.62-.91,4-.91,27.82-.05,55.65,0,83.47-.12,3.9,0,4.64,1.48,4.71,5,1,54.18-31.81,93.09-86.36,102.33C845.4,333,788.13,294.79,774.94,237c-13.62-59.64,24.46-120,84.55-134.16,45.63-10.71,91.75,6.68,119.48,44.92,1.91,2.64,1.92,4.21-.74,6.07C975.39,155.83,972.74,158.09,970.13,160.15Z"/><path d="M594.8,139.29c-3.18-3.88-5.75-7.38-8.68-10.53-16.34-17.58-43.94-20.14-61.59-5.9-15.58,12.57-24.6,44,2.22,60.28,15.06,9.12,31.18,16.49,46.65,24.94,8.74,4.77,17.94,9.17,25.56,15.41,16.21,13.28,20.84,35.72,13.16,57.06-9.35,26-36.14,44.1-65.4,44.17a67.75,67.75,0,0,1-63.24-44c-1.06-2.92-.29-4.08,2.31-5.33,8.86-4.25,8.78-4.32,13.26,4.23,9.95,19,25,30.81,47,31,21.53.23,38.59-9,48.82-28.2,10.84-20.36,8-40-12.42-52.59-14.55-9-30.08-16.41-45.19-24.51-5-2.68-9.93-5.44-15-7.92-29.91-14.63-32.28-44.16-21.86-67.08C512.15,104.48,543,93,571.87,103.22a61,61,0,0,1,30.51,23.18c2.21,3.18,2.6,5.43-1,7.69A70.2,70.2,0,0,0,594.8,139.29Z"/><path d="M1545.25,212q0,51.47,0,102.93c0,6.76,0,6.78-7,6.81-5.5,0-11-.11-16.49,0-3.59.08-4.94-1.25-4.91-5,.16-16.49.07-33,.07-49.47V109.41c0-6.63,0-6.64,6.49-6.65,5.49,0,11,.22,16.48-.08,4.14-.22,5.46,1.24,5.42,5.38-.19,18-.08,36-.08,54Z"/><path d="M702.25,212.34q0,51.72-.08,103.44c0,1.87-1,5.27-1.82,5.34a50.79,50.79,0,0,1-12.18-.57c-.52-.08-.77-3.33-.77-5.11-.06-19.49,0-39,0-58.47q0-73.46.06-146.92c0-2.32.59-6.52,1.43-6.66a42.33,42.33,0,0,1,12.31.07c.59.07,1,3.54,1.05,5.44Q702.3,160.62,702.25,212.34Z"/></g></g></svg>