<svg xmlns="http://www.w3.org/2000/svg" viewBox="0 0 389.4 340.2"><g id="Layer_2" data-name="Layer 2"><g id="Layer_1-2" data-name="Layer 1"><g id="ba6QbT.tif"><path d="M172,71.61c0,19.78.41,39.57-.09,59.34-1,41.05-32.89,75.49-73.69,80.23-43.25,5-82.67-20.55-93.23-61a92.45,92.45,0,0,1-2.85-22.66C1.83,88,2,48.44,2,8.87,2,1.78,3.68.11,10.82.1q15.46,0,30.93,0c6.24,0,7.94,1.75,7.94,8.05,0,39.4,0,78.8,0,118.2,0,18.7,11.36,33.33,28.51,37.3,23.12,5.34,44.93-11,45.92-34.69.39-9.62.12-19.28.12-28.92q0-44.39,0-88.78C124.29.76,125,.09,135.7.09h26.44c8.65,0,9.9,1.21,9.9,9.67q0,30.93,0,61.85Z"/><path d="M296.1,58.79c1.39-2.11,2.39-3.56,3.33-5.06,10.09-16,20.26-32,30.18-48.18,2.47-4,5.45-5.64,10.17-5.55,12.63.25,25.28-.07,37.91.23,2.49.06,5.91,1.27,7.1,3.11.94,1.44-.32,5.06-1.6,7.07-18.32,28.54-36.82,57-55.26,85.42-1.27,2-2.5,3.91-4,6.27,1.18,1.9,2.36,3.85,3.58,5.78q28.85,45.5,57.6,91c1.35,2.16,2.78,6.07,1.79,7.45-1.35,1.87-5,2.82-7.66,2.89-11.8.29-23.62,0-35.42.21-4.73.1-7.66-1.65-10.17-5.6-11.33-17.81-22.9-35.48-34.39-53.19-.88-1.37-1.85-2.68-3.24-4.69-1.3,1.86-2.34,3.23-3.26,4.68-11.13,17.54-22.37,35-33.28,52.71-2.8,4.54-6.12,6.26-11.39,6.11-11.3-.33-22.62.1-33.92-.24-3-.1-6.68-1.16-8.57-3.17-1-1,.75-5.48,2.2-7.79q28.78-45.81,57.87-91.45c1-1.53,1.9-3.09,2.94-4.78q-17-26.4-33.85-52.51c-8.38-13-16.89-25.91-25.05-39-1.31-2.11-2.21-5.64-1.31-7.6.74-1.64,4.4-2.65,6.79-2.7C228,0,240.79.21,253.59,0c4.35-.07,7.11,1.55,9.34,5.22,9.85,16.19,19.87,32.27,29.84,48.39C293.7,55.15,294.69,56.62,296.1,58.79Z"/><path d="M249.69,339.73h-5.94l-23.7-45.42-1.27.12c-2.15,14.59-4.29,29.17-6.47,44H191c5.51-33,10.93-65.41,16.4-98.18h6.06c10.87,20.26,21.76,40.52,33.19,61.82,11.43-21.32,22.31-41.59,33.2-61.89h6c5.45,32.51,10.85,64.7,16.4,97.79H280.81q-3.18-21.45-6.4-43.09l-1.25-.5Z"/><path d="M134.7,240.05h4.86l45.23,97.63c-2.6.47-4.25.89-5.93,1s-3.7-.23-5.48.08c-7.8,1.36-12.75-1.55-14.82-9.31a26.38,26.38,0,0,0-2.24-4.63H117.89c-1.46,3.14-2.57,6.72-4.67,9.58a10.64,10.64,0,0,1-6.48,4.12c-5.29.61-10.69.19-17.71.19Zm3.09,43-1.37-.06-10,22.62h21.54C144.36,297.71,141.07,290.39,137.79,283.06Z"/><path d="M72.24,310.79l12.68,13.53c-5,11.07-26.77,18.22-44.56,15.18C19.11,335.86,2,316.94.19,295c-2-23.4,11.17-44.39,32.7-52.26,18.47-6.75,42.85-1.42,52.27,12.13L72,268.7c-8.38-6.56-17-10.34-27.25-7.81a26.74,26.74,0,0,0-15.13,9.92c-8.66,11.2-8.28,27.74.86,38.32C40.4,320.67,53.68,321.37,72.24,310.79Z"/><path d="M344,303.06v35.06h-20.9V241.74c2-.17,3.6-.41,5.2-.41,9.79,0,19.59-.09,29.39,0,18.06.15,31.74,13.5,31.7,30.82,0,17.52-13.44,30.66-31.57,30.91C353.55,303.11,349.26,303.06,344,303.06Zm.41-19.82h11.06a29.78,29.78,0,0,0,3-.06,10.94,10.94,0,0,0,10-10.11c.46-5.41-2.88-10.44-8.44-11.18-5-.66-10.15-.14-15.57-.14Z"/></g></g></g></svg>