<svg xmlns="http://www.w3.org/2000/svg" viewBox="0 0 378.17 175.69"><g id="Layer_2" data-name="Layer 2"><g id="Layer_1-2" data-name="Layer 1"><g id="IyjhJ0"><path d="M278.33,1.07h76.52c.39,5.78.12,11.36.19,17.19-5.25.91-10.21.34-15.14.44s-10,0-15,0H295C293.71,27,292.47,35,291.33,43S289.15,59,288,67.24a13.5,13.5,0,0,0,2.4.35c12.26-.83,24.21.52,35.69,5.06,16.46,6.5,25.86,18.41,28.3,36.08a57.9,57.9,0,0,1-4,30.15l2.2,1.36c.32,1.07.64,2.14,1,3.31h14.84c.38-1.2.76-2.4,1.19-3.73l2.24.18v12.69H349.54v-9.95l-.77-.25c-.75,1.1-1.5,2.19-2.26,3.28-7.25,10.42-17.25,17.06-29.3,20.45-16.92,4.76-33.82,4.53-50.49-1.37-2-.71-3.91-1.75-6-2.7v-16a27.83,27.83,0,0,1,2.73.75,78.5,78.5,0,0,0,32.69,5.71c11.79-.54,22.69-3.74,30.82-13.06,6.51-7.45,8.74-16.25,7.7-26a46.4,46.4,0,0,0-1.11-6.87C331,97,324.26,91.06,315.05,88.1a65.26,65.26,0,0,0-16.57-3.16c-10.46-.49-21-.14-32.26-.14.71.5.56.42.45.31a.87.87,0,0,1-.26-.4,2.74,2.74,0,0,1-.11-1q5.59-40.47,11.22-80.95A7.55,7.55,0,0,1,278.33,1.07ZM369,149.75c-.13-1.22-.2-1.83-.29-2.62H353.22c.11,1.06.19,1.79.27,2.62Z"/><path d="M265.31,118.37H174.38c-.07-2.91-.15-5.67-.18-8.44s0-5.62,0-8.92c6.74-.46,13.18-.17,19.6-.22s12.93,0,19.23,0c1.18-4,1.39-73.47.29-79.16-7.42,1.74-14.56,4.35-21.81,6.55s-14.26,4.43-21.37,6.65c-1.22-3.33-1.44-10.63-.58-17.46,3.77-1.4,7.63-2.9,11.53-4.26C191,9.64,200.91,6.32,210.77,2.77A29.82,29.82,0,0,1,222.47.83c3.3.15,6.62,0,10.55,0,.1,7,0,13.56,0,20.16s0,13,0,19.49v60c10.65.73,21.08-.09,32,.48.07,2.85.16,5.61.19,8.37S265.31,115,265.31,118.37Z"/><path d="M23.12,16.62l1.82-2.41,8.12-.39V1.14L38.5.85c1,4.06,1.17,44.27.22,49.82l-5.24.25c-.42-5.25-.16-10.2-.2-15.12s0-10,0-15.36H24.72l6,12.82-5,2.9L15.45,14.44c-3.61,8-6.86,15.15-10.26,22.68L0,34.55,15.26,1.39C18.37,6.64,20.24,11.52,23.12,16.62Z"/><path d="M121.59,92.17H176.8c.08,1.72.16,3.29.26,5.36-6.61.48-12.87.18-19.13.24s-12.6,0-19.47,0c-.48,5.39-.15,10.43-.21,16h30.59c.13,2.06.24,3.63.38,5.74-12.4.47-24.42.15-37,.28V98H121.59Z"/><path d="M152.57,52.77v5.15c-3.93,1-29.57,1.15-35.17.22V43.88l13.46,0H144.5c.07-1.46.12-2.35.19-3.7-9.49-.82-18.76.17-28.21-.6V34.07c11.45-.12,22.65-.15,34,0,.93,5.16.61,9.72.27,14.82H123.56l-.33,3.87Z"/><path d="M28.78,95.45H6.3c-1.16-3.69-1.47-20.14-.56-28.28H11l.47,7.88c3.74,1.16,7.31,1.22,12.18.16l.66-8,3.88-.4C29.65,68.22,29.88,89,28.78,95.45ZM23.08,82c-3.79.06-7.65-.69-11.48.46v7.23H23.07A7.93,7.93,0,0,0,23.08,82Z"/><path d="M116.88,90v5.25c-8.12.89-16.09-.11-24.55.62v16.73h-6V95.92c-8.48-.63-16.43,0-24.77-.42V90Z"/><path d="M47.14,111.78h-5C41,108.21,40.56,73.67,41.52,62l5.5-.25V77.49H59.66l.56,5.16H48.15c-1.69,3.44-.84,6.62-1,9.68s0,6.31,0,9.47Z"/><path d="M98.07,42.66H91.7V.4h6c.21,3.68.4,7.23.62,11.16H109.9c.21,1.77.36,3.16.58,5.08l-12.41.83Z"/><path d="M161.17,24.54v4.57c-3.53,1-49.31,1.31-55.48.31V24.9C109.51,23.83,154,23.54,161.17,24.54Z"/><path d="M57.1,145.86l-3.9,3C49,141.68,45,134.73,40.53,127.15c-3.39,3.54-4.83,7.64-7.05,11.17s-4.13,7.19-6.4,11.2l-4.48-2.83c5.75-10.26,11.31-20.21,16.9-30.19C42.1,118.9,54.41,139.45,57.1,145.86Z"/><path d="M137.65,129.86H125.47c-.79,4.89-.31,9.51-.4,14.08s0,9.31,0,14.4h-5.61V114.25a18.38,18.38,0,0,1,2.39-.44,27.85,27.85,0,0,1,3,.24c.08,1.8.14,3.57.22,5.33s.16,3.25.26,5.39h12.34Z"/><path d="M91.56,151l5.32-.65c.15,5.17.29,10.06.44,15.52,9.9.2,19.5,0,29.58.12.15,1.77.28,3.33.4,4.82-3.73,1.1-29.77,1.35-35.74.39Z"/><path d="M84.15,28.44,79.7,31.12,68.52,13.18C64.61,19.63,61,25.5,57.29,31.67l-5-2.64L67.8,2.84C70.63,5.17,80.85,21.22,84.15,28.44Z"/><path d="M49.06,50.72c-1.41.11-2.38.26-3.35.24a11.79,11.79,0,0,1-2.08-.48V1.12C45.27-.45,47,0,49.06.36Z"/><path d="M68.58,163.77H64c-1-3.55-1.31-42-.4-49.68l4.56-.31C69.23,117.53,69.54,156.18,68.58,163.77Z"/><path d="M138.22,79.8H168v4.9H133c-1-3.55-1.2-15.93-.25-21.44H138c.08,2.61.19,5.2.23,7.79S138.22,76.34,138.22,79.8Z"/><path d="M105.68,143.73h-5.12c-.72-6.47.08-12.92-.51-19.5-6.08-1.53-12.28.32-18.51-1.24l-.21-4.65c4.2-.85,8.16-.35,12.09-.43s7.94,0,11.82,0C106.38,121.51,106.64,136.83,105.68,143.73Z"/><path d="M82.64,59.83c-6.07.05-10.49-4-10.43-9.67.06-5.45,4.32-9.39,10.14-9.38,5.66,0,10.2,4.14,10.31,9.38S88.18,59.78,82.64,59.83ZM78.06,48.1l.63,5.12,5,1.36c1.28-1.44,2.5-2.83,4.15-4.68l-5.24-4.2Z"/><path d="M133.93,19.89a9.28,9.28,0,0,1-9.71-9.11,9.16,9.16,0,0,1,9.28-9c5.46-.09,9.72,3.9,9.7,9.09A9.21,9.21,0,0,1,133.93,19.89Zm-.24-5.1c2.23-.81,3.78-1.95,3.55-4.34C137,8.37,135.65,7.3,133.66,7,128.94,9.67,128.88,11.58,133.69,14.79Z"/><path d="M108.52,86.68h-5.2c-.14-5.19-.27-10.23-.43-15.81H88.56l-.21-4.49c1.62-1.67,13.62-2,19.8-.79C109.23,68.93,109.46,80,108.52,86.68Z"/><path d="M68.13,65.28H86.19c0,3.66.08,7.08.1,10.51s0,6.91,0,10.71H81c-1.43-5,0-10-1.05-15.49H68.47Z"/><path d="M378.17,156.73c-.18,1.4-.27,2-.4,3H363.5c-.27,2.46-.49,4.53-.75,6.91l-3,.18c-.25-2.32-.47-4.4-.73-6.87H342.79L342,156.8C354.13,156.62,365.85,156.72,378.17,156.73Z"/><path d="M349.24,162.11h2.87c.14,3.36.28,6.74.44,10.63h19.77c1,2,.12,2.87-1.17,2.89-7.11.09-14.23,0-21.91,0V162.11Z"/><path d="M144.42,171.54l-2.81.19a30,30,0,0,1,.93-13.44h4.28a5.32,5.32,0,0,1,.26,1.69C146.27,163.66,145.4,167.32,144.42,171.54Z"/></g></g></g></svg>