<svg xmlns="http://www.w3.org/2000/svg" viewBox="0 0 404.55 151.34"><g id="Layer_2" data-name="Layer 2"><g id="Layer_1-2" data-name="Layer 1"><path d="M181.07,151.29c0-8.14-.1-15.71,0-23.27.08-4.74-1.21-11,1.26-13.75,2.13-2.39,8.72-1,13.34-1,17.12-.07,34.24,0,51.36,0,6.85,0,8.17-1.37,8.24-8.12.16-14,.16-14-14-14-11.14,0-22.28.08-33.42,0-18.34-.18-26.91-8.74-27-26.89-.07-11.59-.08-23.18,0-34.78a58.31,58.31,0,0,1,.87-9.87c2.1-11.44,9.37-18.32,21-19.08,9.11-.59,18.28-.32,27.42-.34,16.45,0,32.91,0,49.37,0h6.18V37.36c-1.89.14-3.79.4-5.69.4-18.62,0-37.24,0-55.86,0-7.73,0-8.89,1.24-8.93,9-.08,12.87-.08,12.87,12.9,12.87,11,0,21.94,0,32.91,0a64.24,64.24,0,0,1,8.44.6c11.47,1.62,19,8.88,19.43,20.46.59,15.71.64,31.48,0,47.18-.55,13-8.66,20.91-21.56,22.75a57.26,57.26,0,0,1-8,.6q-36.4.06-72.81,0Z"/><path d="M77.89.44h34.39V6q0,58.38,0,116.74a63.59,63.59,0,0,1-.53,7.92c-1.41,11.07-8.06,18.15-19.16,19.74a121.1,121.1,0,0,1-16.4.83c-15.78.1-31.57.14-47.36,0a54.8,54.8,0,0,1-12.3-1.54c-8.36-2-13.5-7.56-15.38-15.87a43.17,43.17,0,0,1-1-9.35C.07,84.87.15,45.3,0,5.73,0,1.52.9-.19,5.48,0c8,.36,16,.3,23.92,0,4-.14,5,1.34,5,5.13-.12,32.62-.07,65.24-.07,97.86,0,9.52.69,10.21,10.15,10.22q12.21,0,24.43,0c8,0,9-1,9-8.8q0-48.93,0-97.86Z"/><path d="M301.55.47h103V37.59H370.12V151H336.18c-.13-2.16-.35-4.23-.35-6.3,0-33.79-.08-67.58.08-101.36,0-4.29-1-5.8-5.53-5.64-9.46.34-18.93.11-28.83.11Z"/><path d="M163.81,151.05H130.13V.44h33.68Z"/></g></g></svg>