<svg xmlns="http://www.w3.org/2000/svg" viewBox="0 0 573.53 498.7"><defs><style>.cls-1{fill:#fff;}</style></defs><g id="Layer_2" data-name="Layer 2"><g id="Layer_1-2" data-name="Layer 1"><path d="M430.67,0H573.53c-.07,3-.2,6-.2,9q0,240.5,0,481c0,2.73-.23,5.45-.36,8.45H430.39V392.71H286.63v52.88H143.55V498.7H0V8C0,5.32.06,2.66.09,0H144V53.88h143v52.54H430.42c0-4.94,0-9.57,0-14.19Q430.54,46.12,430.67,0Zm18.78,18.16v87.15c13.22,0,25.73.92,38-.26,12.13-1.16,19.89-9.1,22.2-21.14a111.87,111.87,0,0,0,.11-43.11c-2.17-10.86-8.92-19-19.95-20.49C476.79,18.49,463.44,18.8,449.45,18.16Zm-83,132c-2.5-16.93-15.12-27.2-32-26.78-16.34.4-28.52,11.11-29.58,27.14a256.62,256.62,0,0,0,0,33.85c1.06,15.68,13.34,27,29.21,26.95,28.34-.08,36.43-21.11,31.78-47.17h-30v11h18.07c-.25,3.75-.18,6.58-.65,9.31-1.62,9.26-8.39,14.93-17.74,15.09-8.9.15-16.34-5.4-17.05-14.84a228.32,228.32,0,0,1,.2-35.28c.68-8.27,6.88-13.07,14.71-13.81,8.7-.83,15.08,2.75,18.58,10.42.67,1.47,1.32,3,1.86,4.17Zm-349.83-57c9.49,11,28.47,15.1,43.52,10.19,12.14-4,19-13.31,18.18-24.92-.89-13.19-7.54-20.08-21.67-22.55-5.4-.95-10.86-1.71-16.15-3.1a10.22,10.22,0,0,1-8.12-9.64c-.37-5.06,1.55-9.34,6-11.74,2.68-1.44,6.09-2.73,9-2.37,6.74.86,13.35,2.75,20,4.22l.18,1.65L75,27c-9.38-9-20.16-10.78-31.59-9.47-15,1.72-23.92,11.1-24.12,24.51-.2,13.59,7.2,21.34,22.9,24,4.92.83,9.88,1.47,14.73,2.59,5.19,1.2,7.7,4.93,8.11,10.11.62,7.91-4.39,13.26-13.41,14.17-9.76,1-18.88-.62-26.38-7.73ZM162.48,72.87V159h48V146.93H175.07V121.59h29.69V109.28H175V84.64h35.42V72.87Z"/><path class="cls-1" d="M430.67,0q-.14,46.11-.25,92.23c0,4.62,0,9.25,0,14.19H286.94V53.88H144V0Z"/><path d="M463.5,93.92V32.2c8-.54,15.77-1.93,23.28.92,5.54,2.11,9.24,6.54,9.49,12.43a324.45,324.45,0,0,1,0,33.3c-.48,7.89-5.62,12.75-13.45,13.87C476.81,93.58,470.66,93.51,463.5,93.92Z"/></g></g></svg>