<?xml version="1.0" encoding="utf-8"?>
<!-- Generator: Adobe Illustrator 24.1.0, SVG Export Plug-In . SVG Version: 6.00 Build 0)  -->
<svg version="1.1" id="svg2" xmlns:svg="http://www.w3.org/2000/svg"
	 xmlns="http://www.w3.org/2000/svg" xmlns:xlink="http://www.w3.org/1999/xlink" x="0px" y="0px" viewBox="0 0 594.9 139.2"
	 style="enable-background:new 0 0 594.9 139.2;" xml:space="preserve">
<style type="text/css">
	.st0{fill:#FFFFFF;}
</style>
<g>
	<circle cx="69.6" cy="69.6" r="69.6"/>
</g>
<path class="st0" d="M78.9,34.8L78.9,34.8H45.3v69.6h13.9V83.5h19.7l0,0c13.5,0,24.4-10.9,24.4-24.4C103.3,45.7,92.4,34.8,78.9,34.8
	z M78.9,69.6L78.9,69.6H59.2V48.7h19.7l0,0c5.8,0,10.4,4.7,10.4,10.4C89.4,64.9,84.7,69.6,78.9,69.6z"/>
<g>
	<path d="M185.7,92.8V46.4H207c9.9,0,15.3,6.7,15.3,14.7c0,7.9-5.5,14.6-15.3,14.6h-11.6v17.1L185.7,92.8L185.7,92.8z M212.4,61.1
		c0-3.8-2.9-6.2-6.8-6.2h-10.3v12.2h10.3C209.5,67.2,212.4,64.8,212.4,61.1z"/>
	<path d="M228.3,92.8V58.9h8.7v4.4c2.4-2.9,6.4-5.3,10.5-5.3v8.5c-0.6-0.1-1.4-0.2-2.4-0.2c-2.9,0-6.7,1.6-8.1,3.8v22.6h-8.7V92.8z"
		/>
	<path d="M250.8,75.4c0-9.4,6.6-17.3,17.4-17.3c10.9,0,17.5,7.9,17.5,17.3c0,9.4-6.6,17.4-17.5,17.4S250.8,84.8,250.8,75.4z
		 M276.7,75.4c0-5.1-3-9.6-8.5-9.6c-5.4,0-8.4,4.4-8.4,9.6c0,5.2,3,9.6,8.4,9.6C273.7,85.1,276.7,80.6,276.7,75.4z"/>
	<path d="M314.9,92.8v-5.1c-2.6,3.3-6.2,5.1-10.2,5.1c-8.3,0-14.6-6.3-14.6-17.4c0-10.7,6.2-17.3,14.6-17.3c3.9,0,7.6,1.6,10.2,5.1
		V46.4h8.8v46.4L314.9,92.8L314.9,92.8z M314.9,81.3V69.6c-1.4-2.2-4.6-3.8-7.5-3.8c-5,0-8.4,3.9-8.4,9.6c0,5.7,3.4,9.6,8.4,9.6
		C310.4,85.1,313.5,83.5,314.9,81.3z"/>
	<path d="M354.6,92.8v-5c-2.3,2.5-6.2,5-11.6,5c-7.2,0-10.7-4-10.7-10.4V58.9h8.7v20c0,4.6,2.4,6.1,6.1,6.1c3.4,0,6-1.8,7.5-3.8
		V58.8h8.7v33.9L354.6,92.8L354.6,92.8z"/>
	<path d="M369.8,75.4c0-10.1,7.4-17.3,17.5-17.3c6.8,0,10.9,2.9,13.1,5.9l-5.7,5.3c-1.6-2.3-4-3.6-7-3.6c-5.3,0-9,3.8-9,9.6
		c0,5.7,3.7,9.6,9,9.6c3,0,5.4-1.4,7-3.6l5.7,5.3c-2.2,3-6.3,6-13.1,6C377.2,92.8,369.8,85.6,369.8,75.4z"/>
	<path d="M407.9,83.7V66.6h-5.5V59h5.5v-9h8.7v9h6.7v7.6h-6.7v14.8c0,2.1,1.1,3.7,3,3.7c1.3,0,2.5-0.5,3-1l1.8,6.6
		c-1.3,1.2-3.6,2.1-7.2,2.1C411.1,92.8,407.9,89.7,407.9,83.7z"/>
	<path d="M478.9,92.8v-20h-21.5v20h-9.7V46.4h9.7v17.9h21.5V46.4h9.8v46.4H478.9z"/>
	<path d="M519.7,92.8v-5c-2.3,2.5-6.2,5-11.6,5c-7.2,0-10.7-4-10.7-10.4V58.9h8.7v20c0,4.6,2.4,6.1,6.1,6.1c3.4,0,6-1.8,7.5-3.8
		V58.8h8.7v33.9L519.7,92.8L519.7,92.8z"/>
	<path d="M559.3,92.8V72c0-4.6-2.4-6.2-6.1-6.2c-3.4,0-6,1.9-7.5,3.8v23.1H537V58.8h8.7V63c2.1-2.5,6.2-5.1,11.6-5.1
		c7.3,0,10.8,4.1,10.8,10.5v24.1h-8.8V92.8z"/>
	<path d="M578.4,83.7V66.6h-5.5V59h5.5v-9h8.7v9h6.7v7.6h-6.7v14.8c0,2.1,1.1,3.7,3,3.7c1.3,0,2.5-0.5,3-1l1.8,6.6
		c-1.3,1.2-3.6,2.1-7.2,2.1C581.7,92.8,578.4,89.7,578.4,83.7z"/>
</g>
</svg>
