<svg xmlns="http://www.w3.org/2000/svg" viewBox="0 0 202.82 51.9"><defs><style>.cls-1{fill:#231f20;}.cls-2{fill:#4683ba;}</style></defs><g id="Layer_2" data-name="Layer 2"><g id="Layer_1-2" data-name="Layer 1"><path d="M65.27,21.12,68,28.38H62.44Zm-6.4,12.81h1.44L62,29.53h6.44l1.72,4.4h1.45L66.08,19.78h-1.5Z"/><path d="M82.87,24.06a4.29,4.29,0,0,0-4.34-3.43c-3.74,0-5.33,3.13-5.33,6.22s1.59,6.23,5.33,6.23c2.62,0,4.28-2,4.54-4.54h1.35C84,32,81.84,34.23,78.53,34.23c-4.46,0-6.68-3.51-6.68-7.38s2.22-7.37,6.68-7.37c2.68,0,5.33,1.6,5.69,4.58Z"/><path d="M86.44,19.78h2l4.9,12.4,4.88-12.4h2V33.93H98.83V21.7h0L94,33.93H92.68L87.83,21.7h0V33.93H86.44Z"/><path d="M105.05,29.23c0,1.88,1.47,2.62,3.14,2.62,1.09,0,2.76-.32,2.76-1.76s-2.13-1.79-4.21-2.35-4.22-1.37-4.22-4c0-2.9,2.73-4.28,5.29-4.28,3,0,5.67,1.29,5.67,4.56h-3c-.1-1.71-1.31-2.14-2.8-2.14-1,0-2.14.41-2.14,1.6s.68,1.23,4.22,2.14c1,.26,4.2.91,4.2,4.13,0,2.6-2,4.53-5.88,4.53-3.14,0-6.07-1.54-6-5Z"/><path d="M115.8,19.78h3.11V33.93H115.8Z"/><path d="M131.87,32.33A4.78,4.78,0,0,1,128,34.26c-4.38,0-7-3.26-7-7.35s2.58-7.47,7-7.47a5.69,5.69,0,0,1,6,5h-3a2.9,2.9,0,0,0-3-2.38c-2.8,0-3.84,2.38-3.84,4.86s1,4.74,3.84,4.74a3.07,3.07,0,0,0,3.37-3h-3.14V26.28h6v7.65h-2Z"/><path d="M146.52,32.33a4.77,4.77,0,0,1-3.88,1.93c-4.38,0-7-3.26-7-7.35s2.58-7.47,7-7.47a5.69,5.69,0,0,1,6,5h-3a2.9,2.9,0,0,0-3-2.38c-2.79,0-3.85,2.38-3.85,4.86s1.06,4.74,3.85,4.74a3.07,3.07,0,0,0,3.37-3h-3.14V26.28h5.95v7.65h-2Z"/><path d="M154.45,22.19h3.42c1.38,0,2.13.6,2.13,2s-.75,2-2.13,2h-3.42Zm-3.11,11.74h3.11V28.4h3.11c1.57,0,2.15.65,2.36,2.14a15.51,15.51,0,0,0,.5,3.39h3.11c-.55-.79-.53-2.46-.59-3.35-.1-1.43-.54-2.92-2.07-3.31v0a3.48,3.48,0,0,0,2.24-3.55,3.88,3.88,0,0,0-4.14-3.9h-7.63Z"/><path d="M171.07,23.26h0l1.78,5.2h-3.67Zm-6.92,10.67h3.15l1.11-3.16h5.29l1.07,3.16H178l-5.29-14.15h-3.19Z"/><path d="M181.55,22.19H184c1.45,0,2.74.32,2.74,2.12s-1.29,2.13-2.74,2.13h-2.42Zm-3.11,11.74h3.11V28.86h3.27c3.53,0,4.9-2.24,4.9-4.55s-1.37-4.53-4.9-4.53h-6.38Z"/><path d="M190.87,19.78H194v5.43h5.73V19.78h3.11V33.93h-3.11V27.82H194v6.11h-3.11Z"/><path d="M17.21,16C26.39,9.2,36.8,5.77,42.44,7.2,34.59-1.11,21.27-2.5,11.06,4.47s-13.72,19.69-9,30C2.66,29.53,8.08,22.8,17.21,16Z"/><polygon points="3.91 37.79 3.91 37.79 3.91 37.79 3.91 37.79 3.91 37.79"/><path d="M18,17C6.88,25.23,1.26,33.45,3.82,37.6a3.76,3.76,0,0,1-.2-.46,2.14,2.14,0,0,0,.1.22C6.21,41,16.08,38.65,26.45,32.19c-7.26,3.73-13.6,4.7-15.45,2C8.66,30.7,14.48,22.58,24,16,32.1,10.45,40.24,7.82,44,9.25a3.24,3.24,0,0,1,.73.7h0l-.15-.19C41.47,6.11,29.52,8.41,18,17Z"/><path d="M47.39,14.17l0-.06h0l0,.07Z"/><path d="M6.81,42.22C9.75,45.91,21.72,43.59,33.34,35c11.1-8.24,16.72-16.48,14.11-20.62a3.1,3.1,0,0,1,.21.45c0-.08-.08-.17-.13-.25-2.48-3.63-12.35-1.29-22.73,5.17,7.27-3.72,13.61-4.7,15.45-2,2.35,3.47-3.47,11.6-13,18.15-8.1,5.57-16.24,8.21-20,6.77a3.68,3.68,0,0,1-.72-.7h0a2.77,2.77,0,0,0,.22.29Z"/><path d="M49.24,17.51c-.61,4.93-6,11.66-15.16,18.44C24.76,42.87,14.53,46.3,9,44.85c7.87,8.18,21.09,9.51,31.25,2.58S53.91,27.8,49.24,17.51Z"/><path class="cls-1" d="M17.21,16C26.39,9.2,36.8,5.77,42.44,7.2,34.59-1.11,21.27-2.5,11.06,4.47s-13.72,19.69-9,30C2.66,29.53,8.08,22.8,17.21,16Z"/><polygon class="cls-2" points="3.91 37.79 3.91 37.79 3.91 37.79 3.91 37.79 3.91 37.79"/><path class="cls-1" d="M18,17C6.88,25.23,1.26,33.45,3.82,37.6a3.76,3.76,0,0,1-.2-.46,2.14,2.14,0,0,0,.1.22C6.21,41,16.08,38.65,26.45,32.19c-7.26,3.73-13.6,4.7-15.45,2C8.66,30.7,14.48,22.58,24,16,32.1,10.45,40.24,7.82,44,9.25a3.24,3.24,0,0,1,.73.7h0l-.15-.19C41.47,6.11,29.52,8.41,18,17Z"/><path class="cls-2" d="M47.39,14.17l0-.06h0l0,.07Z"/><path class="cls-1" d="M6.81,42.22C9.75,45.91,21.72,43.59,33.34,35c11.1-8.24,16.72-16.48,14.11-20.62a3.1,3.1,0,0,1,.21.45c0-.08-.08-.17-.13-.25-2.48-3.63-12.35-1.29-22.73,5.17,7.27-3.72,13.61-4.7,15.45-2,2.35,3.47-3.47,11.6-13,18.15-8.1,5.57-16.24,8.21-20,6.77a3.68,3.68,0,0,1-.72-.7h0a2.77,2.77,0,0,0,.22.29Z"/><path class="cls-1" d="M49.24,17.51c-.61,4.93-6,11.66-15.16,18.44C24.76,42.87,14.53,46.3,9,44.85c7.87,8.18,21.09,9.51,31.25,2.58S53.91,27.8,49.24,17.51Z"/></g></g></svg>