<?xml version="1.0" encoding="utf-8"?>
<!-- Generator: Adobe Illustrator 23.0.3, SVG Export Plug-In . SVG Version: 6.00 Build 0)  -->
<svg version="1.1"
	 id="svg8" xmlns:cc="http://creativecommons.org/ns#" xmlns:dc="http://purl.org/dc/elements/1.1/" xmlns:inkscape="http://www.inkscape.org/namespaces/inkscape" xmlns:rdf="http://www.w3.org/1999/02/22-rdf-syntax-ns#" xmlns:sodipodi="http://sodipodi.sourceforge.net/DTD/sodipodi-0.dtd" xmlns:svg="http://www.w3.org/2000/svg"
	 xmlns="http://www.w3.org/2000/svg" xmlns:xlink="http://www.w3.org/1999/xlink" x="0px" y="0px"
	 viewBox="79.055 -158.976 841.89 595.275" enable-background="new 79.055 -158.976 841.89 595.275" xml:space="preserve">
<sodipodi:namedview  bordercolor="#666666" borderopacity="1.0" fit-margin-bottom="0" fit-margin-left="0" fit-margin-right="0" fit-margin-top="0" id="base" inkscape:current-layer="layer1" inkscape:cx="1386.2882" inkscape:cy="-440.96428" inkscape:document-units="px" inkscape:pageopacity="0.0" inkscape:pageshadow="2" inkscape:window-height="1017" inkscape:window-maximized="1" inkscape:window-width="1920" inkscape:window-x="1912" inkscape:window-y="-8" inkscape:zoom="0.35" pagecolor="#ffffff" showgrid="false" units="px">
	</sodipodi:namedview>
<g id="layer1" transform="translate(260.95542,41.213839)" inkscape:groupmode="layer" inkscape:label="Layer 1">
	<path id="path1139" inkscape:connector-curvature="0" sodipodi:nodetypes="ccccccccc" fill="#5F01D1" d="M-87.873,50.927h38.899
		l22.651,57.949l22.944-57.949h37.874l-57.03,137.184H-60.65l15.611-36.352L-87.873,50.927z"/>
	<path id="path1141" inkscape:connector-curvature="0" fill="#5F01D1" d="M73.95,48.62c-29.227,0-47.703,26.212-47.703,52.314
		c0,29.373,20.257,52.66,47.148,52.66c20.06,0,27.623-12.221,27.623-12.221v9.52h33.927V50.928h-33.927v9.088
		C101.019,60.016,92.58,48.62,73.95,48.62z M81.166,80.746c13.485,0,20.445,10.67,20.445,20.298
		c0,10.368-7.456,20.543-20.445,20.543c-10.765,0-20.493-8.798-20.493-20.102C60.674,90.022,68.498,80.746,81.166,80.746z"/>
	<path id="path1145" inkscape:connector-curvature="0" sodipodi:nodetypes="ccccccccccccc" fill="#5F01D1" d="M146.631,150.894
		V6.786h35.486v53.576c0,0,8.428-11.729,26.081-11.729c21.593,0,34.245,16.089,34.245,39.079v63.182h-35.227V96.366
		c0-7.78-3.707-15.296-12.101-15.296c-8.545,0-12.998,7.63-12.998,15.296v54.527H146.631z"/>
	<path id="path1147" inkscape:connector-curvature="0" fill="#5F01D1" d="M302.945,48.632c-33.471,0-53.399,25.45-53.399,52.718
		c0,31.03,24.13,52.244,53.526,52.244c28.491,0,53.423-20.251,53.423-51.725C356.495,67.434,330.392,48.632,302.945,48.632z
		 M303.265,81.04c11.823,0,20.003,9.847,20.003,20.348c0,8.956-7.623,20.004-20.003,20.004c-11.344,0-19.857-9.101-19.857-20.102
		C283.407,90.692,290.485,81.04,303.265,81.04z"/>
	<path id="path1153" inkscape:connector-curvature="0" fill="#5F01D1" d="M415.612,48.632c-33.47,0-53.398,25.45-53.398,52.718
		c0,31.03,24.13,52.244,53.526,52.244c28.491,0,53.423-20.251,53.423-51.725C469.163,67.434,443.059,48.632,415.612,48.632z
		 M415.933,81.04c11.822,0,20.003,9.847,20.003,20.348c0,8.956-7.623,20.004-20.003,20.004c-11.345,0-19.857-9.101-19.857-20.102
		C396.075,90.692,403.152,81.04,415.933,81.04z"/>
	<path id="path1155" fill="#5F01D1" d="M497.164,105.888c13.014,0,23.564,10.55,23.564,23.564c0,13.014-10.55,23.564-23.564,23.564
		c-13.015,0-23.564-10.55-23.564-23.564C473.6,116.438,484.149,105.888,497.164,105.888z"/>
	<path id="path1157" inkscape:connector-curvature="0" sodipodi:nodetypes="ccccc" fill="#5F01D1" d="M528.471,97.232H486.05
		l37.649-90.446h42.263L528.471,97.232z"/>
</g>
</svg>
